<svg width="19" height="18" viewBox="0 0 19 18" fill="none" xmlns="http://www.w3.org/2000/svg">
<path d="M9.50001 17.99C14.465 17.99 18.49 13.965 18.49 8.99999C18.49 4.03495 14.465 0.00999451 9.50001 0.00999451C4.53497 0.00999451 0.51001 4.03495 0.51001 8.99999C0.51001 13.965 4.53497 17.99 9.50001 17.99Z" fill="#15636E"/>
<path d="M7.36987 7.05643L6.51001 6.1709C6.79877 5.76022 7.21586 5.43297 7.74846 5.18271C8.28748 4.93245 8.86499 4.81053 9.49384 4.81053L9.48101 5.99123C9.08958 5.99123 8.71099 6.08748 8.33239 6.28641C7.9538 6.47891 7.63296 6.742 7.36987 7.06284V7.05643ZM9.28209 13.884C9.03183 13.884 8.81366 13.7941 8.63399 13.6144C8.45431 13.4348 8.36448 13.2166 8.36448 12.9663C8.36448 12.7161 8.45431 12.4915 8.63399 12.3118C8.81366 12.1322 9.03183 12.0423 9.28209 12.0423C9.53234 12.0423 9.75693 12.1322 9.9366 12.3118C10.1163 12.4915 10.2061 12.7097 10.2061 12.9663C10.2061 13.223 10.1163 13.4348 9.9366 13.6144C9.75693 13.7941 9.53876 13.884 9.28209 13.884ZM8.64682 10.9258V10.329C8.64682 9.91834 8.73024 9.559 8.90349 9.24457C9.07033 8.93015 9.327 8.66706 9.6671 8.44888C10.0008 8.24354 10.2574 8.01254 10.4243 7.7687C10.5911 7.52486 10.6745 7.25535 10.6745 6.97301C10.6745 6.665 10.5719 6.42116 10.3665 6.2479C10.1612 6.07465 9.86602 5.99123 9.48101 5.99123L9.49384 4.81053C10.3024 4.81053 10.9312 4.99662 11.374 5.36238C11.8167 5.72814 12.0413 6.2479 12.0413 6.91526C12.0413 7.37727 11.9258 7.79436 11.6948 8.17296C11.4638 8.55155 11.1173 8.88523 10.6617 9.1804C10.3986 9.35366 10.1997 9.54616 10.0649 9.7515C9.93019 9.95684 9.86602 10.1814 9.86602 10.4253V10.9322H8.64682V10.9258Z" fill="white"/>
</svg>
