<svg width="38" height="35" viewBox="0 0 38 35" fill="none" xmlns="http://www.w3.org/2000/svg">
<path d="M36.4731 17.928C35.9459 17.3202 35.2502 16.9687 34.4667 16.8809C33.6831 16.8809 32.8922 17.0566 32.2845 17.5765L28.0079 21.0695C27.7443 21.2453 27.6564 21.7652 27.92 22.0288C28.0958 22.2925 28.6157 22.3803 28.8793 22.1167L33.1559 18.6237C33.8515 18.0159 34.8108 18.1843 35.3381 18.7995C35.9459 19.4951 35.7774 20.4544 35.1623 20.9817L24.6907 29.6227C24.0829 30.1499 23.2041 30.4062 22.3327 30.2305L13.4282 28.4876C12.1174 28.224 10.8066 28.5755 9.84728 29.359L9.58366 29.6227L5.16067 24.3136L4.78721 23.8522L9.32004 20.1029C9.92784 19.5757 10.8066 19.3194 11.678 19.4951L23.8119 21.8531C24.6833 22.0288 25.2985 22.9003 25.1227 23.7717C24.947 24.6431 24.0756 25.2582 23.2041 25.0825L17.0969 23.8596C16.6575 23.7717 16.3133 24.0353 16.2255 24.3868C16.1376 24.8262 16.4012 25.1703 16.7527 25.2582L22.86 26.4811C24.5149 26.7448 26.0893 25.6976 26.4408 24.0353C26.7044 22.3803 25.6573 20.8059 23.995 20.4544L11.8611 18.0965C10.5503 17.8328 9.23949 18.1843 8.2802 18.9679L3.79862 22.622L2.9565 21.5821L0.247048 23.8522C-0.0165741 24.028 -0.104448 24.5479 0.159174 24.8115C0.334922 25.0752 0.854843 25.163 1.11847 24.8994L2.69287 23.5007H2.7002L2.605 23.5886L9.15161 31.5339L9.20288 31.49L9.23949 31.5339L7.75295 32.8447C7.40146 33.0205 7.40146 33.5404 7.66508 33.804C7.75295 33.9798 8.01658 34.0676 8.19232 34.0676C8.36807 34.0676 8.54382 34.0676 8.71957 33.9798L11.2533 31.7975L10.294 30.6112L10.5576 30.3989C11.1654 29.8716 12.0441 29.6153 12.9156 29.7911L21.8201 31.5339C22.0837 31.6218 22.3474 31.6218 22.6037 31.6218C23.6508 31.6218 24.6101 31.2703 25.5694 30.7504L36.0411 22.1094C37.3519 21.0622 37.5276 19.1436 36.4804 17.9207L36.4731 17.928Z" fill="#0C5A60"/>
<path d="M23.2068 17.8315C18.8345 17.8315 15.2676 14.2647 15.2676 9.89233C15.2676 5.52002 18.8345 1.95312 23.2068 1.95312C27.5791 1.95312 31.146 5.52002 31.146 9.89233C31.146 14.2647 27.5791 17.8315 23.2068 17.8315ZM23.2068 3.65347C19.7677 3.65347 16.9807 6.45329 16.9807 9.87955C16.9807 13.3058 19.7805 16.1056 23.2068 16.1056C26.633 16.1056 29.4329 13.3058 29.4329 9.87955C29.4329 6.45329 26.633 3.65347 23.2068 3.65347Z" fill="#A3B600"/>
<path d="M22.3699 12.8704C22.1014 12.8704 21.8329 12.7347 21.6254 12.5991L19.5384 10.5639C19.1356 10.1569 19.1356 9.54015 19.5384 9.13311C19.9412 8.72608 20.5514 8.72608 20.9541 9.13311L22.2967 10.4899L25.4577 7.22129C25.8605 6.81426 26.4707 6.81426 26.8735 7.22129C27.2762 7.62832 27.2762 8.24504 26.8735 8.65207L22.9679 12.6607C22.8947 12.7964 22.6262 12.8704 22.3577 12.8704H22.3699Z" fill="#A3B600"/>
</svg>
