<svg width="62" height="56" viewBox="0 0 62 56" fill="none" xmlns="http://www.w3.org/2000/svg" xmlns:xlink="http://www.w3.org/1999/xlink">
<path d="M61.781,51.021L59.081,44.517C58.639,43.441 57.599,42.743 56.431,42.743L52.321,42.743L52.321,24.606L55.704,24.606C57.799,24.606 59.508,22.897 59.508,20.802L59.508,14.875C59.508,13.415 58.689,12.104 57.371,11.456L32.666,-0.604C31.605,-1.117 30.394,-1.117 29.333,-0.604L4.62,11.449C3.303,12.097 2.483,13.408 2.483,14.868L2.483,20.795C2.483,22.897 4.193,24.599 6.287,24.599L9.671,24.599L9.671,42.736L5.561,42.736C4.393,42.736 3.36,43.434 2.918,44.51L0.218,51.021C-0.145,51.904 -0.053,52.916 0.482,53.714C1.016,54.512 1.906,54.989 2.861,54.989L59.138,54.989C60.1,54.989 60.99,54.512 61.517,53.714C62.044,52.916 62.151,51.904 61.781,51.021ZM48.581,42.736L41.471,42.736L41.471,24.599L48.581,24.599L48.581,42.736ZM37.731,24.599L37.731,42.736L24.275,42.736L24.275,24.599L37.731,24.599ZM6.238,20.795L6.273,14.811L31.021,2.765L55.726,14.811C55.726,14.811 55.761,14.84 55.761,14.868L55.704,20.852L6.23,20.795L6.238,20.795ZM13.425,24.599L20.535,24.599L20.535,42.736L13.425,42.736L13.425,24.599ZM4.186,51.235L6.159,46.483L55.854,46.483L57.827,51.235L4.179,51.235L4.186,51.235Z" fill="#0C5A60"/>
<path d="M31,18C33.761,18 36,15.761 36,13C36,10.239 33.761,8 31,8C28.239,8 26,10.239 26,13C26,15.761 28.239,18 31,18Z" fill="#A1B500"/>
</svg>
