<svg width="92" height="84" viewBox="0 0 92 84" fill="none" xmlns="http://www.w3.org/2000/svg" xmlns:xlink="http://www.w3.org/1999/xlink">
<path d="M91.675,76.644L87.669,66.993C87.013,65.397 85.47,64.361 83.736,64.361L77.637,64.361L77.637,37.448L82.658,37.448C85.766,37.448 88.303,34.911 88.303,31.804L88.303,23.009C88.303,20.842 87.087,18.897 85.132,17.935L48.473,0.039C46.898,-0.722 45.101,-0.722 43.526,0.039L6.856,17.924C4.901,18.886 3.685,20.831 3.685,22.998L3.685,31.793C3.685,34.911 6.222,37.438 9.33,37.438L14.351,37.438L14.351,64.351L8.252,64.351C6.518,64.351 4.985,65.386 4.33,66.983L0.324,76.644C-0.216,77.955 -0.078,79.456 0.715,80.64C1.507,81.824 2.829,82.532 4.245,82.532L87.753,82.532C89.18,82.532 90.502,81.824 91.284,80.64C92.066,79.456 92.225,77.955 91.675,76.644ZM72.088,64.351L61.538,64.351L61.538,37.438L72.088,37.438L72.088,64.351ZM55.988,37.438L55.988,64.351L36.021,64.351L36.021,37.438L55.988,37.438ZM9.256,31.793L9.309,22.914L46.031,5.039L82.69,22.914C82.69,22.914 82.743,22.956 82.743,22.998L82.658,31.878L9.245,31.793L9.256,31.793ZM19.921,37.438L30.471,37.438L30.471,64.351L19.921,64.351L19.921,37.438ZM6.211,76.961L9.139,69.911L82.88,69.911L85.808,76.961L6.201,76.961L6.211,76.961Z" fill="#1A1447"/>
<path d="M46,27.645C50.098,27.645 53.419,24.323 53.419,20.226C53.419,16.128 50.098,12.807 46,12.807C41.902,12.807 38.581,16.128 38.581,20.226C38.581,24.323 41.902,27.645 46,27.645Z" fill="#0A8BF1"/>
</svg>
