<svg width="70" height="64" viewBox="0 0 70 64" fill="none" xmlns="http://www.w3.org/2000/svg" xmlns:xlink="http://www.w3.org/1999/xlink">
<path d="M69.753,58.121L66.704,50.777C66.206,49.563 65.031,48.775 63.712,48.775L59.072,48.775L59.072,28.298L62.892,28.298C65.257,28.298 67.187,26.367 67.187,24.003L67.187,17.311C67.187,15.662 66.262,14.182 64.774,13.45L36.881,-0.166C35.683,-0.745 34.316,-0.745 33.117,-0.166L5.217,13.442C3.729,14.174 2.804,15.654 2.804,17.303L2.804,23.995C2.804,26.367 4.734,28.29 7.099,28.29L10.919,28.29L10.919,48.767L6.278,48.767C4.959,48.767 3.793,49.555 3.294,50.769L0.246,58.121C-0.164,59.118 -0.059,60.26 0.544,61.161C1.147,62.062 2.152,62.6 3.23,62.6L66.769,62.6C67.855,62.6 68.86,62.062 69.455,61.161C70.05,60.26 70.171,59.118 69.753,58.121ZM54.849,48.767L46.822,48.767L46.822,28.29L54.849,28.29L54.849,48.767ZM42.6,28.29L42.6,48.767L27.407,48.767L27.407,28.29L42.6,28.29ZM7.042,23.995L7.083,17.239L35.024,3.638L62.916,17.239C62.916,17.239 62.956,17.271 62.956,17.303L62.892,24.059L7.034,23.995L7.042,23.995ZM15.158,28.29L23.184,28.29L23.184,48.767L15.158,48.767L15.158,28.29ZM4.726,58.362L6.954,52.997L63.061,52.997L65.289,58.362L4.718,58.362L4.726,58.362Z" fill="#0C5A60"/>
<path d="M35,20.839C38.117,20.839 40.645,18.311 40.645,15.194C40.645,12.076 38.117,9.548 35,9.548C31.882,9.548 29.354,12.076 29.354,15.194C29.354,18.311 31.882,20.839 35,20.839Z" fill="#A1B500"/>
</svg>
