<svg width="62" height="56" viewBox="0 0 62 56" fill="none" xmlns="http://www.w3.org/2000/svg" xmlns:xlink="http://www.w3.org/1999/xlink">
<path d="M61.781,52.021L59.081,45.517C58.639,44.441 57.599,43.743 56.431,43.743L52.321,43.743L52.321,25.606L55.704,25.606C57.799,25.606 59.508,23.897 59.508,21.802L59.508,15.875C59.508,14.415 58.689,13.104 57.371,12.456L32.666,0.396C31.605,-0.117 30.394,-0.117 29.333,0.396L4.62,12.449C3.303,13.097 2.483,14.408 2.483,15.868L2.483,21.795C2.483,23.897 4.193,25.599 6.287,25.599L9.671,25.599L9.671,43.736L5.561,43.736C4.393,43.736 3.36,44.434 2.918,45.51L0.218,52.021C-0.145,52.904 -0.053,53.916 0.482,54.714C1.016,55.512 1.906,55.989 2.861,55.989L59.138,55.989C60.1,55.989 60.99,55.512 61.517,54.714C62.044,53.916 62.151,52.904 61.781,52.021ZM48.581,43.736L41.471,43.736L41.471,25.599L48.581,25.599L48.581,43.736ZM37.731,25.599L37.731,43.736L24.275,43.736L24.275,25.599L37.731,25.599ZM6.238,21.795L6.273,15.811L31.021,3.765L55.726,15.811C55.726,15.811 55.761,15.84 55.761,15.868L55.704,21.852L6.23,21.795L6.238,21.795ZM13.425,25.599L20.535,25.599L20.535,43.736L13.425,43.736L13.425,25.599ZM4.186,52.235L6.159,47.483L55.854,47.483L57.827,52.235L4.179,52.235L4.186,52.235Z" fill="#0C5A60"/>
<path d="M31,19C33.761,19 36,16.761 36,14C36,11.239 33.761,9 31,9C28.239,9 26,11.239 26,14C26,16.761 28.239,19 31,19Z" fill="#A1B500"/>
</svg>
