<svg width="50" height="34" viewBox="0 0 50 34" fill="none" xmlns="http://www.w3.org/2000/svg" xmlns:xlink="http://www.w3.org/1999/xlink">
<path d="M16.896,16.886C16.896,17.85 17.058,18.766 17.373,19.625L27.701,9.24C26.861,8.944 25.955,8.782 25.01,8.782C20.533,8.782 16.896,12.418 16.896,16.886Z" fill="#E8E8E8"/>
<path d="M13.077,23.94C8.944,21.582 6.195,18.509 4.926,16.895C7.159,14.051 13.908,6.777 24.733,6.653C24.819,6.653 24.914,6.653 25,6.653C26.699,6.653 28.293,6.834 29.792,7.14L33.095,3.818C30.661,3.064 27.959,2.615 25,2.615L24.685,2.615C9.641,2.768 1.594,14.452 0.725,15.788L0,16.895L0.725,18.003C1.25,18.805 4.391,23.396 10.109,26.928L13.077,23.94Z" fill="#E8E8E8"/>
<path d="M49.284,15.788C49.065,15.444 45.638,10.299 39.242,6.538L42.306,3.455C43.099,2.663 43.089,1.374 42.306,0.591C41.8,0.086 41.084,-0.096 40.435,0.047C40.073,0.133 39.719,0.315 39.443,0.601L35.424,4.648L32.293,7.798L29.773,10.338L18.471,21.697L15.178,25.019L12.133,28.083L9.899,30.336C9.24,30.994 9.135,31.997 9.584,32.77C9.66,32.923 9.775,33.066 9.908,33.199C10.3,33.591 10.815,33.791 11.331,33.791C11.846,33.791 12.371,33.591 12.763,33.199L16.151,29.782C18.71,30.632 21.583,31.176 24.771,31.204L25,31.204C40.521,31.204 48.931,18.556 49.284,18.012L50,16.905L49.275,15.798L49.284,15.788ZM25,27.138L24.8,27.138C22.881,27.119 21.086,26.88 19.416,26.479L21.621,24.265C22.652,24.742 23.788,25 25,25C29.477,25 33.114,21.363 33.114,16.886C33.114,15.664 32.847,14.509 32.35,13.469L36.293,9.498C40.779,11.893 43.738,15.187 45.075,16.895C42.822,19.759 35.987,27.138 24.991,27.138L25,27.138Z" fill="#E8E8E8"/>
</svg>
