<svg width="68" height="46" viewBox="0 0 68 46" fill="none" xmlns="http://www.w3.org/2000/svg" xmlns:xlink="http://www.w3.org/1999/xlink">
<path d="M66.069,7.902L66.069,13.659C65.928,14.591 65.754,15.584 65.519,16.651C65.425,17.074 65.318,17.497 65.21,17.94C65.103,18.382 64.989,18.818 64.855,19.268C64.754,19.617 64.653,19.966 64.539,20.315C64.412,20.724 64.271,21.126 64.13,21.542C63.982,21.958 63.828,22.374 63.667,22.79C63.6,22.972 63.526,23.153 63.452,23.327C62.305,26.159 60.722,29.091 58.534,31.848C58.407,32.016 58.279,32.17 58.145,32.331C57.025,33.714 55.743,35.042 54.287,36.297C54.052,36.498 53.811,36.693 53.576,36.887C53.153,37.236 52.717,37.572 52.274,37.9C51.899,38.176 51.516,38.451 51.127,38.699C50.355,39.222 49.55,39.712 48.725,40.175C46.665,41.329 44.458,42.302 42.17,43.067C41.257,43.375 40.331,43.637 39.405,43.872C38.466,44.107 37.527,44.301 36.587,44.462C33.763,44.945 30.924,45.08 28.16,44.818C27.556,44.758 26.952,44.684 26.355,44.597C26.053,44.55 25.758,44.496 25.456,44.436C25.168,44.375 24.872,44.321 24.577,44.254C24.289,44.187 23.993,44.113 23.705,44.04C23.423,43.959 23.135,43.879 22.846,43.791C22.564,43.711 22.282,43.61 22.001,43.516C20.88,43.127 19.8,42.651 18.76,42.087C18.243,41.805 17.727,41.497 17.237,41.175C15.915,40.302 14.734,39.296 13.688,38.256C13.5,38.068 13.305,37.867 13.117,37.672C12.936,37.484 12.748,37.29 12.574,37.089C12.399,36.901 12.225,36.706 12.064,36.518C9.924,34.036 8.669,31.781 8.441,31.359C7.696,29.99 6.763,27.984 4.019,16.96C1.61,7.251 1.973,7.365 1.288,5.829C1.161,5.574 1.04,5.305 0.899,5.037C0.859,4.943 0.805,4.856 0.752,4.762C0.658,4.587 0.55,4.406 0.436,4.225C0.329,4.044 0.215,3.863 0.087,3.675C0.248,2.165 0.604,0.716 1.134,-0.653C2.449,0.649 3.657,2.159 4.69,3.89C5.743,5.661 5.435,6.5 9.152,17.047C11.702,24.28 12.453,25.904 13.922,27.742C17.854,32.627 23.121,34.331 24.658,34.801C33.977,37.686 41.794,33.566 43.075,32.855C48.101,30.104 50.859,26.206 52.086,24.199C49.255,26.742 42.713,31.801 33.622,32.15C32.434,32.197 20.303,32.66 17.371,26.232C16.499,24.32 16.432,21.777 17.371,19.697C18.478,17.242 20.786,15.833 23.376,14.84C33.373,11.002 41.136,15.745 52.086,13.867C55.394,13.303 60.326,11.901 66.062,7.895L66.069,7.902Z" fill="#FFFFFF"/>
<path d="M66.069,13.659L66.069,14.417C65.116,21.039 62.037,31.587 52.268,38.739C42.351,46.006 27.18,48.569 17.244,42.007C11.95,38.518 8.83,32.895 8.454,32.204C7.709,30.822 6.777,28.829 4.032,17.805C1.624,8.097 1.986,8.204 1.302,6.674C0.966,5.949 0.564,5.198 0.04,4.433C0.047,4.185 0.067,3.937 0.101,3.688C0.228,3.87 0.342,4.051 0.45,4.239C0.564,4.42 0.664,4.594 0.765,4.775C0.825,4.869 0.872,4.956 0.913,5.05C1.053,5.319 1.181,5.58 1.302,5.842C1.993,7.379 1.624,7.265 4.032,16.973C6.777,27.997 7.703,29.997 8.454,31.372C8.676,31.795 9.93,34.049 12.077,36.532C12.238,36.72 12.399,36.914 12.587,37.102C12.755,37.29 12.936,37.491 13.131,37.686C13.312,37.887 13.506,38.082 13.701,38.27C14.748,39.31 15.929,40.316 17.25,41.188C17.74,41.51 18.257,41.819 18.773,42.101C19.813,42.658 20.894,43.141 22.014,43.53C22.296,43.624 22.578,43.718 22.859,43.805C23.141,43.899 23.43,43.973 23.718,44.053C24.007,44.127 24.302,44.201 24.591,44.268C24.892,44.335 25.181,44.395 25.469,44.449C25.771,44.509 26.067,44.556 26.369,44.61C26.966,44.704 27.563,44.778 28.173,44.832C30.931,45.086 33.783,44.946 36.601,44.476C37.54,44.308 38.479,44.12 39.419,43.885C40.351,43.651 41.271,43.376 42.183,43.08C44.471,42.315 46.678,41.343 48.738,40.188C49.564,39.726 50.369,39.236 51.14,38.712C51.529,38.464 51.912,38.189 52.288,37.914C52.737,37.578 53.167,37.25 53.589,36.901C53.831,36.713 54.072,36.512 54.301,36.31C55.757,35.056 57.031,33.727 58.159,32.345C58.293,32.184 58.427,32.03 58.548,31.862C60.735,29.104 62.318,26.172 63.466,23.341C63.54,23.166 63.613,22.985 63.681,22.804C63.848,22.388 64.003,21.972 64.143,21.556C64.291,21.14 64.425,20.731 64.553,20.328C64.667,19.979 64.774,19.63 64.868,19.281C65.002,18.832 65.116,18.396 65.224,17.953C65.338,17.51 65.438,17.081 65.532,16.665C65.767,15.605 65.942,14.605 66.083,13.672L66.069,13.659Z" fill="#F2F2F2"/>
</svg>
