<svg width="68" height="46" viewBox="0 0 68 46" fill="none" xmlns="http://www.w3.org/2000/svg" xmlns:xlink="http://www.w3.org/1999/xlink">
<path d="M66.069,7.73L66.069,13.486C65.928,14.419 65.754,15.412 65.519,16.479C65.425,16.902 65.318,17.324 65.21,17.767C65.103,18.21 64.989,18.646 64.855,19.096C64.754,19.445 64.653,19.794 64.539,20.142C64.412,20.552 64.271,20.954 64.13,21.37C63.982,21.786 63.828,22.202 63.667,22.618C63.6,22.799 63.526,22.981 63.452,23.155C62.305,25.986 60.722,28.919 58.534,31.676C58.407,31.844 58.279,31.998 58.145,32.159C57.025,33.541 55.743,34.87 54.287,36.125C54.052,36.326 53.811,36.52 53.576,36.715C53.153,37.064 52.717,37.399 52.274,37.728C51.899,38.003 51.516,38.278 51.127,38.527C50.355,39.05 49.55,39.54 48.725,40.003C46.665,41.157 44.458,42.13 42.17,42.895C41.257,43.203 40.331,43.465 39.405,43.7C38.466,43.935 37.527,44.129 36.587,44.29C33.763,44.773 30.924,44.907 28.16,44.646C27.556,44.585 26.952,44.512 26.355,44.424C26.053,44.377 25.758,44.324 25.456,44.263C25.168,44.203 24.872,44.149 24.577,44.082C24.289,44.015 23.993,43.941 23.705,43.867C23.423,43.787 23.135,43.706 22.846,43.619C22.564,43.539 22.282,43.438 22.001,43.344C20.88,42.955 19.8,42.479 18.76,41.915C18.243,41.633 17.727,41.325 17.237,41.002C15.915,40.13 14.734,39.124 13.688,38.084C13.5,37.896 13.305,37.695 13.117,37.5C12.936,37.312 12.748,37.118 12.574,36.916C12.399,36.728 12.225,36.534 12.064,36.346C9.924,33.863 8.669,31.609 8.441,31.186C7.696,29.818 6.763,27.811 4.019,16.788C1.61,7.079 1.973,7.193 1.288,5.656C1.161,5.401 1.04,5.133 0.899,4.865C0.859,4.771 0.805,4.683 0.752,4.59C0.658,4.415 0.55,4.234 0.436,4.053C0.329,3.872 0.215,3.69 0.087,3.503C0.248,1.993 0.604,0.544 1.134,-0.825C2.449,0.477 3.657,1.986 4.69,3.717C5.743,5.489 5.435,6.327 9.152,16.875C11.702,24.108 12.453,25.731 13.922,27.57C17.854,32.454 23.121,34.159 24.658,34.628C33.977,37.514 41.794,33.394 43.075,32.683C48.101,29.932 50.859,26.033 52.086,24.027C49.255,26.57 42.713,31.629 33.622,31.978C32.434,32.025 20.303,32.488 17.371,26.06C16.499,24.148 16.432,21.605 17.371,19.525C18.478,17.069 20.786,15.66 23.376,14.667C33.373,10.829 41.136,15.573 52.086,13.694C55.394,13.131 60.326,11.729 66.062,7.723L66.069,7.73Z" fill="#FFFFFF"/>
<path d="M66.069,13.486L66.069,14.245C65.116,20.867 62.037,31.414 52.268,38.567C42.351,45.833 27.18,48.396 17.244,41.834C11.95,38.345 8.83,32.723 8.454,32.032C7.709,30.65 6.777,28.657 4.032,17.633C1.624,7.924 1.986,8.032 1.302,6.502C0.966,5.777 0.564,5.026 0.04,4.261C0.047,4.012 0.067,3.764 0.101,3.516C0.228,3.697 0.342,3.878 0.45,4.066C0.564,4.247 0.664,4.422 0.765,4.603C0.825,4.697 0.872,4.784 0.913,4.878C1.053,5.146 1.181,5.408 1.302,5.67C1.993,7.206 1.624,7.092 4.032,16.801C6.777,27.825 7.703,29.824 8.454,31.2C8.676,31.622 9.93,33.877 12.077,36.359C12.238,36.547 12.399,36.742 12.587,36.93C12.755,37.118 12.936,37.319 13.131,37.513C13.312,37.715 13.506,37.909 13.701,38.097C14.748,39.137 15.929,40.144 17.25,41.016C17.74,41.338 18.257,41.647 18.773,41.928C19.813,42.485 20.894,42.968 22.014,43.357C22.296,43.451 22.578,43.545 22.859,43.633C23.141,43.726 23.43,43.8 23.718,43.881C24.007,43.955 24.302,44.028 24.591,44.096C24.892,44.163 25.181,44.223 25.469,44.277C25.771,44.337 26.067,44.384 26.369,44.438C26.966,44.532 27.563,44.605 28.173,44.659C30.931,44.914 33.783,44.773 36.601,44.304C37.54,44.136 38.479,43.948 39.419,43.713C40.351,43.478 41.271,43.203 42.183,42.908C44.471,42.143 46.678,41.17 48.738,40.016C49.564,39.553 50.369,39.063 51.14,38.54C51.529,38.292 51.912,38.017 52.288,37.742C52.737,37.406 53.167,37.077 53.589,36.728C53.831,36.541 54.072,36.339 54.301,36.138C55.757,34.883 57.031,33.555 58.159,32.173C58.293,32.012 58.427,31.857 58.548,31.69C60.735,28.932 62.318,26 63.466,23.168C63.54,22.994 63.613,22.813 63.681,22.632C63.848,22.216 64.003,21.8 64.143,21.384C64.291,20.968 64.425,20.558 64.553,20.156C64.667,19.807 64.774,19.458 64.868,19.109C65.002,18.659 65.116,18.223 65.224,17.781C65.338,17.338 65.438,16.908 65.532,16.492C65.767,15.432 65.942,14.432 66.083,13.5L66.069,13.486Z" fill="#F2F2F2"/>
</svg>
