<svg width="40" height="33" viewBox="0 0 40 33" fill="none" xmlns="http://www.w3.org/2000/svg">
<path d="M19.9522 11.3669L19.934 8.62018C20.3466 8.69917 20.7566 8.73739 21.1665 8.73739C22.988 8.73739 24.7213 7.97554 25.8604 6.57924C27.726 4.29113 26.9969 1.45521 26.9086 1.13926C26.8334 0.871721 26.6128 0.670429 26.3378 0.616921C25.632 0.479329 23.1567 0.160829 20.9616 1.85525C19.8692 2.69863 19.2413 3.72803 18.8858 4.69372C18.6497 4.35483 18.3668 4.0185 18.0191 3.70255C15.7488 1.63102 12.8609 2.22726 12.5391 2.30115C12.2693 2.36485 12.0539 2.57124 11.989 2.84132C11.4909 4.82621 12.1862 6.95379 13.7586 8.26601C14.7472 9.08646 15.9875 9.51453 17.2355 9.51453C17.6429 9.51453 18.0503 9.46866 18.4525 9.37694L18.4654 11.2548C16.8308 11.2548 15.2169 11.6778 13.8001 12.4753C13.4447 12.6766 13.3175 13.125 13.5199 13.4792C13.7223 13.8334 14.1738 13.9582 14.5319 13.7569C15.728 13.0817 17.0928 12.7276 18.4784 12.7276C21.0627 12.7276 23.5018 13.9761 25.0067 16.068C25.152 16.2693 25.3804 16.3763 25.6113 16.3763C25.7592 16.3763 25.9123 16.333 26.042 16.2387C26.3767 16.0017 26.452 15.5431 26.2133 15.2119C24.7213 13.1352 22.4483 11.7644 19.9496 11.3746L19.9522 11.3669ZM21.8749 3.01459C23.2371 1.96226 24.781 1.92404 25.5801 1.99284C25.7047 2.76743 25.7773 4.337 24.7109 5.64667C23.603 7.00475 21.727 7.56021 19.9185 7.10412C19.9444 6.21487 20.2091 4.29878 21.8775 3.01204L21.8749 3.01459ZM14.7135 7.1296C13.6964 6.28112 13.1826 4.95871 13.3435 3.66178C14.1219 3.58534 15.7254 3.60572 17.0176 4.7829C18.0684 5.74094 18.3668 6.95634 18.4447 7.69526V7.84559C17.1707 8.25327 15.7514 7.99083 14.7135 7.1296Z" fill="#A1B500"/>
<path d="M39.8847 26.0892C39.7031 25.7682 39.3424 25.3631 38.9351 25.3631H30.7721L30.7954 25.3452H8.54319C8.54319 25.3452 8.55097 25.3554 8.55357 25.3631H0.995165C0.504764 25.3631 0.170046 25.8497 0.125936 26.288C-0.159482 29.1366 2.66097 32.3216 5.52553 32.5L34.6408 32.4873C37.303 32.1458 39.6071 29.6259 39.8847 26.981C39.9133 26.6982 39.864 26.3797 39.8847 26.0892ZM37.8245 27.3046C37.4509 28.9506 35.9901 30.4055 34.3191 30.6349L5.85506 30.64C4.05433 30.5075 2.59351 28.9838 2.1083 27.3046" fill="#0C5A60"/>
<path d="M37.1472 12.4296C36.1664 12.2741 36.2598 13.0181 36.0055 13.6246C35.9043 13.8564 35.1934 14.9928 34.991 15.0107C34.5551 14.71 34.0828 14.4756 33.5821 14.3125C33.5821 14.3125 33.5821 14.3125 33.5821 14.3074C33.5613 14.2998 33.5328 14.2947 33.5094 14.287C33.4679 14.2743 33.4238 14.2616 33.3823 14.2514C33.2992 14.2284 33.2162 14.2081 33.1332 14.1877C33.0787 14.1775 33.0242 14.1647 32.9645 14.1546C32.9334 14.1469 32.9074 14.1418 32.8737 14.1342C32.814 14.124 32.7569 14.1189 32.6999 14.1112C32.6635 14.1061 32.6246 14.101 32.5883 14.0959C32.4689 14.0832 32.3496 14.073 32.2302 14.0679C32.1939 14.0679 32.1576 14.0679 32.1238 14.0679C31.9941 14.0679 31.8669 14.0679 31.7554 14.0756C30.9692 14.1189 30.3983 14.4297 30.1467 14.5648C29.2022 15.0667 28.6158 15.8184 28.4783 15.9917C28.4264 16.0579 28.1825 16.3764 27.8244 16.7713C27.5364 17.0873 27.4222 17.1841 27.3496 17.2402C27.0589 17.472 26.7865 17.5893 26.5556 17.6886C26.252 17.7982 25.9328 17.9001 25.6319 17.9791C25.5047 18.0097 25.0947 18.1065 24.651 18.16C24.5265 18.1753 24.3994 18.188 24.2748 18.1931C23.9375 18.2084 23.2655 18.2135 22.3469 17.9893C22.0823 17.9256 21.7943 17.8415 21.4855 17.7319C20.5436 17.3956 20.2764 17.1332 19.4201 16.6032C19.0517 16.3764 18.5768 16.1012 17.8892 15.7496C17.2561 15.426 16.8072 15.2247 16.4803 15.0948C16.1767 14.9725 15.9795 14.9113 15.8342 14.8705C15.3905 14.7431 14.4772 14.4832 13.3459 14.5291C12.8321 14.552 11.841 14.6489 10.7564 15.1279C10.3749 15.2961 9.98314 15.5075 9.59393 15.7827C9.01012 16.198 8.54567 16.6694 8.17981 17.1561C6.9577 18.7715 6.76829 20.5577 6.73975 20.9169C6.77088 21.5718 6.90062 22.5782 7.40918 23.6815C7.49481 23.8675 7.58562 24.0433 7.67644 24.2064C7.9411 24.6727 8.21873 25.0549 8.47042 25.3505H10.8991C10.8472 25.3173 10.7953 25.2868 10.7486 25.2511C10.4502 25.0472 10.1829 24.8281 9.94422 24.5912C9.86897 24.5198 9.79632 24.4434 9.72626 24.3618C9.58355 24.1988 9.4616 24.0382 9.35262 23.8828C9.30851 23.8242 9.26959 23.7631 9.23067 23.6994C9.21251 23.6688 9.19434 23.6407 9.17618 23.6102C9.08537 23.4624 9.00493 23.3121 8.93487 23.1592C8.91412 23.1108 8.89336 23.0624 8.87519 23.0165C7.6479 20.1118 9.43825 16.3968 13.2058 16.0757C16.1741 15.8209 17.2302 17.9078 19.6043 18.9193C22.731 20.2519 26.4855 20.0353 29.2696 18.0479C29.5966 18.3486 30.0455 18.5983 30.362 18.8964C31.1093 19.6047 31.4777 20.6061 31.7476 21.5514C31.6438 21.6431 31.54 21.7348 31.4336 21.8266C31.0081 22.1858 30.5748 22.5375 30.1337 22.8763C29.9131 23.0445 29.6874 23.2101 29.4616 23.3707C29.3397 23.4598 29.2203 23.5439 29.1036 23.6255C28.9687 23.7197 28.8389 23.8115 28.7014 23.9006C27.9204 24.4281 27.1108 24.9122 26.2701 25.3505H29.4772L30.7357 24.4408L30.8836 24.3364L30.9718 24.2625C30.9718 24.2625 30.9796 24.2574 30.9821 24.2548L32.9438 22.6623C33.7611 23.1057 34.1736 22.963 34.8249 22.3871C36.5634 20.8685 37.2043 18.3027 36.0911 16.2388C36.5063 15.7088 37.0045 15.2502 37.321 14.6438C37.6168 14.0705 38.1799 12.5977 37.155 12.4372L37.1472 12.4296ZM34.5966 20.1118C34.4954 20.3029 33.8804 21.1896 33.6806 21.1743C33.1695 21.131 32.8529 19.7245 32.6506 19.3092C32.4378 18.8862 31.95 18.2033 31.6153 17.8619C31.3402 17.5842 30.1207 16.8096 30.1467 16.5013C30.157 16.4044 30.4528 15.984 30.5488 15.9254C31.4985 15.3547 33.3667 15.6732 34.171 16.4146C35.2115 17.3803 35.2297 18.9117 34.5992 20.1092L34.5966 20.1118Z" fill="#0C5A60"/>
</svg>
