<svg width="28" height="28" viewBox="0 0 28 28" fill="none" xmlns="http://www.w3.org/2000/svg" xmlns:xlink="http://www.w3.org/1999/xlink">
<mask id="mask_0_193_778" style="mask-type:alpha" maskUnits="userSpaceOnUse" x="0" y="0" width="14" height="14">
<rect  x="0" y="0" width="28" height="28" fill="#0A8BF1"/>
</mask>
<g mask="url(#mask_0_193_778)">
<path d="M6.551,23.333C6.014,23.333 5.566,23.154 5.206,22.794C4.847,22.434 4.667,21.986 4.667,21.449L4.667,6.551C4.667,6.014 4.847,5.566 5.206,5.206C5.566,4.847 6.014,4.667 6.551,4.667L16.336,4.667L15.169,5.833L6.551,5.833C6.372,5.833 6.207,5.908 6.058,6.058C5.908,6.207 5.833,6.372 5.833,6.551L5.833,21.449C5.833,21.628 5.908,21.793 6.058,21.942C6.207,22.092 6.372,22.167 6.551,22.167L21.449,22.167C21.628,22.167 21.793,22.092 21.942,21.942C22.092,21.793 22.167,21.628 22.167,21.449L22.167,12.712L23.333,11.546L23.333,21.449C23.333,21.986 23.154,22.434 22.794,22.794C22.434,23.154 21.986,23.333 21.449,23.333L6.551,23.333ZM11.667,16.333L11.667,13.282L22.102,2.847C22.23,2.718 22.366,2.629 22.508,2.58C22.65,2.531 22.799,2.506 22.956,2.506C23.103,2.506 23.246,2.531 23.386,2.58C23.526,2.629 23.653,2.711 23.766,2.825L25.063,4.083C25.187,4.212 25.282,4.354 25.346,4.509C25.41,4.663 25.442,4.819 25.442,4.976C25.442,5.133 25.419,5.282 25.372,5.422C25.325,5.562 25.237,5.696 25.108,5.824L14.606,16.333L11.667,16.333ZM12.833,15.167L14.108,15.167L21.884,7.39L21.247,6.753L20.536,6.071L12.833,13.773L12.833,15.167Z" fill="#FFFFFF"/>
</g>
</svg>
