<svg width="254" height="206" viewBox="0 0 254 206" fill="none" xmlns="http://www.w3.org/2000/svg" xmlns:xlink="http://www.w3.org/1999/xlink">
<path d="M123.041,82.778L123.041,174.065C123.041,191.697 108.738,206 91.107,206L31.754,206C14.122,206 -0.181,191.697 -0.181,174.065L-0.181,114.7C-0.181,114.025 -0.168,113.349 -0.106,112.686C-0.093,112.223 -0.056,111.76 0.007,111.297C0.307,108.481 0.971,105.778 1.959,103.225C6.564,91.262 18.164,82.778 31.754,82.778L123.041,82.778Z" fill="#A3B600"/>
<path d="M173.071,54.285L143.614,54.285L149.821,29.445L179.265,29.445L173.071,54.285Z" fill="#FFFFFF"/>
<path d="M183.933,82.791L161.396,82.791L167.59,63.782L190.127,63.782L183.933,82.791Z" fill="#FFFFFF"/>
<path d="M211.338,29.445L188.813,29.445L195.007,10.449L217.544,10.449L211.338,29.445Z" fill="#FFFFFF"/>
<path d="M231.535,46.964L218.02,46.964L224.214,35.564L237.729,35.564L231.535,46.964Z" fill="#A3B600"/>
<path d="M246.601,11.4L233.086,11.4L239.281,0L252.795,0L246.601,11.4Z" fill="#A3B600"/>
<path d="M123.042,119.18L123.042,129.917C122.779,131.656 122.453,133.508 122.015,135.498C121.84,136.286 121.64,137.075 121.44,137.901C121.24,138.726 121.027,139.54 120.777,140.378C120.589,141.029 120.401,141.68 120.188,142.33C119.951,143.094 119.688,143.845 119.425,144.62C119.15,145.396 118.862,146.172 118.562,146.948C118.437,147.286 118.299,147.624 118.161,147.949C116.021,153.23 113.068,158.698 108.989,163.841C108.751,164.154 108.513,164.442 108.263,164.742C106.173,167.32 103.783,169.798 101.068,172.138C100.63,172.513 100.179,172.876 99.741,173.239C98.953,173.89 98.139,174.516 97.314,175.129C96.613,175.642 95.899,176.155 95.174,176.618C93.735,177.594 92.233,178.507 90.694,179.371C86.852,181.523 82.735,183.338 78.468,184.764C76.766,185.34 75.039,185.828 73.312,186.266C71.56,186.704 69.808,187.067 68.057,187.367C62.788,188.268 57.495,188.518 52.339,188.03C51.213,187.918 50.087,187.78 48.973,187.617C48.41,187.53 47.859,187.43 47.296,187.317C46.758,187.204 46.208,187.104 45.657,186.979C45.119,186.854 44.568,186.716 44.03,186.579C43.505,186.429 42.967,186.278 42.429,186.116C41.903,185.966 41.377,185.778 40.852,185.603C38.762,184.877 36.747,183.988 34.808,182.937C33.844,182.412 32.881,181.836 31.967,181.235C29.502,179.609 27.3,177.732 25.347,175.792C24.997,175.442 24.634,175.066 24.284,174.703C23.946,174.353 23.595,173.99 23.27,173.615C22.945,173.264 22.619,172.901 22.319,172.551C18.327,167.921 15.987,163.716 15.562,162.928C14.173,160.375 12.433,156.634 7.315,136.074C2.823,117.966 3.499,118.179 2.222,115.313C1.984,114.838 1.759,114.337 1.496,113.837C1.421,113.662 1.321,113.499 1.221,113.324C1.046,112.998 0.846,112.661 0.633,112.323C0.433,111.985 0.22,111.647 -0.018,111.297C0.283,108.481 0.946,105.778 1.934,103.225C4.387,105.653 6.639,108.468 8.567,111.697C10.531,115.001 9.956,116.565 16.888,136.236C21.643,149.726 23.045,152.754 25.785,156.183C33.118,165.293 42.942,168.471 45.807,169.347C63.189,174.728 77.767,167.045 80.157,165.718C89.53,160.588 94.673,153.317 96.963,149.576C91.682,154.318 79.482,163.754 62.526,164.405C60.311,164.492 37.686,165.356 32.217,153.367C30.591,149.801 30.465,145.058 32.217,141.179C34.282,136.599 38.587,133.971 43.417,132.119C62.063,124.961 76.541,133.809 96.963,130.305C103.132,129.254 112.33,126.638 123.029,119.168L123.042,119.18Z" fill="#FFFFFF"/>
<path d="M123.042,129.917L123.042,131.331C121.265,143.682 115.521,163.353 97.301,176.693C78.806,190.245 50.512,195.026 31.98,182.787C22.106,176.28 16.287,165.794 15.587,164.505C14.198,161.927 12.458,158.21 7.34,137.65C2.848,119.543 3.523,119.743 2.247,116.89C1.621,115.539 0.871,114.137 -0.105,112.711C-0.093,112.248 -0.055,111.785 0.007,111.322C0.245,111.659 0.458,111.997 0.658,112.348C0.871,112.686 1.058,113.011 1.246,113.349C1.359,113.524 1.446,113.687 1.521,113.862C1.784,114.362 2.022,114.85 2.247,115.338C3.536,118.204 2.848,117.991 7.34,136.099C12.458,156.659 14.185,160.388 15.587,162.953C16,163.741 18.34,167.946 22.344,172.576C22.644,172.926 22.945,173.289 23.295,173.64C23.608,173.99 23.946,174.365 24.309,174.728C24.647,175.104 25.01,175.467 25.372,175.817C27.325,177.757 29.527,179.634 31.992,181.26C32.906,181.861 33.869,182.437 34.833,182.962C36.772,184.001 38.787,184.902 40.877,185.628C41.402,185.803 41.928,185.978 42.454,186.141C42.979,186.316 43.517,186.454 44.055,186.604C44.593,186.741 45.144,186.879 45.682,187.004C46.245,187.129 46.783,187.242 47.321,187.342C47.885,187.455 48.435,187.542 48.998,187.642C50.112,187.818 51.226,187.955 52.364,188.055C57.508,188.531 62.826,188.268 68.082,187.392C69.833,187.079 71.585,186.729 73.337,186.291C75.077,185.853 76.791,185.34 78.493,184.789C82.76,183.363 86.877,181.548 90.719,179.396C92.258,178.533 93.76,177.619 95.199,176.643C95.924,176.18 96.638,175.667 97.339,175.154C98.177,174.528 98.978,173.915 99.766,173.264C100.217,172.914 100.667,172.538 101.093,172.163C103.808,169.823 106.186,167.345 108.288,164.767C108.538,164.467 108.789,164.179 109.014,163.866C113.093,158.723 116.046,153.255 118.186,147.974C118.324,147.649 118.462,147.311 118.587,146.973C118.9,146.197 119.187,145.421 119.45,144.645C119.725,143.87 119.976,143.106 120.214,142.355C120.426,141.705 120.626,141.054 120.802,140.403C121.052,139.565 121.265,138.752 121.465,137.926C121.678,137.1 121.865,136.299 122.04,135.523C122.478,133.546 122.804,131.681 123.067,129.942L123.042,129.917Z" fill="#F2F2F2"/>
</svg>
