<svg width="94" height="88" viewBox="0 0 94 88" fill="none" xmlns="http://www.w3.org/2000/svg" xmlns:xlink="http://www.w3.org/1999/xlink">
<path d="M92.712,0.084L0,0.084L0,87.916L92.712,87.916L92.712,0.084Z" fill="#0C5A60"/>
<line x1="32" y1="46.123" x2="60.045" y2="46.123" stroke="#FFFFFF" stroke-width="2" stroke-miterlimit="10" stroke-linecap="round"/>
<path d="M25.238,47.236C24.421,47.979 24.361,49.244 25.104,50.061C25.847,50.878 27.112,50.938 27.929,50.195L25.238,47.236ZM36.629,39.581L37.971,38.098L36.626,36.88L35.283,38.101L36.629,39.581ZM45.37,50.198C46.188,50.939 47.453,50.877 48.194,50.058C48.936,49.24 48.874,47.975 48.055,47.233L45.37,50.198ZM27.929,50.195L37.974,41.06L35.283,38.101L25.238,47.236L27.929,50.195ZM35.286,41.063L45.37,50.198L48.055,47.233L37.971,38.098L35.286,41.063Z" transform="rotate(-180 36.648 44.148)" fill="#FFFFFF"/>
</svg>
