<svg width="94" height="90" viewBox="0 0 94 90" fill="none" xmlns="http://www.w3.org/2000/svg" xmlns:xlink="http://www.w3.org/1999/xlink">
<path d="M92.119,75.751C91.709,74.764 90.745,74.118 89.675,74.118L33.205,74.118C31.743,74.118 30.558,75.304 30.558,76.765C30.558,78.227 31.743,79.412 33.205,79.412L83.284,79.412L77.215,85.481C76.182,86.514 76.182,88.192 77.215,89.225C77.732,89.742 78.41,90 79.088,90C79.765,90 80.443,89.742 80.96,89.225L91.548,78.638C92.304,77.877 92.534,76.742 92.124,75.755L92.119,75.751Z" fill="#A1B500"/>
<path d="M-0.127,14.249C0.284,15.236 1.248,15.882 2.317,15.882L58.788,15.882C60.25,15.882 61.435,14.696 61.435,13.235C61.435,11.773 60.25,10.588 58.788,10.588L8.709,10.588L14.777,4.519C15.81,3.486 15.81,1.808 14.777,0.775C14.261,0.258 13.583,0 12.905,0C12.227,0 11.549,0.258 11.033,0.775L0.45,11.362C-0.306,12.119 -0.532,13.258 -0.122,14.245L-0.127,14.249Z" fill="#A1B500"/>
<path d="M71.16,21.175L21.745,21.175C16.391,21.175 12.038,25.529 12.038,30.882L12.038,59.118C12.038,64.472 16.391,68.825 21.745,68.825L71.156,68.825C76.509,68.825 80.863,64.472 80.863,59.118L80.863,30.882C80.863,25.529 76.509,21.175 71.156,21.175L71.16,21.175ZM75.573,59.118C75.573,61.548 73.595,63.531 71.16,63.531L21.745,63.531C19.315,63.531 17.332,61.553 17.332,59.118L17.332,30.882C17.332,28.452 19.31,26.469 21.745,26.469L71.156,26.469C73.586,26.469 75.569,28.448 75.569,30.882L75.569,59.118L75.573,59.118ZM31.457,34.41C31.457,35.872 30.271,37.057 28.81,37.057L25.282,37.057C23.82,37.057 22.635,35.872 22.635,34.41C22.635,32.948 23.82,31.763 25.282,31.763L28.81,31.763C30.271,31.763 31.457,32.948 31.457,34.41ZM70.28,55.585C70.28,57.047 69.094,58.232 67.633,58.232L64.105,58.232C62.643,58.232 61.458,57.047 61.458,55.585C61.458,54.124 62.643,52.938 64.105,52.938L67.633,52.938C69.094,52.938 70.28,54.124 70.28,55.585ZM46.457,31.763C39.157,31.763 33.223,37.698 33.223,44.998C33.223,52.297 39.157,58.232 46.457,58.232C53.757,58.232 59.692,52.297 59.692,44.998C59.692,37.698 53.757,31.763 46.457,31.763ZM46.457,52.938C42.076,52.938 38.516,49.379 38.516,44.998C38.516,40.617 42.076,37.057 46.457,37.057C50.838,37.057 54.398,40.617 54.398,44.998C54.398,49.379 50.838,52.938 46.457,52.938Z" fill="#0C5A60"/>
</svg>
