<svg width="68" height="60" viewBox="0 0 68 60" fill="none" xmlns="http://www.w3.org/2000/svg" xmlns:xlink="http://www.w3.org/1999/xlink">
<path d="M24.588,60L0.25,60L0.25,24.28C0.25,21.212 2.795,18.702 5.907,18.702L24.588,18.702L24.588,60ZM3.083,57.207L21.763,57.207L21.763,21.487L5.907,21.487C4.351,21.487 3.074,22.746 3.074,24.28L3.074,57.207L3.083,57.207Z" fill="#0C5A60"/>
<path d="M46.245,60L21.763,60L21.763,5.578C21.763,2.51 24.309,0 27.421,0L40.444,0C43.556,0 46.101,2.51 46.101,5.578L46.101,59.992L46.245,59.992L46.245,60ZM24.588,57.207L43.268,57.207L43.268,5.578C43.268,4.044 41.991,2.785 40.435,2.785L27.412,2.785C25.856,2.785 24.579,4.044 24.579,5.578L24.579,57.207L24.588,57.207Z" fill="#A1B500"/>
<path d="M67.75,60L43.412,60L43.412,30.559L62.093,30.559C65.205,30.559 67.75,33.068 67.75,36.137L67.75,60ZM46.245,57.207L64.926,57.207L64.926,36.137C64.926,34.603 63.649,33.343 62.093,33.343L46.245,33.343L46.245,57.207Z" fill="#0C5A60"/>
</svg>
