<svg width="452" height="110" viewBox="0 0 452 110" fill="none" xmlns="http://www.w3.org/2000/svg" xmlns:xlink="http://www.w3.org/1999/xlink">
<path d="M96.957,96.463L95.014,90.15C94.93,89.982 94.818,89.892 94.689,89.892L78.772,89.892C78.643,89.892 78.536,89.976 78.447,90.15L76.571,96.463C76.442,96.89 76.161,97.109 75.728,97.109L67.512,97.109C67.254,97.109 67.057,97.036 66.928,96.884C66.799,96.733 66.776,96.508 66.866,96.21L80.839,52.68C80.968,52.253 81.249,52.034 81.681,52.034L91.841,52.034C92.274,52.034 92.554,52.247 92.684,52.68L106.657,96.21C106.702,96.295 106.718,96.401 106.718,96.53C106.718,96.918 106.482,97.109 106.005,97.109L97.789,97.109C97.356,97.109 97.075,96.896 96.946,96.463L96.957,96.463ZM81.041,82.878L92.431,82.878C92.689,82.878 92.773,82.748 92.689,82.49L86.865,63.361C86.82,63.193 86.759,63.114 86.669,63.137C86.584,63.159 86.517,63.232 86.472,63.361L80.777,82.49C80.732,82.748 80.822,82.878 81.036,82.878L81.041,82.878Z" fill="#15636E"/>
<path d="M131.014,64.232C131.165,64.08 131.345,64.007 131.564,64.007L139.135,64.007C139.348,64.007 139.533,64.08 139.685,64.232C139.837,64.384 139.91,64.563 139.91,64.782L139.91,94.149C139.91,99.771 138.281,103.787 135.024,106.19C131.766,108.594 127.571,109.796 122.438,109.796C120.927,109.796 119.248,109.689 117.389,109.476C116.957,109.431 116.743,109.156 116.743,108.639L117.001,102.006C117.001,101.45 117.305,101.209 117.906,101.299C119.456,101.557 120.882,101.686 122.174,101.686C124.932,101.686 127.06,101.085 128.548,99.883C130.037,98.681 130.778,96.749 130.778,94.087C130.778,93.958 130.733,93.885 130.649,93.863C130.564,93.84 130.475,93.874 130.39,93.958C128.751,95.722 126.358,96.598 123.207,96.598C120.405,96.598 117.827,95.924 115.474,94.57C113.121,93.217 111.453,91.038 110.459,88.033C109.813,86.056 109.487,83.507 109.487,80.367C109.487,77.02 109.875,74.291 110.65,72.19C111.554,69.573 113.087,67.467 115.244,65.878C117.4,64.288 119.899,63.496 122.747,63.496C126.066,63.496 128.61,64.485 130.379,66.462C130.463,66.546 130.553,66.58 130.637,66.557C130.722,66.535 130.767,66.462 130.767,66.332L130.767,64.788C130.767,64.575 130.84,64.389 130.991,64.238L131.014,64.232ZM130.789,80.3C130.789,78.969 130.744,77.941 130.66,77.211C130.576,76.481 130.424,75.796 130.205,75.15C129.818,73.993 129.172,73.055 128.262,72.347C127.352,71.64 126.234,71.286 124.898,71.286C123.561,71.286 122.505,71.64 121.596,72.347C120.691,73.055 120.023,73.987 119.591,75.15C118.984,76.436 118.686,78.177 118.686,80.367C118.686,82.771 118.945,84.489 119.461,85.517C119.849,86.674 120.528,87.612 121.5,88.32C122.472,89.027 123.623,89.381 124.96,89.381C126.296,89.381 127.481,89.027 128.391,88.32C129.295,87.612 129.919,86.697 130.267,85.585C130.609,84.298 130.783,82.535 130.783,80.305L130.789,80.3Z" fill="#15636E"/>
<path d="M166.699,64.457C167.041,64.631 167.171,64.951 167.086,65.423L165.727,72.763C165.682,73.28 165.379,73.426 164.823,73.212C164.177,72.999 163.419,72.892 162.56,72.892C162.212,72.892 161.74,72.937 161.139,73.021C159.589,73.15 158.269,73.718 157.191,74.729C156.112,75.74 155.573,77.076 155.573,78.755L155.573,96.334C155.573,96.547 155.495,96.733 155.349,96.879C155.197,97.03 155.012,97.103 154.798,97.103L147.228,97.103C147.014,97.103 146.829,97.03 146.677,96.879C146.526,96.727 146.453,96.547 146.453,96.334L146.453,64.777C146.453,64.563 146.526,64.378 146.677,64.226C146.829,64.075 147.009,64.002 147.228,64.002L154.798,64.002C155.012,64.002 155.197,64.075 155.349,64.226C155.5,64.378 155.573,64.558 155.573,64.777L155.573,67.225C155.573,67.355 155.613,67.439 155.702,67.484C155.787,67.529 155.854,67.506 155.899,67.422C157.668,64.844 160.038,63.558 163.015,63.558C164.565,63.558 165.795,63.861 166.704,64.462L166.699,64.457Z" fill="#15636E"/>
<path d="M172.489,58.824C171.518,57.858 171.035,56.645 171.035,55.184C171.035,53.724 171.506,52.461 172.456,51.511C173.405,50.568 174.635,50.096 176.145,50.096C177.656,50.096 178.886,50.568 179.835,51.511C180.784,52.455 181.256,53.679 181.256,55.184C181.256,56.69 180.773,57.858 179.801,58.824C178.83,59.79 177.611,60.273 176.145,60.273C174.68,60.273 173.461,59.79 172.489,58.824ZM171.709,96.884C171.557,96.733 171.484,96.553 171.484,96.34L171.484,64.721C171.484,64.507 171.557,64.322 171.709,64.176C171.86,64.024 172.04,63.951 172.259,63.951L179.83,63.951C180.043,63.951 180.228,64.024 180.38,64.176C180.532,64.327 180.605,64.507 180.605,64.721L180.605,96.34C180.605,96.553 180.526,96.738 180.38,96.884C180.228,97.036 180.043,97.109 179.83,97.109L172.259,97.109C172.046,97.109 171.86,97.036 171.709,96.884Z" fill="#15636E"/>
<path d="M218.323,52.028L225.893,52.028C226.107,52.028 226.292,52.101 226.444,52.253C226.595,52.404 226.668,52.584 226.668,52.798L226.668,96.329C226.668,96.542 226.59,96.727 226.444,96.873C226.292,97.025 226.107,97.098 225.893,97.098L218.323,97.098C218.109,97.098 217.924,97.025 217.772,96.873C217.621,96.722 217.548,96.542 217.548,96.329L217.548,67.928C217.548,67.759 217.503,67.669 217.419,67.669C217.334,67.669 217.244,67.731 217.16,67.86L210.303,78.548C210.084,78.89 209.786,79.064 209.399,79.064L205.58,79.064C205.192,79.064 204.889,78.896 204.675,78.548L197.818,67.86C197.734,67.731 197.644,67.675 197.56,67.697C197.476,67.72 197.431,67.815 197.431,67.989L197.431,96.323C197.431,96.536 197.358,96.722 197.206,96.868C197.054,97.019 196.869,97.092 196.656,97.092L189.085,97.092C188.866,97.092 188.686,97.019 188.535,96.868C188.383,96.716 188.31,96.536 188.31,96.323L188.31,52.792C188.31,52.579 188.383,52.393 188.535,52.247C188.686,52.096 188.866,52.023 189.085,52.023L196.656,52.023C197.043,52.023 197.346,52.197 197.56,52.539L207.264,67.546C207.394,67.804 207.523,67.804 207.652,67.546L217.424,52.539C217.638,52.197 217.941,52.023 218.328,52.023L218.323,52.028Z" fill="#A1B500"/>
<path d="M263.679,82.619C263.634,83.136 263.353,83.394 262.836,83.394L242.843,83.394C242.585,83.394 242.495,83.501 242.585,83.715C242.714,84.574 242.95,85.433 243.298,86.292C244.421,88.696 246.707,89.898 250.155,89.898C252.913,89.859 255.092,88.741 256.687,86.551C256.861,86.292 257.052,86.163 257.271,86.163C257.4,86.163 257.552,86.247 257.726,86.422L262.382,90.993C262.595,91.207 262.707,91.403 262.707,91.572C262.707,91.656 262.623,91.83 262.449,92.088C261.028,93.852 259.192,95.211 256.951,96.177C254.704,97.143 252.25,97.626 249.577,97.626C245.864,97.626 242.731,96.789 240.164,95.115C237.597,93.442 235.755,91.1 234.632,88.095C233.728,85.95 233.273,83.136 233.273,79.66C233.273,77.301 233.599,75.217 234.245,73.415C235.239,70.365 236.974,67.939 239.451,66.136C241.933,64.333 244.876,63.429 248.279,63.429C252.593,63.429 256.052,64.676 258.664,67.164C261.275,69.652 262.859,72.982 263.421,77.144C263.679,78.778 263.763,80.598 263.679,82.619ZM242.972,75.083C242.798,75.644 242.646,76.329 242.517,77.144C242.517,77.357 242.624,77.464 242.843,77.464L254.036,77.464C254.294,77.464 254.379,77.357 254.294,77.144C254.075,75.897 253.969,75.296 253.969,75.341C253.581,74.055 252.901,73.055 251.93,72.347C250.958,71.64 249.762,71.286 248.341,71.286C245.623,71.286 243.831,72.555 242.972,75.088L242.972,75.083Z" fill="#A1B500"/>
<path d="M289.552,64.457C289.895,64.631 290.024,64.951 289.94,65.423L288.581,72.763C288.536,73.28 288.233,73.426 287.677,73.212C287.031,72.999 286.273,72.892 285.413,72.892C285.065,72.892 284.593,72.937 283.993,73.021C282.442,73.151 281.123,73.718 280.044,74.729C278.966,75.74 278.427,77.076 278.427,78.756L278.427,96.334C278.427,96.548 278.348,96.733 278.202,96.879C278.051,97.031 277.865,97.104 277.652,97.104L270.081,97.104C269.868,97.104 269.683,97.031 269.531,96.879C269.379,96.727 269.306,96.548 269.306,96.334L269.306,64.777C269.306,64.563 269.379,64.378 269.531,64.226C269.683,64.075 269.862,64.002 270.081,64.002L277.652,64.002C277.865,64.002 278.051,64.075 278.202,64.226C278.354,64.378 278.427,64.558 278.427,64.777L278.427,67.226C278.427,67.355 278.466,67.439 278.556,67.484C278.64,67.529 278.708,67.506 278.753,67.422C280.522,64.844 282.892,63.558 285.868,63.558C287.418,63.558 288.648,63.861 289.558,64.462L289.552,64.457Z" fill="#A1B500"/>
<path d="M298.903,95.048C296.382,93.329 294.579,90.971 293.501,87.966C292.765,85.821 292.4,83.288 292.4,80.367C292.4,77.447 292.765,75.004 293.501,72.898C294.534,69.977 296.326,67.68 298.87,66.007C301.414,64.333 304.413,63.496 307.861,63.496C311.31,63.496 314.342,64.356 316.948,66.074C319.56,67.793 321.295,69.961 322.154,72.578C322.497,73.605 322.671,74.381 322.671,74.897L322.671,75.026C322.671,75.414 322.458,75.65 322.025,75.734L314.584,76.829L314.455,76.829C314.067,76.829 313.809,76.616 313.68,76.183L313.483,75.15C313.18,74.032 312.511,73.111 311.478,72.381C310.445,71.651 309.215,71.286 307.788,71.286C306.362,71.286 305.244,71.629 304.295,72.319C303.346,73.005 302.677,73.954 302.29,75.15C301.813,76.436 301.577,78.2 301.577,80.429C301.577,82.659 301.79,84.422 302.223,85.708C302.61,86.994 303.29,88.005 304.261,88.735C305.233,89.466 306.407,89.831 307.788,89.831C309.17,89.831 310.299,89.477 311.315,88.769C312.326,88.061 313.028,87.084 313.416,85.837C313.461,85.753 313.477,85.624 313.477,85.45C313.522,85.411 313.545,85.343 313.545,85.259C313.584,84.742 313.887,84.529 314.449,84.613L321.89,85.77C322.323,85.854 322.536,86.09 322.536,86.478C322.536,86.82 322.407,87.466 322.149,88.41C321.245,91.285 319.487,93.543 316.875,95.172C314.264,96.806 311.259,97.62 307.85,97.62C304.441,97.62 301.414,96.761 298.892,95.042L298.903,95.048Z" fill="#A1B500"/>
<path d="M353.667,66.647C355.778,68.753 356.834,71.606 356.834,75.212L356.834,96.334C356.834,96.548 356.756,96.733 356.61,96.879C356.458,97.03 356.273,97.104 356.059,97.104L348.489,97.104C348.275,97.104 348.09,97.03 347.938,96.879C347.786,96.727 347.713,96.548 347.713,96.334L347.713,77.082C347.713,75.363 347.23,73.971 346.259,72.898C345.287,71.825 344.007,71.286 342.412,71.286C340.817,71.286 339.531,71.825 338.565,72.898C337.593,73.971 337.11,75.369 337.11,77.082L337.11,96.334C337.11,96.548 337.032,96.733 336.885,96.879C336.734,97.03 336.549,97.104 336.335,97.104L328.765,97.104C328.551,97.104 328.366,97.03 328.214,96.879C328.062,96.727 327.99,96.548 327.99,96.334L327.99,52.803C327.99,52.59 328.062,52.404 328.214,52.258C328.366,52.107 328.546,52.034 328.765,52.034L336.335,52.034C336.549,52.034 336.734,52.107 336.885,52.258C337.037,52.41 337.11,52.59 337.11,52.803L337.11,67.035C337.11,67.164 337.149,67.248 337.239,67.293C337.324,67.338 337.391,67.315 337.436,67.231C339.205,64.743 341.833,63.496 345.327,63.496C348.82,63.496 351.561,64.547 353.672,66.653L353.667,66.647Z" fill="#A1B500"/>
<path d="M384.14,64.94C386.342,65.906 388.054,67.226 389.284,68.899C390.514,70.573 391.126,72.443 391.126,74.504L391.126,96.334C391.126,96.548 391.054,96.733 390.902,96.879C390.75,97.031 390.565,97.104 390.351,97.104L382.781,97.104C382.562,97.104 382.382,97.031 382.231,96.879C382.079,96.727 382.006,96.548 382.006,96.334L382.006,94.211C382.006,94.082 381.961,93.998 381.877,93.953C381.792,93.914 381.703,93.953 381.618,94.082C379.804,96.446 376.895,97.626 372.885,97.626C369.521,97.626 366.803,96.811 364.736,95.177C362.664,93.548 361.63,91.145 361.63,87.966C361.63,84.787 362.793,82.097 365.124,80.272C367.454,78.447 370.773,77.537 375.087,77.537L381.686,77.537C381.899,77.537 382.011,77.43 382.011,77.217L382.011,75.801C382.011,74.386 381.579,73.28 380.72,72.482C379.855,71.69 378.563,71.292 376.839,71.292C375.502,71.292 374.39,71.528 373.509,71.999C372.621,72.471 372.054,73.139 371.796,73.993C371.666,74.465 371.386,74.678 370.953,74.639L363.124,73.605C362.608,73.521 362.372,73.325 362.411,73.027C362.585,71.224 363.304,69.596 364.579,68.135C365.848,66.675 367.533,65.541 369.628,64.721C371.717,63.906 374.059,63.496 376.648,63.496C379.45,63.496 381.955,63.979 384.151,64.945L384.14,64.94ZM380.063,89.381C381.354,88.393 382.006,87.129 382.006,85.585L382.006,83.265C382.006,83.052 381.899,82.945 381.68,82.945L377.024,82.945C375.081,82.945 373.565,83.31 372.464,84.04C371.363,84.77 370.813,85.804 370.813,87.129C370.813,88.286 371.223,89.202 372.043,89.864C372.863,90.533 373.963,90.864 375.345,90.864C377.198,90.864 378.776,90.37 380.068,89.381L380.063,89.381Z" fill="#A1B500"/>
<path d="M423.217,66.647C425.329,68.753 426.385,71.606 426.385,75.212L426.385,96.334C426.385,96.548 426.306,96.733 426.16,96.879C426.008,97.031 425.823,97.104 425.61,97.104L418.039,97.104C417.826,97.104 417.64,97.031 417.489,96.879C417.337,96.727 417.264,96.548 417.264,96.334L417.264,77.082C417.264,75.363 416.781,73.971 415.809,72.898C414.838,71.825 413.557,71.286 411.962,71.286C410.367,71.286 409.081,71.825 408.115,72.898C407.144,73.971 406.661,75.369 406.661,77.082L406.661,96.334C406.661,96.548 406.582,96.733 406.436,96.879C406.284,97.031 406.099,97.104 405.886,97.104L398.315,97.104C398.102,97.104 397.916,97.031 397.765,96.879C397.613,96.727 397.54,96.548 397.54,96.334L397.54,64.777C397.54,64.563 397.613,64.378 397.765,64.226C397.916,64.075 398.096,64.002 398.315,64.002L405.886,64.002C406.099,64.002 406.284,64.075 406.436,64.226C406.588,64.378 406.661,64.558 406.661,64.777L406.661,67.029C406.661,67.158 406.7,67.242 406.79,67.287C406.874,67.332 406.941,67.31 406.986,67.226C408.756,64.738 411.384,63.491 414.877,63.491C418.37,63.491 421.111,64.541 423.223,66.647L423.217,66.647Z" fill="#A1B500"/>
<path d="M451.781,71.061C451.629,71.213 451.444,71.286 451.231,71.286L445.019,71.286C444.806,71.286 444.693,71.393 444.693,71.606L444.693,85.259C444.693,86.674 444.985,87.73 445.564,88.415C446.148,89.1 447.086,89.443 448.378,89.443L450.512,89.443C450.725,89.443 450.911,89.516 451.062,89.668C451.214,89.819 451.287,89.999 451.287,90.212L451.287,96.328C451.287,96.8 451.028,97.081 450.512,97.165C448.703,97.249 447.406,97.294 446.631,97.294C443.053,97.294 440.375,96.705 438.611,95.525C436.842,94.346 435.938,92.122 435.893,88.859L435.893,71.601C435.893,71.387 435.786,71.28 435.567,71.28L431.877,71.28C431.658,71.28 431.479,71.207 431.327,71.056C431.175,70.904 431.102,70.724 431.102,70.511L431.102,64.777C431.102,64.563 431.175,64.378 431.327,64.226C431.479,64.075 431.658,64.002 431.877,64.002L435.567,64.002C435.781,64.002 435.893,63.895 435.893,63.682L435.893,56.021C435.893,55.808 435.966,55.623 436.118,55.477C436.269,55.325 436.449,55.252 436.668,55.252L443.913,55.252C444.126,55.252 444.312,55.325 444.463,55.477C444.615,55.628 444.688,55.808 444.688,56.021L444.688,63.682C444.688,63.895 444.795,64.002 445.014,64.002L451.225,64.002C451.438,64.002 451.624,64.075 451.775,64.226C451.927,64.378 452,64.558 452,64.777L452,70.511C452,70.724 451.927,70.91 451.775,71.056L451.781,71.061Z" fill="#A1B500"/>
<path d="M55.302,37.151L55.302,78.121C55.302,86.034 48.883,92.453 40.97,92.453L14.332,92.453C6.419,92.453 0,86.034 0,78.121L0,51.478C0,51.174 0.006,50.871 0.034,50.574C0.039,50.366 0.056,50.158 0.084,49.95C0.219,48.687 0.517,47.473 0.96,46.328C3.027,40.959 8.233,37.151 14.332,37.151L55.302,37.151Z" fill="#A3B600"/>
<path d="M77.756,24.363L64.535,24.363L67.321,13.215L80.536,13.215L77.756,24.363Z" fill="#15636E"/>
<path d="M82.631,37.157L72.516,37.157L75.296,28.626L85.411,28.626L82.631,37.157Z" fill="#15636E"/>
<path d="M94.93,13.215L84.821,13.215L87.601,4.69L97.716,4.69L94.93,13.215Z" fill="#15636E"/>
<path d="M103.994,21.078L97.929,21.078L100.709,15.961L106.774,15.961L103.994,21.078Z" fill="#A3B600"/>
<path d="M110.756,5.116L104.691,5.116L107.471,0L113.536,0L110.756,5.116Z" fill="#A3B600"/>
<path d="M55.302,53.488L55.302,58.307C55.184,59.088 55.038,59.919 54.842,60.812C54.763,61.166 54.673,61.519 54.583,61.89C54.494,62.261 54.398,62.626 54.286,63.002C54.202,63.294 54.117,63.586 54.022,63.878C53.915,64.221 53.797,64.558 53.679,64.906C53.556,65.254 53.427,65.602 53.292,65.951C53.236,66.102 53.174,66.254 53.112,66.4C52.152,68.77 50.826,71.224 48.995,73.532C48.889,73.673 48.782,73.802 48.67,73.937C47.732,75.094 46.659,76.206 45.44,77.256C45.244,77.424 45.042,77.587 44.845,77.75C44.491,78.042 44.126,78.323 43.756,78.598C43.441,78.829 43.121,79.059 42.795,79.267C42.149,79.705 41.475,80.115 40.785,80.502C39.06,81.468 37.213,82.282 35.298,82.923C34.534,83.181 33.759,83.4 32.984,83.597C32.197,83.793 31.411,83.956 30.625,84.091C28.261,84.495 25.885,84.608 23.571,84.389C23.066,84.338 22.56,84.276 22.06,84.203C21.808,84.164 21.56,84.119 21.308,84.068C21.066,84.018 20.819,83.973 20.572,83.917C20.33,83.861 20.083,83.799 19.842,83.737C19.606,83.67 19.365,83.602 19.123,83.529C18.887,83.462 18.651,83.378 18.415,83.299C17.478,82.973 16.573,82.575 15.703,82.103C15.27,81.867 14.838,81.609 14.428,81.339C13.322,80.609 12.333,79.766 11.457,78.896C11.3,78.739 11.137,78.57 10.98,78.407C10.828,78.25 10.671,78.087 10.525,77.919C10.379,77.761 10.233,77.599 10.098,77.441C8.306,75.363 7.256,73.476 7.065,73.123C6.442,71.977 5.661,70.298 3.364,61.07C1.348,52.944 1.651,53.039 1.078,51.753C0.972,51.54 0.871,51.315 0.753,51.09C0.719,51.012 0.674,50.939 0.629,50.86C0.55,50.714 0.461,50.562 0.365,50.411C0.275,50.259 0.18,50.107 0.073,49.95C0.208,48.687 0.506,47.473 0.949,46.328C2.05,47.417 3.061,48.681 3.926,50.13C4.807,51.613 4.549,52.315 7.66,61.143C9.795,67.197 10.424,68.557 11.654,70.095C14.945,74.184 19.353,75.61 20.639,76.004C28.44,78.419 34.983,74.97 36.056,74.375C40.262,72.072 42.571,68.809 43.598,67.13C41.228,69.259 35.752,73.493 28.143,73.785C27.149,73.825 16.995,74.212 14.54,68.832C13.81,67.231 13.754,65.103 14.54,63.362C15.467,61.306 17.399,60.127 19.567,59.295C27.935,56.083 34.433,60.054 43.598,58.481C46.367,58.009 50.495,56.836 55.297,53.483L55.302,53.488Z" fill="#FFFFFF"/>
<path d="M55.302,58.307L55.302,58.942C54.505,64.485 51.927,73.313 43.75,79.3C35.449,85.383 22.751,87.528 14.434,82.035C10.002,79.115 7.391,74.409 7.076,73.83C6.453,72.673 5.672,71.005 3.375,61.778C1.359,53.651 1.662,53.741 1.09,52.461C0.809,51.854 0.472,51.225 0.034,50.585C0.039,50.377 0.056,50.169 0.084,49.961C0.191,50.113 0.286,50.265 0.376,50.422C0.472,50.574 0.556,50.72 0.64,50.871C0.691,50.95 0.73,51.023 0.764,51.101C0.882,51.326 0.988,51.545 1.09,51.764C1.668,53.05 1.359,52.955 3.375,61.081C5.672,70.309 6.447,71.982 7.076,73.134C7.262,73.488 8.312,75.375 10.109,77.453C10.244,77.61 10.379,77.773 10.536,77.93C10.676,78.087 10.828,78.256 10.991,78.418C11.142,78.587 11.305,78.75 11.468,78.907C12.344,79.778 13.333,80.62 14.439,81.35C14.849,81.62 15.282,81.878 15.714,82.114C16.585,82.58 17.489,82.984 18.427,83.31C18.663,83.389 18.898,83.467 19.134,83.54C19.37,83.619 19.612,83.681 19.853,83.748C20.095,83.81 20.342,83.872 20.583,83.928C20.836,83.984 21.077,84.035 21.319,84.08C21.572,84.13 21.819,84.169 22.071,84.214C22.571,84.293 23.071,84.355 23.582,84.4C25.89,84.613 28.277,84.495 30.636,84.102C31.422,83.962 32.209,83.804 32.995,83.608C33.776,83.411 34.545,83.181 35.309,82.934C37.224,82.294 39.072,81.479 40.796,80.513C41.486,80.126 42.16,79.716 42.806,79.278C43.132,79.07 43.452,78.84 43.767,78.609C44.143,78.329 44.502,78.053 44.856,77.761C45.058,77.604 45.261,77.436 45.452,77.267C46.67,76.217 47.737,75.105 48.681,73.948C48.793,73.813 48.905,73.684 49.007,73.544C50.837,71.235 52.163,68.781 53.123,66.411C53.185,66.265 53.247,66.113 53.303,65.962C53.443,65.614 53.572,65.265 53.69,64.917C53.814,64.569 53.926,64.226 54.033,63.889C54.128,63.597 54.218,63.305 54.297,63.013C54.409,62.637 54.505,62.272 54.595,61.901C54.69,61.531 54.774,61.171 54.853,60.823C55.05,59.936 55.196,59.099 55.313,58.318L55.302,58.307Z" fill="#F2F2F2"/>
</svg>
