<svg width="70" height="82" viewBox="0 0 70 82" fill="none" xmlns="http://www.w3.org/2000/svg" xmlns:xlink="http://www.w3.org/1999/xlink">
<path d="M69.977,31.94C69.964,29.315 68.902,27.165 66.811,25.542C66.679,25.437 66.554,25.305 66.389,24.982L65.254,22.759C64.179,20.661 63.104,18.57 62.016,16.492C60.545,13.689 57.893,12.027 54.925,12.027C53.593,12.027 52.267,12.35 50.994,12.997L49.628,13.689L36.997,20.226C34.207,21.67 31.423,23.121 28.62,24.54C25.434,26.162 23.825,28.781 23.825,32.303C23.838,35.351 23.825,38.404 23.825,41.452L23.825,42.052C23.825,45.535 23.825,49.031 23.838,52.513C23.851,56.794 26.331,59.967 30.322,60.805C30.942,60.93 31.542,60.936 32.142,60.936L52.056,60.936C52.056,60.936 56.172,60.95 56.178,60.95C58.052,60.95 59.931,60.95 61.811,60.936C66.514,60.903 69.951,57.493 69.977,52.83C70.017,45.726 69.997,38.583 69.977,31.934L69.977,31.94ZM44.239,21.829C47.188,20.312 50.13,18.788 53.078,17.271C53.718,16.941 54.351,16.776 54.938,16.776C56.139,16.776 57.174,17.488 57.84,18.775L59.358,21.723C59.727,22.449 60.109,23.181 60.485,23.906C55.314,23.893 50.156,23.893 44.985,23.893L40.269,23.893L44.226,21.835L44.239,21.829ZM65.241,50.884L65.241,52.685C65.208,54.848 63.876,56.181 61.745,56.187C59.707,56.201 57.662,56.201 55.624,56.201L32.288,56.187C29.86,56.187 28.574,54.914 28.574,52.507C28.561,45.799 28.561,39.084 28.574,32.376C28.574,29.902 29.834,28.656 32.327,28.656L46.898,28.642L61.468,28.656C63.962,28.656 65.235,29.935 65.241,32.461L65.241,34.79L54.285,34.79C51.482,34.79 48.679,34.79 45.836,34.777C43.573,34.777 41.773,35.384 40.328,36.65C37.94,38.728 37.07,41.973 38.092,44.935C39.147,47.956 41.931,50 45.011,50.02C48.745,50.053 52.485,50.06 56.218,50.06L65.241,50.06L65.241,50.884ZM65.248,45.311C63.685,45.297 62.134,45.297 60.578,45.297L55.426,45.297C55.374,45.284 55.321,45.284 55.261,45.284L49.51,45.284C48.065,45.284 46.607,45.284 45.15,45.271C44.055,45.258 43.257,44.73 42.729,43.688C42.221,42.672 42.294,41.722 42.947,40.759C43.461,39.994 44.147,39.598 45.005,39.559C45.77,39.526 46.535,39.526 47.3,39.526L55.848,39.526C58.968,39.526 62.095,39.513 65.254,39.506C65.202,41.201 65.195,43.002 65.241,45.297L65.248,45.311Z" fill="#A1B500"/>
<path d="M48.956,62.843L44.187,62.843L44.2,63.99C44.2,63.99 4.769,64.004 4.749,64.004L4.749,30.146C4.749,24.078 4.749,18.01 4.762,11.941C4.762,8.94 6.385,6.671 9.102,5.873C9.643,5.708 10.25,5.635 10.956,5.635L37.993,5.635C41.621,5.649 44.187,8.188 44.207,11.816C44.22,12.344 44.22,12.871 44.22,13.399L48.962,11.717C48.844,5.431 44.24,0.886 37.947,0.886L10.996,0.873C9.973,0.873 9.07,0.979 8.258,1.183C3.245,2.417 0.013,6.651 0.013,11.954C0,18.874 0,25.78 0,32.686L0,49.281C0,56.187 0,63.093 0.013,69.999C0.013,76.444 4.683,81.127 11.127,81.127L37.914,81.127C44.292,81.127 48.936,76.464 48.956,70.046L48.956,68.792C48.956,67.242 48.969,64.604 48.956,62.849L48.956,62.843ZM44.187,69.821C44.2,70.501 44.2,71.154 44.055,71.767C43.435,74.412 41.1,76.338 38.501,76.345C33.653,76.365 28.792,76.378 23.944,76.378C19.458,76.378 14.96,76.365 10.474,76.345C7.394,76.325 4.881,73.739 4.756,70.455C4.743,70.164 4.756,69.868 4.756,69.577C4.756,69.307 4.769,69.03 4.756,68.753L32.875,68.753C36.647,68.753 40.42,68.753 44.207,68.74C44.187,69.102 44.187,69.465 44.187,69.828L44.187,69.821Z" fill="#0C5A60"/>
<path d="M22.242,13.795C21.747,13.795 21.246,13.795 20.751,13.782C20.006,13.768 19.346,13.505 18.885,13.023C18.462,12.588 18.238,12.001 18.251,11.374C18.278,10.055 19.34,9.052 20.725,9.046C21.998,9.039 23.271,9.032 24.544,9.032C25.817,9.032 27.024,9.032 28.264,9.046C29.682,9.059 30.691,10.022 30.711,11.387C30.731,12.799 29.728,13.762 28.224,13.782C27.723,13.788 27.215,13.788 26.714,13.788L24.452,13.788L22.255,13.788L22.242,13.795Z" fill="#0C5A60"/>
<path d="M12.15,13.795C11.108,13.795 10.231,13.399 9.749,12.713C9.334,12.119 9.248,11.394 9.512,10.662C9.775,9.936 10.415,9.059 11.979,9.039L12.13,9.039C12.684,9.039 14.135,9.039 14.755,10.556C15.059,11.301 15,12.047 14.591,12.667C14.109,13.386 13.219,13.801 12.143,13.801L12.15,13.795Z" fill="#0C5A60"/>
<path d="M22.268,74.61C21.767,74.61 21.272,74.61 20.771,74.603C19.307,74.584 18.245,73.588 18.251,72.235C18.251,70.896 19.346,69.874 20.791,69.867C22.031,69.861 23.264,69.854 24.504,69.854C25.744,69.854 26.938,69.854 28.158,69.867C28.95,69.867 29.616,70.131 30.078,70.613C30.507,71.061 30.724,71.648 30.705,72.321C30.665,73.693 29.662,74.59 28.152,74.61C27.67,74.61 27.182,74.617 26.701,74.617L22.268,74.617L22.268,74.61Z" fill="#0C5A60"/>
</svg>
