<svg width="34" height="34" viewBox="0 0 34 34" fill="none" xmlns="http://www.w3.org/2000/svg" xmlns:xlink="http://www.w3.org/1999/xlink">
<path d="M4.971,14.5C4.142,14.5 3.471,15.172 3.471,16C3.471,16.829 4.142,17.5 4.971,17.5L4.971,14.5ZM28.971,17.5C29.799,17.5 30.471,16.829 30.471,16C30.471,15.172 29.799,14.5 28.971,14.5L28.971,17.5ZM4.971,17.5L28.971,17.5L28.971,14.5L4.971,14.5L4.971,17.5Z" transform="rotate(270 16.971 16)" fill="#FFFFFF"/>
<path d="M4.5,14.972C3.671,14.972 3,15.643 3,16.472C3,17.3 3.671,17.972 4.5,17.972L4.5,14.972ZM28.5,17.972C29.328,17.972 30,17.3 30,16.472C30,15.643 29.328,14.972 28.5,14.972L28.5,17.972ZM4.5,17.972L28.5,17.972L28.5,14.972L4.5,14.972L4.5,17.972Z" transform="rotate(-270 16.5 16.472)" fill="#FFFFFF"/>
</svg>
