<svg width="28" height="24" viewBox="0 0 28 24" fill="none" xmlns="http://www.w3.org/2000/svg" xmlns:xlink="http://www.w3.org/1999/xlink">
<path d="M13.111,16.656C13.228,16.765 13.366,16.852 13.519,16.911C13.671,16.97 13.835,17 14,17C14.165,17 14.329,16.97 14.481,16.911C14.634,16.852 14.772,16.765 14.889,16.656L19.632,12.229C19.868,12.009 20,11.71 20,11.399C20,11.088 19.868,10.789 19.632,10.569C19.396,10.349 19.076,10.225 18.742,10.225C18.409,10.225 18.089,10.349 17.853,10.569L15.258,12.992L15.258,0.174C15.258,-0.137 15.125,-0.436 14.889,-0.656C14.653,-0.876 14.334,-1 14,-1C13.666,-1 13.347,-0.876 13.111,-0.656C12.875,-0.436 12.742,-0.137 12.742,0.174L12.742,12.992L10.147,10.569C9.911,10.349 9.591,10.225 9.258,10.225C8.924,10.225 8.604,10.349 8.368,10.569C8.132,10.789 8,11.088 8,11.399C8,11.71 8.132,12.009 8.368,12.229L13.111,16.656Z" fill="#FFFFFF"/>
<path d="M26.552,9C26.168,9 25.799,9.138 25.528,9.384C25.256,9.631 25.103,9.964 25.103,10.313L25.103,20.375L2.897,20.375L2.897,10.313C2.897,9.964 2.744,9.631 2.472,9.384C2.201,9.138 1.832,9 1.448,9C1.064,9 0.696,9.138 0.424,9.384C0.153,9.631 0,9.964 0,10.313L0,20.813C0,21.393 0.254,21.949 0.707,22.359C1.16,22.77 1.774,23 2.414,23L25.586,23C26.226,23 26.84,22.77 27.293,22.359C27.746,21.949 28,21.393 28,20.813L28,10.313C28,9.964 27.847,9.631 27.576,9.384C27.304,9.138 26.936,9 26.552,9Z" fill="#FFFFFF"/>
</svg>
