<svg width="66" height="62" viewBox="0 0 66 62" fill="none" xmlns="http://www.w3.org/2000/svg" xmlns:xlink="http://www.w3.org/1999/xlink">
<path d="M48.376,-0.787L9.679,-0.787C4.338,-0.787 0,3.551 0,8.891L0,51.109C0,56.45 4.338,60.787 9.679,60.787L41.346,60.787C42.807,60.787 43.986,59.608 43.986,58.148C43.986,56.687 42.807,55.508 41.346,55.508L9.679,55.508C7.259,55.508 5.279,53.537 5.279,51.109L5.279,8.891C5.279,6.472 7.25,4.492 9.679,4.492L17.598,4.492L17.598,12.411C17.598,15.807 20.361,18.57 23.757,18.57L34.316,18.57C37.712,18.57 40.475,15.807 40.475,12.411L40.475,4.492L48.394,4.492C50.814,4.492 52.793,6.463 52.793,8.891L52.793,26.481C52.793,27.941 53.972,29.12 55.433,29.12C56.894,29.12 58.073,27.941 58.073,26.481L58.073,8.891C58.073,3.551 53.735,-0.787 48.394,-0.787L48.376,-0.787ZM35.187,12.402C35.187,12.886 34.791,13.282 34.307,13.282L23.748,13.282C23.264,13.282 22.868,12.886 22.868,12.402L22.868,4.483L35.178,4.483L35.178,12.402L35.187,12.402Z" fill="#0C5A60"/>
<path d="M44.857,20.321C33.7,20.321 24.628,29.402 24.628,40.55C24.628,51.698 33.709,60.778 44.857,60.778C56.005,60.778 65.085,51.698 65.085,40.55C65.085,29.402 56.005,20.321 44.857,20.321ZM44.857,55.499C36.612,55.499 29.907,48.786 29.907,40.55C29.907,32.314 36.621,25.601 44.857,25.601C53.092,25.601 59.806,32.314 59.806,40.55C59.806,48.786 53.092,55.499 44.857,55.499ZM54.087,35.561C54.896,36.775 54.571,38.412 53.356,39.221L42.798,46.26C42.349,46.559 41.839,46.7 41.337,46.7C40.651,46.7 39.982,46.436 39.472,45.926L35.952,42.406C34.923,41.377 34.923,39.705 35.952,38.676C36.982,37.646 38.654,37.646 39.683,38.676L41.672,40.664L50.426,34.831C51.641,34.021 53.277,34.347 54.087,35.561Z" fill="#A1B500"/>
</svg>
