<svg width="34" height="44" viewBox="0 0 34 44" fill="none" xmlns="http://www.w3.org/2000/svg" xmlns:xlink="http://www.w3.org/1999/xlink">
<path d="M23.946,43.673L8.966,43.673C6.604,43.685 4.334,42.76 2.654,41.101C0.973,39.442 0.019,37.184 0,34.823L0,18.645L32.912,18.645L32.912,34.823C32.894,37.184 31.939,39.442 30.258,41.101C28.578,42.76 26.308,43.685 23.946,43.673ZM3.25,21.847L3.25,34.823C3.262,36.33 3.871,37.771 4.943,38.83C6.016,39.888 7.465,40.479 8.972,40.471L23.952,40.471C25.459,40.479 26.908,39.888 27.981,38.83C29.053,37.771 29.662,36.33 29.674,34.823L29.674,21.847L3.25,21.847Z" fill="#15636E"/>
<path d="M28.706,21.289L4.204,21.289L4.204,12.423C4.245,9.201 5.554,6.125 7.847,3.861C10.14,1.597 13.233,0.327 16.455,0.327C19.677,0.327 22.77,1.597 25.063,3.861C27.356,6.125 28.665,9.201 28.706,12.423L28.706,21.289ZM7.462,18.089L25.446,18.089L25.446,12.425C25.348,10.106 24.358,7.914 22.682,6.307C21.007,4.701 18.775,3.804 16.454,3.804C14.133,3.804 11.901,4.701 10.226,6.307C8.55,7.914 7.56,10.106 7.462,12.425L7.462,18.089Z" fill="#15636E"/>
<path d="M16.456,26.285C16.841,26.285 17.209,26.438 17.481,26.709C17.753,26.981 17.906,27.35 17.906,27.735L17.906,35.769L15.006,35.769L15.006,27.735C15.006,27.35 15.159,26.981 15.431,26.709C15.703,26.438 16.071,26.285 16.456,26.285Z" fill="#15636E"/>
</svg>
