<svg width="40" height="40" viewBox="0 0 40 40" fill="none" xmlns="http://www.w3.org/2000/svg" xmlns:xlink="http://www.w3.org/1999/xlink">
<path d="M33.889,9.951L33.031,11.181L33.033,11.182L33.889,9.951ZM24.912,3.693L25.77,2.462L25.77,2.462L24.912,3.693ZM13.903,3.881L14.803,5.081L14.803,5.081L13.903,3.881ZM5.844,9.927L4.944,8.727L4.943,8.728L5.844,9.927ZM34.747,8.72L25.77,2.462L24.054,4.923L33.031,11.181L34.747,8.72ZM25.77,2.462C21.907,-0.229 16.774,-0.148 13.003,2.681L14.803,5.081C17.536,3.031 21.251,2.97 24.055,4.923L25.77,2.462ZM13.003,2.681L4.944,8.727L6.744,11.127L14.803,5.081L13.003,2.681ZM4.943,8.728C2.146,10.829 0.5,14.151 0.5,17.67L3.5,17.67C3.5,15.084 4.711,12.655 6.745,11.126L4.943,8.728ZM0.5,17.67L0.5,28.383L3.5,28.383L3.5,17.67L0.5,17.67ZM0.5,28.383C0.5,34.506 5.39,39.5 11.476,39.5L11.476,36.5C7.088,36.5 3.5,32.891 3.5,28.383L0.5,28.383ZM11.476,39.5L28.524,39.5L28.524,36.5L11.476,36.5L11.476,39.5ZM28.524,39.5C34.611,39.5 39.5,34.506 39.5,28.383L36.5,28.383C36.5,32.891 32.912,36.5 28.524,36.5L28.524,39.5ZM39.5,28.383L39.5,17.882L36.5,17.882L36.5,28.383L39.5,28.383ZM39.5,17.882C39.5,14.23 37.734,10.796 34.745,8.719L33.033,11.182C35.2,12.688 36.5,15.194 36.5,17.882L39.5,17.882Z" fill="#15636E"/>
<line x1="18.5" y1="20" x2="18.5" y2="29" stroke="#15636E" stroke-width="1.5" stroke-miterlimit="3.999327" stroke-linecap="round"/>
</svg>
