<svg width="52" height="58" viewBox="0 0 52 58" fill="none" xmlns="http://www.w3.org/2000/svg" xmlns:xlink="http://www.w3.org/1999/xlink">
<path d="M44.933,56.025L21.87,56.025C18.096,56.025 15.021,52.95 15.021,49.176L15.021,44.004L17.816,44.004L17.816,49.176C17.816,51.412 19.633,53.23 21.87,53.23L44.933,53.23C47.169,53.23 48.986,51.412 48.986,49.176L48.986,6.824C48.986,4.588 47.169,2.771 44.933,2.771L21.87,2.771C19.633,2.771 17.816,4.588 17.816,6.824L17.816,11.157L15.021,11.157L15.021,6.824C15.021,3.05 18.096,-0.025 21.87,-0.025L44.933,-0.025C48.707,-0.025 51.782,3.05 51.782,6.824L51.782,49.176C51.782,52.95 48.707,56.025 44.933,56.025Z" fill="#0C5A60"/>
<path d="M31.249,21.501C30.411,21.501 29.852,20.942 29.852,20.103L29.852,15.77C29.852,14.652 28.873,13.673 27.755,13.673L23.142,13.673C22.304,13.673 21.745,13.114 21.745,12.275C21.745,11.437 22.304,10.878 23.142,10.878L27.755,10.878C30.411,10.878 32.647,13.114 32.647,15.77L32.647,20.103C32.647,20.802 31.948,21.501 31.249,21.501Z" fill="#0C5A60"/>
<path d="M1.756,21.92C0.918,21.92 0.358,21.361 0.358,20.522L0.358,15.77C0.358,13.114 2.595,10.878 5.251,10.878L10.282,10.878C11.121,10.878 11.68,11.437 11.68,12.275C11.68,13.114 11.121,13.673 10.282,13.673L5.111,13.673C3.993,13.673 3.014,14.652 3.014,15.77L3.014,20.522C3.154,21.361 2.455,21.92 1.756,21.92Z" fill="#0C5A60"/>
<path d="M9.864,43.18L5.111,43.18C2.455,43.18 0.219,40.944 0.219,38.288L0.219,33.815C0.219,32.976 0.778,32.417 1.617,32.417C2.455,32.417 3.015,32.976 3.015,33.815L3.015,38.288C3.015,39.406 3.993,40.384 5.111,40.384L9.864,40.384C10.702,40.384 11.261,40.944 11.261,41.782C11.261,42.621 10.702,43.18 9.864,43.18Z" fill="#0C5A60"/>
<path d="M27.755,43.18L23.142,43.18C22.303,43.18 21.744,42.621 21.744,41.782C21.744,40.943 22.303,40.384 23.142,40.384L27.755,40.384C28.873,40.384 29.851,39.406 29.851,38.288L29.851,33.675C29.851,32.836 30.41,32.277 31.249,32.277C32.088,32.277 32.647,32.836 32.647,33.675L32.647,38.288C32.647,40.943 30.41,43.18 27.755,43.18Z" fill="#0C5A60"/>
<path d="M15.58,25.973L5.935,25.973L5.935,16.329L15.58,16.329L15.58,25.973ZM8.731,23.178L12.784,23.178L12.784,19.124L8.731,19.124L8.731,23.178Z" fill="#A1B500"/>
<path d="M27.181,25.973L17.536,25.973L17.536,16.329L27.181,16.329L27.181,25.973ZM20.332,23.178L24.385,23.178L24.385,19.124L20.332,19.124L20.332,23.178Z" fill="#A1B500"/>
<path d="M15.58,37.575L5.935,37.575L5.935,27.93L15.58,27.93L15.58,37.575ZM8.731,34.779L12.784,34.779L12.784,30.726L8.731,30.726L8.731,34.779Z" fill="#A1B500"/>
<path d="M25.783,29.188L18.934,29.188L18.934,36.037L25.783,36.037L25.783,29.188Z" fill="#0C5A60"/>
<path d="M37.245,52.251L29.837,52.251C28.439,52.251 27.181,50.993 27.181,49.595C27.181,48.198 28.439,46.94 29.837,46.94L37.245,46.94C38.643,46.94 39.9,48.198 39.9,49.595C39.9,50.993 38.782,52.251 37.245,52.251Z" fill="#0C5A60"/>
</svg>
