<svg width="72" height="64" viewBox="0 0 72 64" fill="none" xmlns="http://www.w3.org/2000/svg" xmlns:xlink="http://www.w3.org/1999/xlink">
<path d="M15.48,55.737C14.467,56.631 13.133,57.172 11.677,57.172L6.383,57.172C3.203,57.172 0.628,54.598 0.628,51.432L0.628,34.273C0.628,31.101 3.208,28.534 6.383,28.534L11.677,28.534C13.844,28.534 15.731,29.724 16.709,31.49C21.887,31.543 27.053,32.292 32.027,33.715L33.175,34.046L47.497,34.046C51.83,34.046 55.429,37.253 56.029,41.412L60.409,39.478C63.892,37.938 67.928,39.152 70.031,42.248C72.739,46.21 71.184,51.647 66.804,53.617L48.557,61.883C42.348,64.706 35.219,64.706 29.01,61.883L15.48,55.748L15.48,55.737ZM17.432,36.416C21.905,36.527 26.36,37.206 30.664,38.438L32.138,38.862C32.359,38.926 32.592,38.961 32.825,38.961L47.497,38.961C49.523,38.961 51.183,40.616 51.183,42.638C51.183,44.659 49.523,46.315 47.497,46.315L32.825,46.315C31.462,46.315 30.356,47.418 30.356,48.778C30.356,50.137 31.462,51.241 32.825,51.241L47.497,51.241C50.49,51.241 53.129,49.713 54.678,47.395L62.413,43.979C63.665,43.422 65.156,43.846 65.948,45.013C66.921,46.437 66.373,48.412 64.766,49.132L46.501,57.404C41.591,59.635 35.953,59.635 31.043,57.404L17.42,51.229L17.42,36.428L17.432,36.416ZM12.498,51.427C12.498,51.88 12.131,52.246 11.677,52.246L6.383,52.246C5.928,52.246 5.562,51.88 5.562,51.427L5.562,34.267C5.562,33.814 5.928,33.448 6.383,33.448L11.677,33.448C12.131,33.448 12.498,33.814 12.498,34.267L12.498,51.427Z" clip-rule="evenodd" fill-rule="evenodd" fill="#0C5A60"/>
<path d="M34.031,9.387L33.466,9.387C31.69,9.387 30.245,10.828 30.245,12.6L30.245,19.111C30.245,20.883 31.69,22.324 33.466,22.324L34.031,22.324L34.031,28.679C34.031,30.451 35.475,31.891 37.252,31.891L60.497,31.891C62.273,31.891 63.718,30.451 63.718,28.679L63.718,22.167C63.718,20.395 62.273,18.955 60.497,18.955L59.932,18.955L59.932,12.751C59.955,12.268 59.978,11.781 59.99,11.281C59.99,11.275 59.99,11.269 59.99,11.264C60.019,10.2 59.151,9.329 58.086,9.335C50.065,9.352 42.045,9.376 34.031,9.393L34.031,9.387ZM60.34,28.522L37.403,28.522L37.403,22.318L60.34,22.318L60.34,28.522ZM56.554,18.955L33.618,18.955L33.618,12.751L56.554,12.751L56.554,18.955Z" fill="#0C5A60"/>
<path d="M17.699,20.941L18.404,20.941L18.404,21.644C18.404,22.742 19.295,23.625 20.39,23.625C21.485,23.625 22.376,22.736 22.376,21.644L22.376,20.941L23.081,20.941C24.182,20.941 25.067,20.052 25.067,18.96C25.067,17.868 24.176,16.98 23.081,16.98L22.376,16.98L22.376,16.277C22.376,15.179 21.485,14.296 20.39,14.296C19.295,14.296 18.404,15.185 18.404,16.277L18.404,16.98L17.699,16.98C16.599,16.98 15.713,17.868 15.713,18.96C15.713,20.052 16.604,20.941 17.699,20.941Z" fill="#A1B500"/>
<path d="M62.926,6.645L63.63,6.645L63.63,7.348C63.63,8.446 64.521,9.329 65.616,9.329C66.711,9.329 67.602,8.44 67.602,7.348L67.602,6.645L68.307,6.645C69.408,6.645 70.293,5.757 70.293,4.665C70.293,3.572 69.402,2.684 68.307,2.684L67.602,2.684L67.602,1.981C67.602,0.883 66.711,0 65.616,0C64.521,0 63.63,0.889 63.63,1.981L63.63,2.684L62.926,2.684C61.825,2.684 60.939,3.572 60.939,4.665C60.939,5.757 61.831,6.645 62.926,6.645Z" fill="#A1B500"/>
</svg>
