<svg width="82" height="60" viewBox="0 0 82 60" fill="none" xmlns="http://www.w3.org/2000/svg" xmlns:xlink="http://www.w3.org/1999/xlink">
<path d="M17.099,34.407C7.673,34.407 0,26.734 0,17.308C0,7.882 7.673,0.209 17.099,0.209C26.525,0.209 34.198,7.882 34.198,17.308C34.198,26.734 26.525,34.407 17.099,34.407ZM17.099,4.935C10.275,4.935 4.72,10.49 4.72,17.314C4.72,24.139 10.275,29.687 17.099,29.687C23.923,29.687 29.478,24.132 29.478,17.314C29.478,10.497 23.923,4.935 17.099,4.935Z" fill="#A1B500"/>
<path d="M14.771,23.456C14.21,23.456 13.649,23.246 13.221,22.825L8.833,18.552C7.953,17.697 7.934,16.288 8.789,15.407C9.643,14.527 11.053,14.508 11.933,15.363L14.739,18.099L21.493,11.3C22.361,10.426 23.77,10.42 24.638,11.287C25.511,12.155 25.511,13.564 24.65,14.432L16.346,22.793C15.913,23.233 15.339,23.45 14.765,23.45L14.771,23.456Z" fill="#A1B500"/>
<path d="M17.641,50.862C17.641,49.835 17.89,48.866 18.324,48.011L12.647,48.011C11.863,48.011 11.225,47.373 11.225,46.589L11.225,35.638C9.382,35.121 7.66,34.305 6.123,33.24L6.123,46.589C6.123,50.186 9.05,53.113 12.647,53.113L18.062,53.113C17.801,52.412 17.648,51.659 17.648,50.862L17.641,50.862Z" fill="#0C5A60"/>
<path d="M50.43,10.261L34.931,10.261C35.505,11.861 35.85,13.577 35.92,15.363L50.43,15.363C51.214,15.363 51.852,16.001 51.852,16.785L51.852,48.011L29.714,48.011C30.148,48.872 30.397,49.835 30.397,50.862C30.397,51.653 30.244,52.412 29.982,53.113L56.961,53.113L56.961,16.785C56.961,13.188 54.033,10.261 50.436,10.261L50.43,10.261Z" fill="#0C5A60"/>
<path d="M24.013,59.791C19.089,59.791 15.084,55.786 15.084,50.862C15.084,45.938 19.089,41.933 24.013,41.933C28.936,41.933 32.942,45.938 32.942,50.862C32.942,55.786 28.936,59.791 24.013,59.791ZM24.013,47.035C21.902,47.035 20.186,48.751 20.186,50.862C20.186,52.973 21.902,54.689 24.013,54.689C26.124,54.689 27.839,52.973 27.839,50.862C27.839,48.751 26.124,47.035 24.013,47.035Z" fill="#0C5A60"/>
<path d="M45.793,38.604L28.617,38.604C27.208,38.604 26.066,37.462 26.066,36.053C26.066,34.643 27.208,33.501 28.617,33.501L45.793,33.501C47.202,33.501 48.344,34.643 48.344,36.053C48.344,37.462 47.202,38.604 45.793,38.604Z" fill="#0C5A60"/>
<path d="M46.271,30.561L37.527,30.561C36.118,30.561 34.976,29.42 34.976,28.01C34.976,26.601 36.118,25.459 37.527,25.459L46.271,25.459C47.681,25.459 48.822,26.601 48.822,28.01C48.822,29.42 47.681,30.561 46.271,30.561Z" fill="#0C5A60"/>
<path d="M77.829,23.973L77.797,23.884C76.604,20.778 73.562,18.686 70.233,18.686L51.852,18.686L51.852,53.107L60.953,53.107C60.692,52.405 60.539,51.653 60.539,50.856C60.539,49.829 60.787,48.859 61.221,48.005L56.961,48.005L56.961,23.788L70.239,23.788C71.457,23.788 72.574,24.547 73.026,25.676L76.891,36.958L76.891,47.367C76.891,47.718 76.604,48.005 76.254,48.005L72.631,48.005C73.065,48.866 73.313,49.829 73.313,50.856C73.313,51.647 73.16,52.405 72.899,53.107L76.26,53.107C79.423,53.107 82,50.53 82,47.367L82,36.11L77.842,23.973L77.829,23.973Z" fill="#0C5A60"/>
<path d="M66.916,59.791C61.993,59.791 57.987,55.786 57.987,50.862C57.987,45.938 61.993,41.933 66.916,41.933C71.84,41.933 75.845,45.938 75.845,50.862C75.845,55.786 71.84,59.791 66.916,59.791ZM66.916,47.035C64.805,47.035 63.09,48.751 63.09,50.862C63.09,52.973 64.805,54.689 66.916,54.689C69.027,54.689 70.743,52.973 70.743,50.862C70.743,48.751 69.027,47.035 66.916,47.035Z" fill="#0C5A60"/>
</svg>
