<svg width="66" height="82" viewBox="0 0 66 82" fill="none" xmlns="http://www.w3.org/2000/svg" xmlns:xlink="http://www.w3.org/1999/xlink">
<path d="M32,80.36L-0.474,65.449L-0.474,26.017L14.603,19.058C15.432,18.727 16.426,19.058 16.757,19.886C17.089,20.715 16.757,21.709 15.929,22.04L2.674,28.17L2.674,63.295L32,76.715L61.16,63.626L61.16,28.005L46.414,21.212C45.586,20.88 45.254,19.886 45.586,19.058C45.917,18.23 46.911,17.898 47.74,18.23L64.474,26.017L64.474,65.78L32,80.36Z" fill="#0C5A60"/>
<path d="M32,42.419L0.521,28.502L1.846,25.52L32,38.774L62.154,25.52L63.48,28.502L32,42.419Z" fill="#0C5A60"/>
<path d="M31.42,28.469C30.426,28.469 29.763,27.806 29.763,26.812L29.763,1.297C29.763,0.303 30.426,-0.36 31.42,-0.36C32.414,-0.36 33.077,0.303 33.077,1.297L33.077,26.812C33.077,27.806 32.414,28.469 31.42,28.469Z" fill="#A1B500"/>
<path d="M31.42,29.131L19.988,17.368C19.326,16.705 19.326,15.711 19.988,15.049C20.651,14.386 21.645,14.386 22.308,15.049L31.42,24.327L40.533,15.049C41.195,14.386 42.19,14.386 42.852,15.049C43.515,15.711 43.515,16.705 42.852,17.368L31.42,29.131Z" fill="#A1B500"/>
</svg>
