<svg width="78" height="80" viewBox="0 0 78 80" fill="none" xmlns="http://www.w3.org/2000/svg" xmlns:xlink="http://www.w3.org/1999/xlink">
<path d="M36.331,77.53L0,60.842L0,16.688L36.331,0L72.662,16.688L72.662,35.288C72.662,36.331 71.967,37.027 70.924,37.027C69.881,37.027 69.186,36.331 69.186,35.288L69.186,18.948L36.331,3.824L3.477,18.948L3.477,58.582L36.331,73.705L37.722,73.01C38.591,72.662 39.634,73.01 39.982,73.879C40.329,74.748 39.982,75.791 39.113,76.139L36.331,77.53Z" fill="#3F9C38"/>
<path d="M36.331,35.114L1.043,19.469L2.434,16.34L36.331,31.29L70.229,16.34L71.62,19.469L36.331,35.114Z" fill="#3F9C38"/>
<path d="M58.056,75.8C67.656,75.8 75.439,68.018 75.439,58.417C75.439,48.816 67.656,41.034 58.056,41.034C48.455,41.034 40.672,48.816 40.672,58.417C40.672,68.018 48.455,75.8 58.056,75.8Z" transform="rotate(-161.56 58.056 58.417)" fill="#3F9C38"/>
<path d="M58.06,77.356C47.456,77.356 38.938,68.838 38.938,58.234C38.938,47.63 47.456,39.113 58.06,39.113C68.664,39.113 77.182,47.63 77.182,58.234C77.182,68.838 68.664,77.356 58.06,77.356ZM58.06,42.763C49.368,42.763 42.415,49.716 42.415,58.408C42.415,67.1 49.368,74.053 58.06,74.053C66.752,74.053 73.705,67.1 73.705,58.408C73.705,49.716 66.752,42.763 58.06,42.763Z" fill="#3F9C38"/>
<path d="M54.373,15.68L16.13,15.68L16.13,19.156L54.373,19.156L54.373,15.68Z" transform="rotate(-47.62 35.252 17.418)" fill="#3F9C38"/>
<path d="M55.975,66.752C55.279,66.752 54.584,66.404 54.062,66.057L48.674,60.842C47.631,59.799 47.631,58.234 48.674,57.191C49.717,56.148 51.281,56.148 52.324,57.191L55.801,60.668L63.971,52.324C65.014,51.281 66.578,51.281 67.621,52.324C68.665,53.367 68.665,54.931 67.621,55.974L57.539,66.231C57.365,66.578 56.67,66.752 55.975,66.752Z" fill="#E0E71D"/>
</svg>
