<svg width="722" height="546" viewBox="0 0 722 546" fill="none" xmlns="http://www.w3.org/2000/svg" xmlns:xlink="http://www.w3.org/1999/xlink">
<path d="M679.2,351.813L484.931,351.813L525.865,187.996L720.051,187.996L679.2,351.813Z" transform="rotate(-360 602.491 269.905)" fill="#F8F8F8"/>
<path d="M561.929,125.359L413.298,125.359L454.149,0L602.78,0L561.929,125.359Z" transform="rotate(-360 508.039 62.679)" fill="#F8F8F8"/>
<path d="M381.029,477.09L232.48,477.09L273.331,351.813L421.963,351.813L381.029,477.09Z" transform="rotate(-360 327.221 414.452)" fill="#F8F8F8"/>
<path d="M188.493,311.457L99.364,311.457L140.215,236.275L229.344,236.275L188.493,311.457Z" transform="rotate(-360 164.354 273.866)" fill="#F8F8F8"/>
<path d="M89.129,546L0,546L40.851,470.818L129.98,470.818L89.129,546Z" transform="rotate(-360 64.99 508.409)" fill="#F8F8F8"/>
</svg>
