<svg width="34" height="38" viewBox="0 0 34 38" fill="none" xmlns="http://www.w3.org/2000/svg" xmlns:xlink="http://www.w3.org/1999/xlink">
<path d="M15.994,18.782C10.612,18.782 6.243,14.455 6.243,9.148C6.243,3.842 10.624,-0.497 15.994,-0.497C21.365,-0.497 25.757,3.831 25.757,9.137C25.757,14.444 21.376,18.771 15.994,18.771L15.994,18.782ZM15.994,1.728C11.862,1.728 8.495,5.054 8.495,9.137C8.495,13.22 11.862,16.546 15.994,16.546C20.127,16.546 23.505,13.22 23.505,9.137C23.505,5.054 20.138,1.728 15.994,1.728Z" fill="#15636E"/>
<path d="M30.874,36.497C30.311,36.497 29.816,36.074 29.759,35.518C29.253,30.033 24.58,25.717 18.894,25.717L13.106,25.717C7.431,25.717 2.747,30.033 2.241,35.518C2.184,36.074 1.7,36.497 1.126,36.497C0.462,36.497 -0.068,35.93 0,35.273C0.631,28.676 6.26,23.503 13.106,23.503L18.894,23.503C25.728,23.503 31.369,28.687 32,35.273C32.068,35.93 31.538,36.497 30.874,36.497Z" fill="#15636E"/>
</svg>
