<svg width="66" height="66" viewBox="0 0 66 66" fill="none" xmlns="http://www.w3.org/2000/svg" xmlns:xlink="http://www.w3.org/1999/xlink">
<path d="M13.694,65L4.542,65C2.024,65 -0.032,62.938 -0.032,60.426L-0.032,51.273C-0.032,48.756 2.029,46.699 4.542,46.699L13.694,46.699C16.212,46.699 18.268,48.761 18.268,51.273L18.268,60.426C18.268,62.944 16.207,65 13.694,65ZM4.542,51.273L4.542,60.426L13.694,60.426L13.694,51.273L4.542,51.273Z" fill="#0C5A60"/>
<path d="M61.743,58.137L25.137,58.137C23.764,58.137 22.848,57.22 22.848,55.847C22.848,54.474 23.764,53.558 25.137,53.558L61.743,53.558C63.116,53.558 64.033,54.474 64.033,55.847C64.033,57.22 63.116,58.137 61.743,58.137Z" fill="#0C5A60"/>
<path d="M13.694,42.12L4.542,42.12C2.024,42.12 -0.032,40.059 -0.032,37.547L-0.032,28.394C-0.032,25.876 2.029,23.82 4.542,23.82L13.694,23.82C16.212,23.82 18.268,25.881 18.268,28.394L18.268,37.547C18.268,40.064 16.207,42.12 13.694,42.12ZM4.542,28.394L4.542,37.547L13.694,37.547L13.694,28.394L4.542,28.394Z" fill="#0C5A60"/>
<path d="M61.743,35.257L25.137,35.257C23.764,35.257 22.848,34.34 22.848,32.968C22.848,31.595 23.764,30.678 25.137,30.678L61.743,30.678C63.116,30.678 64.033,31.595 64.033,32.968C64.033,34.34 63.116,35.257 61.743,35.257Z" fill="#0C5A60"/>
<path d="M61.743,12.377L25.137,12.377C23.764,12.377 22.848,11.461 22.848,10.088C22.848,8.715 23.764,7.798 25.137,7.798L61.743,7.798C63.116,7.798 64.033,8.715 64.033,10.088C64.033,11.461 63.116,12.377 61.743,12.377Z" fill="#A1B500"/>
<path d="M6.831,19.241C6.142,19.241 5.686,19.013 5.23,18.552L0.656,13.978C-0.26,13.061 -0.26,11.689 0.656,10.777C1.573,9.86 2.946,9.86 3.858,10.777L6.375,13.294L13.927,1.857C14.844,0.94 16.217,0.712 17.362,1.401C18.506,2.09 18.734,3.463 18.05,4.602L8.898,18.329C8.442,18.785 7.753,19.246 6.836,19.246L6.831,19.241Z" fill="#A1B500"/>
</svg>
