<svg width="40" height="40" viewBox="0 0 40 40" fill="none" xmlns="http://www.w3.org/2000/svg" xmlns:xlink="http://www.w3.org/1999/xlink">
<path d="M36.48,20C36.48,29.102 29.101,36.48 20,36.48L20,39.48C30.758,39.48 39.48,30.759 39.48,20L36.48,20ZM20,36.48C10.898,36.48 3.52,29.102 3.52,20L0.52,20C0.52,30.759 9.241,39.48 20,39.48L20,36.48ZM3.52,20C3.52,10.898 10.898,3.52 20,3.52L20,0.52C9.241,0.52 0.52,9.241 0.52,20L3.52,20ZM20,3.52C29.101,3.52 36.48,10.898 36.48,20L39.48,20C39.48,9.241 30.758,0.52 20,0.52L20,3.52Z" fill="#15636E"/>
<path d="M15.739,16.113L14.02,14.342C14.597,13.52 15.431,12.866 16.496,12.365C17.574,11.865 18.729,11.621 19.987,11.621L19.962,13.982C19.179,13.982 18.421,14.175 17.664,14.573C16.907,14.958 16.265,15.484 15.739,16.126L15.739,16.113ZM19.564,29.768C19.063,29.768 18.627,29.588 18.267,29.229C17.908,28.87 17.728,28.433 17.728,27.933C17.728,27.432 17.908,26.983 18.267,26.624C18.627,26.264 19.063,26.085 19.564,26.085C20.064,26.085 20.513,26.264 20.873,26.624C21.232,26.983 21.412,27.419 21.412,27.933C21.412,28.446 21.232,28.87 20.873,29.229C20.513,29.588 20.077,29.768 19.564,29.768ZM18.293,23.852L18.293,22.658C18.293,21.837 18.46,21.118 18.806,20.489C19.14,19.86 19.654,19.334 20.334,18.898C21.001,18.487 21.514,18.025 21.848,17.537C22.182,17.05 22.349,16.511 22.349,15.946C22.349,15.33 22.143,14.842 21.733,14.496C21.322,14.149 20.732,13.982 19.962,13.982L19.987,11.621C21.604,11.621 22.862,11.993 23.747,12.725C24.633,13.456 25.082,14.496 25.082,15.831C25.082,16.755 24.851,17.589 24.389,18.346C23.927,19.103 23.234,19.77 22.323,20.361C21.797,20.707 21.399,21.092 21.129,21.503C20.86,21.914 20.732,22.363 20.732,22.851L20.732,23.864L18.293,23.864L18.293,23.852Z" fill="#15636E"/>
</svg>
