<svg width="64" height="50" viewBox="0 0 64 50" fill="none" xmlns="http://www.w3.org/2000/svg" xmlns:xlink="http://www.w3.org/1999/xlink">
<path d="M30.023,0.456C36.641,0.456 43.263,0.443 49.881,0.456C54.913,0.469 58.895,3.783 59.838,8.708C59.94,9.231 59.994,9.776 59.994,10.308C60.011,12.925 60.016,15.539 59.998,18.157C59.989,19.649 58.753,20.588 57.447,20.15C56.627,19.875 56.144,19.167 56.144,18.174C56.135,15.623 56.158,13.076 56.135,10.525C56.113,7.814 54.558,5.59 52.096,4.686C51.418,4.438 50.714,4.328 49.992,4.328C36.663,4.328 23.334,4.319 10.006,4.336C6.538,4.336 3.906,6.923 3.88,10.467C3.827,17.78 3.822,25.093 3.88,32.407C3.911,36.017 6.577,38.515 10.232,38.519C18.103,38.533 25.975,38.519 33.846,38.519C34.138,38.519 34.431,38.515 34.718,38.541C35.684,38.63 36.411,39.401 36.442,40.362C36.477,41.363 35.795,42.191 34.807,42.333C34.586,42.364 34.36,42.369 34.138,42.369C26.134,42.369 18.125,42.382 10.121,42.369C4.992,42.36 0.992,38.976 0.119,33.944C0.031,33.439 0.013,32.92 0.013,32.407C0.008,25.093 -0.014,17.78 0.013,10.467C0.044,5.559 3.322,1.612 8.097,0.642C8.845,0.492 9.603,0.452 10.369,0.452C16.92,0.456 23.476,0.452 30.028,0.452L30.023,0.456Z" fill="#0C5A60"/>
<path d="M63.985,36.411C63.985,38.604 63.936,40.792 63.998,42.98C64.047,44.769 63.276,46.067 61.872,47.06C60.308,48.167 58.527,48.747 56.671,49.093C52.392,49.881 48.18,49.713 44.091,48.087C43.281,47.764 42.528,47.33 41.846,46.772C40.685,45.819 40.087,44.632 40.096,43.104C40.118,38.679 40.127,34.254 40.096,29.829C40.083,28.128 40.782,26.861 42.129,25.904C43.941,24.615 46.023,24.039 48.18,23.725C52.127,23.144 56.02,23.326 59.799,24.739C60.468,24.992 61.105,25.315 61.703,25.714C63.223,26.723 64.06,28.066 63.993,29.975C63.918,32.119 63.976,34.267 63.976,36.411L63.985,36.411ZM52.065,27.184C49.934,27.228 47.83,27.432 45.823,28.225C45.261,28.447 44.72,28.708 44.251,29.102C43.985,29.324 43.972,29.519 44.26,29.744C44.76,30.134 45.314,30.418 45.903,30.63C49.256,31.817 52.685,31.862 56.144,31.215C57.38,30.985 58.576,30.617 59.617,29.882C60.193,29.474 60.197,29.315 59.599,28.921C59.209,28.664 58.793,28.438 58.363,28.261C56.344,27.441 54.217,27.228 52.065,27.18L52.065,27.184ZM52.087,45.682C54.364,45.651 56.631,45.376 58.784,44.437C59.737,44.021 60.366,43.454 60.144,42.307C60.104,42.09 60.122,41.859 60.144,41.638C60.184,41.177 60.073,41.058 59.59,41.244C56.264,42.533 52.809,42.705 49.301,42.369C47.626,42.209 45.996,41.842 44.428,41.226C44.269,41.164 44.069,40.96 43.972,41.314C43.542,42.803 44.029,43.861 45.442,44.49C45.544,44.535 45.646,44.579 45.752,44.619C47.777,45.429 49.899,45.66 52.091,45.686L52.087,45.682ZM52.082,38.657C54.306,38.586 56.538,38.391 58.656,37.474C59.697,37.022 60.397,36.411 60.149,35.153C60.113,34.98 60.131,34.794 60.149,34.617C60.184,34.178 60.113,34.019 59.604,34.214C56.414,35.445 53.092,35.667 49.721,35.388C47.91,35.237 46.151,34.861 44.45,34.205C44.282,34.139 44.047,33.899 43.967,34.338C43.635,36.158 44.034,36.898 45.744,37.594C45.783,37.611 45.832,37.616 45.872,37.633C47.856,38.431 49.943,38.59 52.087,38.652L52.082,38.657Z" fill="#A1B500"/>
<path d="M38.072,21.466C38.041,22.715 38.187,23.968 37.934,25.209C37.097,29.363 33.363,32.11 29.088,31.707C25.12,31.33 21.939,27.822 21.93,23.734C21.926,21.727 21.713,19.703 22.063,17.714C22.754,13.758 26.484,10.83 30.373,11.109C34.643,11.419 37.868,14.631 38.063,18.786C38.103,19.676 38.067,20.571 38.067,21.466L38.072,21.466ZM25.797,21.417C25.797,22.267 25.762,23.118 25.806,23.964C25.917,26.103 27.667,27.778 29.842,27.871C31.994,27.964 33.926,26.413 34.151,24.278C34.351,22.387 34.351,20.478 34.151,18.586C33.93,16.456 31.985,14.874 29.859,14.959C27.68,15.047 25.908,16.761 25.802,18.932C25.762,19.756 25.797,20.584 25.797,21.412L25.797,21.417Z" fill="#0C5A60"/>
<path d="M48.712,8.496C49.159,8.496 49.602,8.483 50.049,8.496C51.152,8.54 51.972,9.355 51.981,10.405C51.989,11.41 51.201,12.288 50.147,12.345C49.19,12.394 48.229,12.394 47.272,12.345C46.218,12.288 45.429,11.41 45.438,10.405C45.451,9.36 46.271,8.54 47.374,8.496C47.821,8.478 48.264,8.496 48.712,8.496Z" fill="#A1B500"/>
<path d="M11.304,30.506C11.773,30.506 12.243,30.489 12.708,30.506C13.678,30.555 14.449,31.281 14.546,32.221C14.648,33.191 14.032,34.116 13.045,34.285C11.902,34.475 10.728,34.462 9.585,34.298C8.588,34.156 7.942,33.222 8.039,32.269C8.137,31.277 8.89,30.555 9.9,30.511C10.365,30.489 10.834,30.511 11.304,30.511L11.304,30.506Z" fill="#A1B500"/>
</svg>
