<svg width="86" height="84" viewBox="0 0 86 84" fill="none" xmlns="http://www.w3.org/2000/svg" xmlns:xlink="http://www.w3.org/1999/xlink">
<path d="M48.242,49.71L25.042,39.11L25.042,10.91L48.242,0.31L71.442,10.91L71.442,39.31L48.242,49.71ZM28.242,36.91L48.242,46.11L68.242,37.11L68.242,12.91L48.242,3.91L28.242,12.91L28.242,36.91Z" fill="#0C5A60"/>
<path d="M48.242,23.31L26.042,13.51L27.242,10.51L48.242,19.71L69.042,10.51L70.442,13.51L48.242,23.31Z" fill="#0C5A60"/>
<path d="M59.393,9.915L35.593,9.915L35.593,13.115L59.393,13.115L59.393,9.915Z" transform="rotate(-47.62 47.493 11.515)" fill="#0C5A60"/>
<path d="M51.202,78.09C50.602,78.09 50.002,78.09 49.402,77.89L29.002,73.89C27.002,73.49 25.002,74.09 23.602,75.29L20.402,77.89L5.402,59.69L18.402,49.09C20.602,47.29 23.602,46.49 26.602,47.09L54.402,52.49C58.202,53.29 60.602,56.89 60.002,60.69C59.202,64.49 55.602,66.89 51.802,66.29L37.802,63.49C37.002,63.29 36.402,62.49 36.602,61.49C36.802,60.69 37.602,60.09 38.602,60.29L52.602,63.09C54.602,63.49 56.602,62.09 57.002,60.09C57.402,58.09 56.002,56.09 54.002,55.69L26.202,50.29C24.202,49.89 22.202,50.49 20.802,51.69L10.402,60.29L21.402,73.49L22.002,72.89C24.202,71.09 27.202,70.29 30.202,70.89L50.602,74.89C52.602,75.29 54.602,74.69 56.002,73.49L80.002,53.69C81.402,52.49 81.802,50.29 80.402,48.69C79.202,47.29 77.002,46.89 75.402,48.29L65.602,56.29C65.002,56.89 63.802,56.69 63.402,56.09C62.802,55.49 63.002,54.29 63.602,53.89L73.402,45.89C74.802,44.69 76.602,44.29 78.402,44.29C80.202,44.49 81.802,45.29 83.002,46.69C85.402,49.49 85.002,53.89 82.002,56.29L58.002,76.09C55.802,77.29 53.602,78.09 51.202,78.09Z" fill="#0C5A60"/>
<path d="M18.202,83.69C17.802,83.69 17.202,83.49 17.002,83.09C16.402,82.49 16.402,81.29 17.202,80.89L20.602,77.89L5.602,59.49L2.002,62.69C1.402,63.29 0.202,63.09 -0.198,62.49C-0.798,61.89 -0.598,60.69 0.002,60.29L6.202,55.09L25.202,78.49L19.402,83.49C19.002,83.69 18.602,83.69 18.202,83.69Z" fill="#A1B500"/>
</svg>
