<svg width="60" height="70" viewBox="0 0 60 70" fill="none" xmlns="http://www.w3.org/2000/svg" xmlns:xlink="http://www.w3.org/1999/xlink">
<path d="M59.98,26.234C59.969,23.984 59.059,22.141 57.267,20.75C57.153,20.66 57.046,20.547 56.905,20.27L55.932,18.365C55.011,16.567 54.089,14.774 53.156,12.993C51.896,10.591 49.623,9.166 47.079,9.166C45.936,9.166 44.8,9.443 43.709,9.997L42.539,10.591L31.712,16.193C29.32,17.432 26.934,18.675 24.532,19.891C21.801,21.282 20.421,23.526 20.421,26.545C20.433,29.157 20.421,31.775 20.421,34.387L20.421,34.902C20.421,37.887 20.421,40.883 20.433,43.868C20.444,47.538 22.57,50.257 25.99,50.975C26.522,51.083 27.036,51.088 27.551,51.088L44.619,51.088C44.619,51.088 48.147,51.1 48.153,51.1C49.758,51.1 51.37,51.1 52.981,51.088C57.012,51.06 59.958,48.137 59.98,44.14C60.014,38.051 59.997,31.928 59.98,26.229L59.98,26.234ZM37.92,17.567C40.447,16.267 42.968,14.961 45.495,13.661C46.044,13.378 46.587,13.237 47.09,13.237C48.119,13.237 49.006,13.847 49.577,14.95L50.878,17.477C51.194,18.099 51.522,18.726 51.845,19.348C47.412,19.337 42.991,19.337 38.558,19.337L34.516,19.337L37.908,17.573L37.92,17.567ZM55.921,42.472L55.921,44.015C55.893,45.87 54.751,47.012 52.924,47.018C51.177,47.029 49.425,47.029 47.678,47.029L27.675,47.018C25.594,47.018 24.492,45.926 24.492,43.863C24.481,38.113 24.481,32.357 24.492,26.608C24.492,24.487 25.572,23.419 27.709,23.419L40.198,23.408L52.687,23.419C54.824,23.419 55.915,24.516 55.921,26.681L55.921,28.677L46.53,28.677C44.127,28.677 41.724,28.677 39.288,28.666C37.349,28.666 35.805,29.186 34.567,30.271C32.52,32.052 31.774,34.834 32.65,37.372C33.555,39.962 35.941,41.714 38.581,41.731C41.781,41.76 44.987,41.765 48.187,41.765L55.921,41.765L55.921,42.472ZM55.927,37.695C54.587,37.683 53.258,37.683 51.924,37.683L47.508,37.683C47.463,37.672 47.418,37.672 47.367,37.672L42.437,37.672C41.199,37.672 39.949,37.672 38.7,37.661C37.761,37.649 37.077,37.197 36.625,36.304C36.19,35.433 36.252,34.619 36.811,33.793C37.252,33.138 37.84,32.798 38.575,32.764C39.231,32.736 39.887,32.736 40.543,32.736L47.87,32.736C50.544,32.736 53.224,32.725 55.932,32.719C55.887,34.172 55.881,35.716 55.921,37.683L55.927,37.695Z" fill="#A1B500"/>
<path d="M41.962,52.722L37.874,52.722L37.886,53.706C37.886,53.706 4.088,53.717 4.071,53.717L4.071,24.697C4.071,19.495 4.071,14.294 4.082,9.092C4.082,6.52 5.473,4.575 7.802,3.891C8.266,3.75 8.786,3.687 9.391,3.687L32.565,3.687C35.675,3.699 37.874,5.875 37.891,8.985C37.903,9.437 37.903,9.89 37.903,10.342L41.968,8.9C41.866,3.512 37.92,-0.383 32.526,-0.383L9.425,-0.395C8.548,-0.395 7.774,-0.304 7.078,-0.129C2.782,0.928 0.011,4.558 0.011,9.104C0,15.034 0,20.954 0,26.873L0,41.098C0,47.018 0,52.937 0.011,58.856C0.011,64.38 4.014,68.394 9.538,68.394L32.498,68.394C37.965,68.394 41.945,64.397 41.962,58.896L41.962,57.822C41.962,56.493 41.973,54.232 41.962,52.728L41.962,52.722ZM37.874,58.704C37.886,59.286 37.886,59.846 37.761,60.372C37.23,62.639 35.228,64.29 33.001,64.295C28.845,64.312 24.679,64.324 20.523,64.324C16.678,64.324 12.823,64.312 8.978,64.295C6.338,64.278 4.184,62.062 4.076,59.247C4.065,58.998 4.076,58.743 4.076,58.495C4.076,58.263 4.088,58.025 4.076,57.788L28.178,57.788C31.412,57.788 34.646,57.788 37.891,57.777C37.874,58.088 37.874,58.399 37.874,58.709L37.874,58.704Z" fill="#0C5A60"/>
<path d="M19.064,10.681C18.64,10.681 18.211,10.681 17.787,10.67C17.148,10.659 16.582,10.432 16.187,10.02C15.825,9.646 15.633,9.143 15.644,8.606C15.667,7.475 16.577,6.616 17.764,6.61C18.855,6.605 19.946,6.599 21.038,6.599C22.129,6.599 23.163,6.599 24.226,6.61C25.442,6.622 26.307,7.447 26.324,8.618C26.341,9.827 25.481,10.653 24.192,10.67C23.763,10.675 23.327,10.675 22.898,10.675L20.958,10.675L19.076,10.675L19.064,10.681Z" fill="#0C5A60"/>
<path d="M10.414,10.681C9.521,10.681 8.769,10.342 8.356,9.754C8,9.245 7.927,8.623 8.153,7.996C8.379,7.374 8.927,6.622 10.267,6.605L10.397,6.605C10.872,6.605 12.116,6.605 12.647,7.905C12.908,8.544 12.857,9.183 12.506,9.714C12.093,10.331 11.33,10.687 10.409,10.687L10.414,10.681Z" fill="#0C5A60"/>
<path d="M19.087,62.809C18.657,62.809 18.233,62.809 17.804,62.803C16.549,62.786 15.638,61.932 15.644,60.773C15.644,59.625 16.582,58.749 17.821,58.743C18.884,58.738 19.941,58.732 21.004,58.732C22.067,58.732 23.09,58.732 24.136,58.743C24.814,58.743 25.385,58.97 25.781,59.382C26.149,59.767 26.335,60.27 26.318,60.847C26.284,62.023 25.425,62.792 24.13,62.809C23.717,62.809 23.299,62.814 22.886,62.814L19.087,62.814L19.087,62.809Z" fill="#0C5A60"/>
</svg>
