<svg width="62" height="62" viewBox="0 0 62 62" fill="none" xmlns="http://www.w3.org/2000/svg" xmlns:xlink="http://www.w3.org/1999/xlink">
<path d="M13.023,52.96C12.132,53.742 10.967,54.221 9.685,54.221L5.045,54.221C2.255,54.221 0,51.96 0,49.177L0,34.098C0,31.308 2.262,29.053 5.045,29.053L9.685,29.053C11.584,29.053 13.235,30.102 14.099,31.651C18.636,31.699 23.167,32.357 27.526,33.604L28.527,33.892L41.077,33.892C44.874,33.892 48.027,36.709 48.555,40.362L52.393,38.662C55.443,37.305 58.98,38.375 60.824,41.096C63.202,44.578 61.831,49.355 57.993,51.089L42.002,58.355C36.56,60.836 30.309,60.836 24.867,58.355L13.009,52.967L13.023,52.96ZM14.736,35.983C18.657,36.078 22.564,36.675 26.334,37.758L27.629,38.135C27.821,38.19 28.027,38.217 28.232,38.217L41.091,38.217C42.866,38.217 44.319,39.67 44.319,41.445C44.319,43.22 42.866,44.674 41.091,44.674L28.232,44.674C27.04,44.674 26.073,45.64 26.073,46.833C26.073,48.025 27.04,48.992 28.232,48.992L41.091,48.992C43.716,48.992 46.033,47.648 47.383,45.613L54.162,42.61C55.258,42.124 56.567,42.494 57.26,43.522C58.11,44.776 57.63,46.51 56.225,47.141L40.213,54.413C35.909,56.374 30.967,56.374 26.663,54.413L14.723,48.985L14.723,35.983L14.736,35.983ZM10.411,49.177C10.411,49.574 10.089,49.896 9.692,49.896L5.052,49.896C4.654,49.896 4.332,49.574 4.332,49.177L4.332,34.098C4.332,33.7 4.654,33.378 5.052,33.378L9.692,33.378C10.089,33.378 10.411,33.7 10.411,34.098L10.411,49.177Z" clip-rule="evenodd" fill-rule="evenodd" fill="#0C5A60"/>
<path d="M50.775,25L27.225,25C26.55,25 26,24.331 26,23.5C26,22.669 26.55,22 27.225,22L50.775,22C51.45,22 52,22.669 52,23.5C52,24.331 51.45,25 50.775,25Z" fill="#A1B500"/>
<path d="M53.999,30.374L51.514,7.992C51.441,7.342 50.865,6.851 50.18,6.851L45.313,6.851L45.313,5.773C45.313,2.474 42.486,-0.215 39.003,-0.215C35.52,-0.215 32.692,2.467 32.692,5.773L32.692,6.851L27.825,6.851C27.14,6.851 26.564,7.342 26.491,7.992L24.007,30.374C23.97,30.734 24.087,31.093 24.342,31.363C24.597,31.632 24.961,31.785 25.34,31.785L52.658,31.785C53.037,31.785 53.401,31.632 53.656,31.363C53.911,31.093 54.035,30.734 53.991,30.374L53.999,30.374ZM35.381,5.766C35.381,3.871 37.006,2.329 39.003,2.329C40.999,2.329 42.624,3.871 42.624,5.766L42.624,6.844L35.381,6.844L35.381,5.766ZM27.73,28.403L29.77,10.025L33.159,10.025L33.159,11.027C33.159,11.677 33.712,12.21 34.405,12.21C35.097,12.21 35.651,11.684 35.651,11.027L35.651,10.025L42.362,10.025L42.362,11.027C42.362,11.677 42.916,12.21 43.608,12.21C44.3,12.21 44.854,11.684 44.854,11.027L44.854,10.025L48.242,10.025L50.282,28.403L27.737,28.403L27.73,28.403Z" fill="#A1B500"/>
</svg>
