<svg width="66" height="64" viewBox="0 0 66 64" fill="none" xmlns="http://www.w3.org/2000/svg" xmlns:xlink="http://www.w3.org/1999/xlink">
<path d="M50.349,33.104L39.288,33.104C38.067,33.104 37.075,32.114 37.075,30.896L37.075,17.658C37.075,16.44 38.067,15.451 39.288,15.451C40.509,15.451 41.501,16.44 41.501,17.658L41.501,28.694L50.349,28.694C51.569,28.694 52.562,29.684 52.562,30.901C52.562,32.118 51.569,33.108 50.349,33.108L50.349,33.104Z" fill="#A1B500"/>
<path d="M14.679,11.301C13.812,10.437 13.812,9.043 14.679,8.178L20.936,1.938C21.802,1.073 23.2,1.073 24.067,1.938C24.933,2.802 24.933,4.196 24.067,5.06L17.81,11.301C17.376,11.733 16.812,11.947 16.244,11.947C15.676,11.947 15.112,11.728 14.679,11.301Z" fill="#A1B500"/>
<path d="M53.097,50.887C59.518,46.477 63.622,39.13 63.622,30.896C63.622,18.248 53.876,7.839 41.478,6.729C41.478,6.691 41.496,6.659 41.496,6.622L41.496,4.414L43.709,4.414C44.93,4.414 45.922,3.425 45.922,2.207C45.922,0.99 44.93,0 43.709,0L34.862,0C33.636,0 32.649,0.99 32.649,2.207C32.649,3.425 33.636,4.414 34.862,4.414L37.07,4.414L37.07,6.622C37.07,6.659 37.094,6.687 37.094,6.724C28.33,7.5 20.759,12.886 17.148,20.831C15.494,20.232 13.64,19.86 11.627,19.86C4.806,19.86 -0.543,23.74 -0.543,28.689L-0.543,55.171C-0.543,60.12 4.806,64 11.627,64C15.802,64 19.403,62.541 21.588,60.283C23.769,62.541 27.37,64 31.545,64C38.365,64 43.714,60.12 43.714,55.171L43.714,54.758C45.648,54.404 47.483,53.81 49.216,53.043L52.934,58.6C53.363,59.242 54.062,59.586 54.779,59.586C55.199,59.586 55.627,59.465 56.005,59.214C57.02,58.535 57.295,57.169 56.615,56.152L53.097,50.887ZM19.375,55.171C19.375,57.258 16.193,59.586 11.627,59.586C7.061,59.586 3.884,57.258 3.884,55.171L3.884,53.15C5.98,54.4 8.645,55.171 11.627,55.171C14.609,55.171 17.278,54.4 19.375,53.15L19.375,55.171ZM19.375,46.342C19.375,48.429 16.193,50.757 11.627,50.757C7.061,50.757 3.884,48.429 3.884,46.342L3.884,44.321C5.98,45.571 8.645,46.342 11.627,46.342C14.609,46.342 17.278,45.571 19.375,44.321L19.375,46.342ZM19.375,37.518C19.375,39.604 16.193,41.928 11.627,41.928C7.061,41.928 3.884,39.604 3.884,37.518L3.884,35.497C5.98,36.742 8.645,37.518 11.627,37.518C14.609,37.518 17.278,36.742 19.375,35.497L19.375,37.518ZM11.627,33.104C7.066,33.104 3.884,30.776 3.884,28.689C3.884,26.603 7.066,24.275 11.627,24.275C16.188,24.275 19.375,26.603 19.375,28.689C19.375,30.776 16.193,33.104 11.627,33.104ZM39.288,55.171C39.288,57.258 36.106,59.586 31.545,59.586C26.983,59.586 23.796,57.258 23.796,55.171L23.796,53.15C25.893,54.4 28.558,55.171 31.545,55.171C34.531,55.171 37.191,54.4 39.288,53.15L39.288,55.171ZM31.545,50.757C26.979,50.757 23.796,48.429 23.796,46.342C23.796,44.256 26.979,41.928 31.545,41.928C36.11,41.928 39.288,44.256 39.288,46.342C39.288,48.429 36.106,50.757 31.545,50.757ZM43.714,50.246L43.714,46.342C43.714,41.393 38.365,37.518 31.545,37.518C28.558,37.518 25.893,38.289 23.796,39.539L23.796,28.689C23.796,26.514 22.725,24.577 20.992,23.053C24.104,15.79 31.218,11.036 39.288,11.036C50.265,11.036 59.201,19.944 59.201,30.896C59.201,40.246 52.743,48.21 43.714,50.246Z" fill="#0C5A60"/>
<path d="M63.893,8.178L57.635,1.938C56.769,1.073 55.371,1.073 54.505,1.938C53.638,2.802 53.638,4.196 54.505,5.06L60.762,11.301C61.195,11.733 61.759,11.947 62.327,11.947C62.896,11.947 63.459,11.728 63.893,11.301C64.759,10.437 64.759,9.043 63.893,8.178Z" fill="#A1B500"/>
</svg>
