<svg width="66" height="64" viewBox="0 0 66 64" fill="none" xmlns="http://www.w3.org/2000/svg" xmlns:xlink="http://www.w3.org/1999/xlink">
<path d="M13.694,64L4.542,64C2.024,64 -0.032,61.938 -0.032,59.426L-0.032,50.273C-0.032,47.756 2.029,45.699 4.542,45.699L13.694,45.699C16.212,45.699 18.268,47.761 18.268,50.273L18.268,59.426C18.268,61.944 16.207,64 13.694,64ZM4.542,50.273L4.542,59.426L13.694,59.426L13.694,50.273L4.542,50.273Z" fill="#0C5A60"/>
<path d="M61.743,57.137L25.137,57.137C23.764,57.137 22.848,56.22 22.848,54.847C22.848,53.474 23.764,52.558 25.137,52.558L61.743,52.558C63.116,52.558 64.033,53.474 64.033,54.847C64.033,56.22 63.116,57.137 61.743,57.137Z" fill="#0C5A60"/>
<path d="M13.694,41.12L4.542,41.12C2.024,41.12 -0.032,39.059 -0.032,36.547L-0.032,27.394C-0.032,24.876 2.029,22.82 4.542,22.82L13.694,22.82C16.212,22.82 18.268,24.881 18.268,27.394L18.268,36.547C18.268,39.064 16.207,41.12 13.694,41.12ZM4.542,27.394L4.542,36.547L13.694,36.547L13.694,27.394L4.542,27.394Z" fill="#0C5A60"/>
<path d="M61.743,34.257L25.137,34.257C23.764,34.257 22.848,33.34 22.848,31.968C22.848,30.595 23.764,29.678 25.137,29.678L61.743,29.678C63.116,29.678 64.033,30.595 64.033,31.968C64.033,33.34 63.116,34.257 61.743,34.257Z" fill="#0C5A60"/>
<path d="M61.743,11.377L25.137,11.377C23.764,11.377 22.848,10.461 22.848,9.088C22.848,7.715 23.764,6.798 25.137,6.798L61.743,6.798C63.116,6.798 64.033,7.715 64.033,9.088C64.033,10.461 63.116,11.377 61.743,11.377Z" fill="#A1B500"/>
<path d="M6.831,18.241C6.142,18.241 5.686,18.013 5.23,17.552L0.656,12.978C-0.26,12.061 -0.26,10.689 0.656,9.777C1.573,8.86 2.946,8.86 3.858,9.777L6.375,12.294L13.927,0.857C14.844,-0.06 16.217,-0.288 17.362,0.401C18.506,1.09 18.734,2.463 18.05,3.602L8.898,17.329C8.442,17.785 7.753,18.246 6.836,18.246L6.831,18.241Z" fill="#A1B500"/>
</svg>
