<svg width="70" height="64" viewBox="0 0 70 64" fill="none" xmlns="http://www.w3.org/2000/svg" xmlns:xlink="http://www.w3.org/1999/xlink">
<path d="M51.198,41.144L39.737,41.144C38.469,41.144 37.443,40.121 37.443,38.856C37.443,37.592 38.469,36.569 39.737,36.569L51.198,36.569C52.466,36.569 53.491,37.592 53.491,38.856C53.491,40.121 52.466,41.144 51.198,41.144Z" fill="#A1B500"/>
<path d="M67.473,20.312L60.841,5.429C59.37,2.129 56.081,0 52.466,0L15.651,0C12.02,0 8.727,2.154 7.256,5.488C6.315,7.612 5.379,9.603 4.437,11.594C3.14,14.355 1.793,17.205 0.455,20.396C-0.283,22.17 -0.268,24.116 0.49,25.751C1.337,27.579 2.654,29.066 4.22,30.153L4.22,57.144C4.22,60.923 7.305,64 11.094,64L56.928,64C60.717,64 63.803,60.923 63.803,57.144L63.803,30.143C65.343,29.071 66.651,27.613 67.498,25.825C68.295,24.146 68.285,22.135 67.468,20.308L67.473,20.312ZM17.969,59.431L17.969,50.287C17.969,49.027 18.994,48 20.262,48L24.843,48C26.106,48 27.137,49.027 27.137,50.287L27.137,59.431L17.969,59.431ZM59.221,57.144C59.221,58.403 58.196,59.431 56.928,59.431L31.718,59.431L31.718,50.287C31.718,46.508 28.632,43.431 24.843,43.431L20.262,43.431C16.473,43.431 13.387,46.508 13.387,50.287L13.387,59.431L11.094,59.431C9.831,59.431 8.801,58.403 8.801,57.144L8.801,31.946C9.658,32.059 10.53,32.099 11.406,31.975C14.011,31.62 16.359,30.187 18.008,28.117C20.277,30.903 23.788,32.469 27.449,31.975C30.034,31.625 32.367,30.207 34.011,28.162C35.655,30.207 37.988,31.625 40.574,31.975C41.024,32.035 41.475,32.069 41.916,32.069C45.071,32.069 48.028,30.563 50.014,28.117C51.658,30.187 54.006,31.62 56.616,31.975C57.488,32.094 58.36,32.054 59.221,31.941L59.221,57.144ZM63.357,23.874C62.203,26.314 59.662,27.772 57.24,27.446C54.828,27.115 52.797,25.055 52.307,22.432C52.104,21.36 51.173,20.579 50.078,20.564L50.054,20.564C48.969,20.564 48.033,21.325 47.81,22.382C47.136,25.578 44.165,27.846 41.198,27.441C38.786,27.11 36.755,25.05 36.265,22.427C36.062,21.345 35.116,20.559 34.016,20.559C32.917,20.559 31.966,21.345 31.767,22.427C31.272,25.05 29.246,27.11 26.834,27.441C23.858,27.841 20.891,25.573 20.222,22.382C19.999,21.315 18.999,20.574 17.959,20.564C16.864,20.574 15.928,21.36 15.73,22.432C15.235,25.055 13.209,27.115 10.797,27.446C8.33,27.767 5.804,26.295 4.66,23.825C4.442,23.355 4.457,22.728 4.7,22.15C5.993,19.053 7.315,16.247 8.598,13.535C9.554,11.51 10.505,9.484 11.461,7.326C12.199,5.646 13.853,4.564 15.666,4.564L52.475,4.564C54.283,4.564 55.928,5.631 56.661,7.281L63.293,22.165C63.56,22.768 63.59,23.405 63.367,23.874L63.357,23.874Z" fill="#0C5A60"/>
</svg>
