<svg width="86" height="82" viewBox="0 0 86 82" fill="none" xmlns="http://www.w3.org/2000/svg" xmlns:xlink="http://www.w3.org/1999/xlink">
<path d="M86,-0.432L0.644,-0.432L0.644,80.432L86,80.432L86,-0.432Z" fill="#0C5A60"/>
<path d="M54.734,40.013C58.93,40.013 62.332,36.661 62.332,32.526C62.332,28.391 58.93,25.039 54.734,25.039C50.538,25.039 47.136,28.391 47.136,32.526C47.136,36.661 50.538,40.013 54.734,40.013Z" fill="#A1B500"/>
<path d="M23.398,54.677L23.398,51.632C28.726,48.967 29.238,42.821 29.723,36.872C30.322,29.675 30.876,22.876 39.364,21.632L39.981,21.542L39.981,19.378C39.971,19.134 40.011,18.891 40.097,18.662C40.184,18.434 40.316,18.226 40.485,18.05C40.654,17.873 40.857,17.733 41.081,17.638C41.306,17.542 41.548,17.492 41.792,17.492C42.036,17.492 42.277,17.542 42.502,17.638C42.727,17.733 42.93,17.873 43.099,18.05C43.268,18.226 43.4,18.434 43.486,18.662C43.573,18.891 43.612,19.134 43.602,19.378L43.602,21.542L44.219,21.632C46.4,21.851 48.454,22.764 50.077,24.237C48.598,25.004 47.359,26.166 46.499,27.593C45.638,29.02 45.189,30.657 45.201,32.324C45.166,34.67 46.062,36.934 47.694,38.62C49.325,40.306 51.559,41.277 53.905,41.319C54.037,41.319 54.171,41.319 54.305,41.31C54.857,45.353 56.081,49.573 60.185,51.643L60.185,54.689L23.398,54.677Z" fill="#FFFFFF"/>
<path d="M46.091,56.385C46.091,57.526 45.638,58.62 44.831,59.427C44.025,60.233 42.931,60.686 41.79,60.686C40.649,60.686 39.555,60.233 38.749,59.427C37.942,58.62 37.489,57.526 37.489,56.385Z" fill="#FFFFFF"/>
</svg>
