<svg width="60" height="62" viewBox="0 0 60 62" fill="none" xmlns="http://www.w3.org/2000/svg" xmlns:xlink="http://www.w3.org/1999/xlink">
<path d="M33.12,34.442C31.597,34.442 30.357,33.21 30.357,31.679L30.357,20.627C30.357,19.105 31.597,17.865 33.12,17.865C34.642,17.865 35.883,19.105 35.883,20.627L35.883,31.679C35.883,33.201 34.651,34.442 33.12,34.442Z" fill="#A1B500"/>
<path d="M38.645,28.916L27.594,28.916C26.072,28.916 24.831,27.675 24.831,26.153C24.831,24.631 26.072,23.39 27.594,23.39L38.645,23.39C40.168,23.39 41.408,24.631 41.408,26.153C41.408,27.675 40.168,28.916 38.645,28.916Z" fill="#A1B500"/>
<path d="M52.46,53.095L16.543,53.095C11.967,53.095 8.254,49.382 8.254,44.807C8.254,40.231 11.967,36.518 16.543,36.518L38.645,36.518C40.168,36.518 41.408,37.759 41.408,39.281C41.408,40.803 40.168,42.044 38.645,42.044L16.543,42.044C15.02,42.044 13.78,43.284 13.78,44.807C13.78,46.329 15.02,47.57 16.543,47.57L52.46,47.57C53.982,47.57 55.222,48.81 55.222,50.332C55.222,51.855 53.982,53.095 52.46,53.095Z" fill="#0C5A60"/>
<path d="M21.382,61.375C24.05,61.375 26.213,59.212 26.213,56.544C26.213,53.877 24.05,51.714 21.382,51.714C18.714,51.714 16.551,53.877 16.551,56.544C16.551,59.212 18.714,61.375 21.382,61.375Z" fill="#0C5A60"/>
<path d="M44.857,61.375C47.525,61.375 49.688,59.212 49.688,56.544C49.688,53.877 47.525,51.714 44.857,51.714C42.19,51.714 40.027,53.877 40.027,56.544C40.027,59.212 42.19,61.375 44.857,61.375Z" fill="#0C5A60"/>
<path d="M16.543,42.044C15.205,42.044 14.061,41.085 13.832,39.774L9.143,14.002C8.738,11.793 7.453,9.84 5.588,8.591L1.206,5.669C-0.052,4.807 -0.378,3.091 0.476,1.833C1.32,0.592 3.01,0.249 4.268,1.076L8.65,3.997C11.765,6.083 13.903,9.338 14.58,13.016L19.27,38.788C19.543,40.284 18.549,41.727 17.053,42C16.886,42.026 16.719,42.044 16.56,42.044L16.543,42.044Z" fill="#0C5A60"/>
<path d="M44.717,42.044L21.18,42.044C17.15,42.044 13.709,39.158 13.014,35.189L10.137,18.85C9.477,15.093 11.994,11.512 15.751,10.852C16.147,10.781 16.543,10.746 16.938,10.746L50.77,10.746C55.346,10.746 59.059,14.451 59.059,19.026C59.059,19.756 58.962,20.478 58.777,21.182L55.381,33.852C54.079,38.683 49.705,42.035 44.708,42.044L44.717,42.044ZM16.947,16.272C16.182,16.272 15.566,16.888 15.566,17.653C15.566,17.733 15.566,17.812 15.583,17.9L18.461,34.239C18.689,35.559 19.842,36.527 21.18,36.527L44.717,36.527C47.215,36.527 49.406,34.846 50.049,32.435L53.445,19.765C53.841,18.296 52.97,16.782 51.5,16.386C51.263,16.325 51.025,16.29 50.779,16.29L16.947,16.29L16.947,16.272Z" fill="#0C5A60"/>
</svg>
