<svg width="68" height="64" viewBox="0 0 68 64" fill="none" xmlns="http://www.w3.org/2000/svg" xmlns:xlink="http://www.w3.org/1999/xlink">
<path d="M34.579,32.78C32.853,32.78 31.448,31.385 31.448,29.664L31.448,23.415C31.448,21.688 32.848,20.293 34.579,20.293C36.31,20.293 37.709,21.688 37.709,23.415L37.709,29.659C37.709,31.38 36.31,32.78 34.584,32.78L34.579,32.78Z" fill="#A1B500"/>
<path d="M47.1,32.78C45.374,32.78 43.969,31.385 43.969,29.664L43.969,23.415C43.969,21.688 45.369,20.293 47.1,20.293C48.831,20.293 50.23,21.688 50.23,23.415L50.23,29.659C50.23,31.38 48.831,32.78 47.105,32.78L47.1,32.78Z" fill="#A1B500"/>
<path d="M52.092,43.707L35.837,43.707C34.106,43.707 32.707,42.312 32.707,40.585C32.707,38.859 34.106,37.463 35.837,37.463L52.092,37.463C55.031,37.478 57.582,35.436 58.201,32.57L61.558,17.507C61.744,16.664 61.216,15.831 60.37,15.645C60.26,15.62 60.144,15.61 60.028,15.61L17.675,15.61C15.943,15.61 14.544,14.214 14.544,12.488C14.544,10.761 15.943,9.366 17.675,9.366L60.028,9.366C64.351,9.366 67.859,12.864 67.854,17.176C67.854,17.743 67.793,18.31 67.668,18.862L64.311,33.925C63.063,39.652 57.965,43.732 52.087,43.707L52.092,43.707Z" fill="#0C5A60"/>
<path d="M59.62,53.073L31.604,53.073C26.386,53.058 21.897,49.389 20.86,44.29L13.986,10.008C13.538,7.82 11.615,6.249 9.381,6.244L3.276,6.244C1.545,6.244 0.146,4.849 0.146,3.122C0.146,1.395 1.545,0 3.276,0L9.381,0C14.6,0.015 19.089,3.684 20.125,8.784L27,43.065C27.448,45.253 29.37,46.824 31.604,46.829L59.62,46.829C61.352,46.829 62.751,48.225 62.751,49.951C62.751,51.678 61.352,53.073 59.62,53.073Z" fill="#0C5A60"/>
<path d="M29.883,64C32.476,64 34.579,61.903 34.579,59.317C34.579,56.731 32.476,54.634 29.883,54.634C27.29,54.634 25.188,56.731 25.188,59.317C25.188,61.903 27.29,64 29.883,64Z" fill="#0C5A60"/>
<path d="M53.36,64C55.953,64 58.055,61.903 58.055,59.317C58.055,56.731 55.953,54.634 53.36,54.634C50.767,54.634 48.665,56.731 48.665,59.317C48.665,61.903 50.767,64 53.36,64Z" fill="#0C5A60"/>
</svg>
