<svg width="56" height="56" viewBox="0 0 56 56" fill="none" xmlns="http://www.w3.org/2000/svg" xmlns:xlink="http://www.w3.org/1999/xlink">
<path d="M50.162,31.633C49.086,31.633 48.208,30.755 48.208,29.679C48.208,29.228 48.362,28.789 48.653,28.442C53.934,22.072 53.05,12.629 46.68,7.347C40.31,2.066 30.866,2.95 25.585,9.32C23.359,12.004 22.14,15.387 22.134,18.875C22.116,21.918 23.049,24.892 24.8,27.385C25.424,28.269 25.214,29.487 24.33,30.106C23.445,30.73 22.227,30.52 21.608,29.636C19.394,26.488 18.213,22.722 18.232,18.875C18.244,8.448 26.711,0 37.137,0.012C47.564,0.025 56.012,8.491 56,18.918C56,23.303 54.466,27.545 51.671,30.922C51.3,31.374 50.743,31.633 50.162,31.633Z" fill="#A1B500"/>
<path d="M37.113,16.914C36.395,16.914 35.808,16.333 35.808,15.61C35.808,14.886 36.389,14.305 37.113,14.305C37.836,14.305 38.418,14.886 38.418,15.61C38.418,16.686 39.29,17.564 40.372,17.564C41.454,17.564 42.326,16.692 42.326,15.61C42.326,13.426 40.978,11.559 39.073,10.786L39.073,9.753C39.073,8.677 38.201,7.799 37.119,7.799C36.037,7.799 35.165,8.671 35.165,9.753L35.165,10.786C33.254,11.559 31.912,13.426 31.912,15.61C31.912,18.485 34.243,20.817 37.119,20.817C37.836,20.817 38.424,21.398 38.424,22.122C38.424,22.845 37.842,23.427 37.119,23.427C36.395,23.427 35.814,22.845 35.814,22.122C35.814,21.046 34.942,20.167 33.86,20.167C32.777,20.167 31.905,21.039 31.905,22.122C31.905,24.305 33.254,26.173 35.158,26.946L35.158,27.978C35.158,29.054 36.03,29.933 37.113,29.933C38.189,29.933 39.067,29.061 39.067,27.978L39.067,26.946C40.978,26.173 42.32,24.305 42.32,22.122C42.32,19.246 39.988,16.914 37.113,16.914Z" fill="#A1B500"/>
<path d="M9.357,55.988L4.447,55.988C1.991,55.988 0,53.996 0,51.541L0,27.879C0,25.424 1.991,23.433 4.447,23.433L9.357,23.433C11.812,23.433 13.804,25.424 13.804,27.879L13.804,51.541C13.804,53.996 11.812,55.988 9.357,55.988ZM4.447,27.335C4.15,27.335 3.909,27.576 3.909,27.873L3.909,51.535C3.909,51.832 4.15,52.073 4.447,52.073L9.357,52.073C9.654,52.073 9.895,51.832 9.895,51.535L9.895,27.873C9.895,27.576 9.654,27.335 9.357,27.335L4.447,27.335Z" fill="#0C5A60"/>
<path d="M35.146,52.858L22.79,52.858C21.714,52.858 20.835,51.986 20.835,50.904C20.835,49.822 21.707,48.95 22.79,48.95L35.146,48.95C37.391,48.95 39.549,48.065 41.133,46.47L50.898,36.705C52.116,35.486 52.116,33.513 50.898,32.301C49.89,31.293 48.319,31.095 47.094,31.831L35.455,38.813C34.342,39.481 33.068,39.834 31.769,39.834L23.26,39.834C22.184,39.834 21.305,38.962 21.305,37.88C21.305,36.797 22.177,35.925 23.26,35.925L31.769,35.925C32.357,35.925 32.938,35.765 33.445,35.462L45.085,28.479C48.412,26.482 52.722,27.564 54.72,30.885C56.377,33.649 55.944,37.187 53.662,39.463L43.897,49.228C41.584,51.553 38.43,52.858 35.146,52.852L35.146,52.858Z" fill="#0C5A60"/>
<path d="M29.042,39.834C27.966,39.834 27.088,38.962 27.088,37.88L27.088,33.192C27.088,31.683 25.863,30.458 24.354,30.458L13.804,30.458L13.804,37.88C13.804,38.956 12.932,39.834 11.849,39.834C10.767,39.834 9.895,38.962 9.895,37.88L9.895,28.504C9.895,27.428 10.767,26.55 11.849,26.55L24.354,26.55C28.022,26.55 30.99,29.524 30.996,33.192L30.996,37.88C30.996,38.956 30.124,39.834 29.042,39.834Z" fill="#0C5A60"/>
<path d="M17.582,52.858C18.662,52.858 19.537,51.983 19.537,50.904C19.537,49.825 18.662,48.95 17.582,48.95C16.503,48.95 15.628,49.825 15.628,50.904C15.628,51.983 16.503,52.858 17.582,52.858Z" fill="#0C5A60"/>
</svg>
