<svg width="34" height="34" viewBox="0 0 34 34" fill="none" xmlns="http://www.w3.org/2000/svg" xmlns:xlink="http://www.w3.org/1999/xlink">
<path d="M31.043,3.12L28.487,3.12L28.487,4.752C28.487,6.093 27.407,7.186 26.078,7.186C24.748,7.186 23.667,6.093 23.667,4.752L23.667,3.12L10.489,3.12L10.489,4.752C10.489,6.093 9.407,7.186 8.078,7.186C6.749,7.186 5.669,6.093 5.669,4.752L5.669,3.12L2.957,3.12C1.324,3.12 0,4.458 0,6.108L0,31.012C0,32.662 1.324,34 2.957,34L31.043,34C32.676,34 34,32.662 34,31.012L34,6.108C34,4.458 32.676,3.12 31.043,3.12ZM31.865,30.026C31.865,31.03 31.06,31.842 30.069,31.842L3.933,31.842C2.941,31.842 2.137,31.03 2.137,30.026L2.137,10.474L31.865,10.474L31.865,30.026Z" fill="#6C6C6C"/>
<path d="M8.078,5.936C8.727,5.936 9.252,5.406 9.252,4.752L9.252,1.186C9.252,0.857 9.121,0.561 8.909,0.346C8.695,0.132 8.401,0 8.078,0C7.431,0 6.906,0.53 6.906,1.186L6.906,4.752C6.906,5.406 7.431,5.936 8.078,5.936Z" fill="#6C6C6C"/>
<path d="M26.078,5.936C26.724,5.936 27.249,5.406 27.249,4.752L27.249,1.186C27.249,0.857 27.119,0.561 26.907,0.346C26.694,0.132 26.401,0 26.078,0C25.431,0 24.904,0.53 24.904,1.186L24.904,4.752C24.904,5.406 25.431,5.936 26.078,5.936Z" fill="#6C6C6C"/>
<path d="M19.912,13.384L14.152,13.384L14.152,19.202L19.912,19.202L19.912,13.384Z" fill="#6C6C6C"/>
<path d="M28.582,13.384L22.822,13.384L22.822,19.202L28.582,19.202L28.582,13.384Z" fill="#6C6C6C"/>
<path d="M19.912,22.738L14.152,22.738L14.152,28.556L19.912,28.556L19.912,22.738Z" fill="#6C6C6C"/>
<path d="M11.334,22.738L5.575,22.738L5.575,28.556L11.334,28.556L11.334,22.738Z" fill="#6C6C6C"/>
<path d="M28.582,22.738L22.822,22.738L22.822,28.556L28.582,28.556L28.582,22.738Z" fill="#6C6C6C"/>
</svg>
