<svg width="64" height="64" viewBox="0 0 64 64" fill="none" xmlns="http://www.w3.org/2000/svg" xmlns:xlink="http://www.w3.org/1999/xlink">
<path d="M46.884,23.068C48.528,23.068 49.862,21.734 49.862,20.089C49.862,18.444 48.528,17.111 46.884,17.111C45.239,17.111 43.905,18.444 43.905,20.089C43.905,21.734 45.239,23.068 46.884,23.068Z" fill="#A1B500"/>
<path d="M17.121,23.068C18.766,23.068 20.099,21.734 20.099,20.089C20.099,18.444 18.766,17.111 17.121,17.111C15.476,17.111 14.143,18.444 14.143,20.089C14.143,21.734 15.476,23.068 17.121,23.068Z" fill="#A1B500"/>
<path d="M32.002,28.276C27.479,28.276 23.815,24.612 23.815,20.089C23.815,15.566 27.479,11.903 32.002,11.903C36.525,11.903 40.188,15.566 40.188,20.089C40.188,24.607 36.519,28.27 32.002,28.276ZM32.002,16.368C29.946,16.368 28.28,18.033 28.28,20.089C28.28,22.145 29.946,23.811 32.002,23.811C34.058,23.811 35.724,22.145 35.724,20.089C35.724,18.033 34.058,16.373 32.002,16.368Z" fill="#A1B500"/>
<path d="M58.786,40.184L52.835,40.184C51.601,40.184 50.605,39.182 50.605,37.954C50.605,36.726 51.606,35.724 52.835,35.724L58.786,35.724C59.197,35.724 59.524,35.387 59.529,34.981L59.529,5.208C59.529,4.797 59.192,4.47 58.786,4.465L5.213,4.465C4.802,4.465 4.475,4.802 4.47,5.208L4.47,34.97C4.47,35.382 4.807,35.708 5.213,35.714L11.164,35.714C12.398,35.714 13.394,36.715 13.394,37.943C13.394,39.172 12.393,40.173 11.164,40.173L5.213,40.173C2.34,40.173 0.01,37.838 0.005,34.965L0.005,5.208C0.005,2.335 2.34,0.005 5.213,0L58.786,0C61.659,0 63.989,2.335 63.994,5.208L63.994,34.97C63.994,37.843 61.659,40.173 58.786,40.179L58.786,40.184Z" fill="#0C5A60"/>
<path d="M43.905,63.995L20.094,63.995C17.221,63.995 14.891,61.659 14.886,58.787L14.886,54.069C14.886,53.874 14.807,53.684 14.67,53.542L11.333,50.205C9.794,48.671 8.929,46.589 8.935,44.417L8.935,29.024C8.935,24.501 12.598,20.838 17.121,20.838C21.644,20.838 25.308,24.501 25.308,29.024L25.308,36.346L28.639,37.459C31.981,38.571 34.237,41.702 34.237,45.223L34.237,49.862C34.237,51.096 33.236,52.092 32.008,52.092C30.779,52.092 29.778,51.09 29.778,49.862L29.778,45.223C29.778,43.621 28.755,42.197 27.232,41.691L22.371,40.073C21.459,39.767 20.848,38.919 20.848,37.954L20.848,29.024C20.848,26.968 19.182,25.303 17.126,25.303C15.07,25.303 13.405,26.968 13.405,29.024L13.405,44.417C13.405,45.402 13.795,46.351 14.496,47.047L17.833,50.384C18.813,51.359 19.361,52.682 19.356,54.069L19.356,58.787C19.356,59.198 19.688,59.53 20.099,59.53L43.91,59.53C44.321,59.53 44.654,59.198 44.654,58.787L44.654,54.427C44.654,52.688 45.523,51.059 46.973,50.094L51.928,46.794C52.967,46.104 53.589,44.944 53.583,43.7L53.583,40.189L43.91,40.189C42.677,40.189 41.681,39.188 41.681,37.959C41.681,36.731 42.682,35.73 43.91,35.73L55.818,35.73C57.052,35.73 58.048,36.731 58.048,37.959L58.048,43.705C58.048,46.441 56.683,48.998 54.406,50.516L49.451,53.816C49.245,53.953 49.118,54.185 49.118,54.432L49.118,58.792C49.118,61.665 46.783,63.995 43.91,64L43.905,63.995Z" fill="#0C5A60"/>
<path d="M37.953,40.179C39.185,40.179 40.183,39.18 40.183,37.949C40.183,36.717 39.185,35.719 37.953,35.719C36.722,35.719 35.724,36.717 35.724,37.949C35.724,39.18 36.722,40.179 37.953,40.179Z" fill="#0C5A60"/>
</svg>
