<svg width="42" height="33" viewBox="0 0 42 33" fill="none" xmlns="http://www.w3.org/2000/svg">
<g clip-path="url(#clip0_1878_3611)">
<path d="M34.3393 25.9815H15.9808C13.5749 25.9815 11.4534 24.3578 10.8371 22.0348L5.82376 3.33259H1.42673C0.644506 3.33259 0.0163574 2.70444 0.0163574 1.92222C0.0163574 1.14 0.644506 0.5 1.42673 0.5H7.99265L13.5512 21.3C13.8475 22.3904 14.8312 23.1607 15.969 23.1607H34.3275C35.489 23.1607 36.5201 22.3311 36.769 21.1933L39.1393 10.4437C39.1749 10.2541 39.1038 10.1237 39.0445 10.0526C38.9971 9.99333 38.8786 9.87481 38.689 9.87481H35.7378C34.9556 9.87481 34.3275 9.24667 34.3275 8.46444C34.3275 7.68222 34.9556 7.05407 35.7378 7.05407H38.689C39.6845 7.05407 40.6208 7.50444 41.249 8.28667C41.8771 9.06889 42.1141 10.0763 41.9008 11.06L39.5304 21.8096C38.9971 24.2274 36.8045 25.9933 34.3275 25.9933L34.3393 25.9815Z" fill="#0C5A60"/>
<path d="M17.2964 9.88666H9.59274C8.81052 9.88666 8.18237 9.25851 8.18237 8.47629C8.18237 7.69407 8.81052 7.06592 9.59274 7.06592H17.2964C18.0787 7.06592 18.7068 7.69407 18.7068 8.47629C18.7068 9.25851 18.0787 9.88666 17.2964 9.88666Z" fill="#0C5A60"/>
<g opacity="0.1">
<path d="M25.3438 21.6319C23.7675 21.6319 22.0964 21.2052 20.4134 20.34C19.4416 19.8422 18.8253 18.7993 18.8608 17.6852C19.086 8.83186 22.606 4.71927 30.286 4.34001C31.6845 4.25705 32.929 5.20519 33.249 6.55631C34.6357 12.3519 33.4979 17.377 30.1794 19.9726C28.7808 21.063 27.1334 21.62 25.3438 21.62V21.6319ZM30.4994 7.22001C25.1897 7.42149 21.9068 9.28223 21.6934 17.7563C21.6934 17.7563 21.7053 17.8156 21.7171 17.8156C24.3127 19.143 26.7068 19.1193 28.449 17.7563C30.8312 15.8837 31.6253 11.8422 30.5112 7.22001H30.4994Z" fill="#0C5A60"/>
</g>
<path d="M25.3438 21.6319C23.7675 21.6319 22.0964 21.2052 20.4134 20.34C19.4416 19.8422 18.8253 18.7993 18.8608 17.6852C19.086 8.83186 22.606 4.71927 30.286 4.34001C31.6845 4.25705 32.929 5.20519 33.249 6.55631C34.6357 12.3519 33.4979 17.377 30.1794 19.9726C28.7808 21.063 27.1334 21.62 25.3438 21.62V21.6319ZM30.4994 7.22001C25.1897 7.42149 21.9068 9.28223 21.6934 17.7563C21.6934 17.7563 21.7053 17.8156 21.7171 17.8156C24.3127 19.143 26.7068 19.1193 28.449 17.7563C30.8312 15.8837 31.6253 11.8422 30.5112 7.22001H30.4994Z" fill="#A1B500"/>
<path d="M17.8416 20.8614C17.2253 20.8614 16.6445 20.4466 16.4786 19.8185C16.2771 19.06 16.7156 18.2896 17.4741 18.0881L18.1853 17.8985C22.1438 16.8318 23.7793 16.3933 25.4149 12.4585C25.7112 11.7355 26.5408 11.4037 27.2638 11.7C27.9867 11.9963 28.3304 12.8259 28.0223 13.5488C25.8534 18.7637 22.9378 19.5459 18.9201 20.6363L18.209 20.8259C18.0904 20.8614 17.9601 20.8733 17.8416 20.8733V20.8614Z" fill="#A1B500"/>
<path d="M19.6904 32.4999C17.1185 32.4999 15.0208 30.4021 15.0208 27.8303C15.0208 25.2584 17.1185 23.1606 19.6904 23.1606C22.2622 23.1606 24.36 25.2584 24.36 27.8303C24.36 30.4021 22.2622 32.4999 19.6904 32.4999ZM19.6904 25.9814C18.6711 25.9814 17.8415 26.811 17.8415 27.8303C17.8415 28.8495 18.6711 29.6792 19.6904 29.6792C20.7096 29.6792 21.5393 28.8495 21.5393 27.8303C21.5393 26.811 20.7096 25.9814 19.6904 25.9814Z" fill="#0C5A60"/>
<path d="M31.3764 32.4999C28.8046 32.4999 26.7068 30.4021 26.7068 27.8303C26.7068 25.2584 28.8046 23.1606 31.3764 23.1606C33.9483 23.1606 36.046 25.2584 36.046 27.8303C36.046 30.4021 33.9483 32.4999 31.3764 32.4999ZM31.3764 25.9814C30.3572 25.9814 29.5275 26.811 29.5275 27.8303C29.5275 28.8495 30.3572 29.6792 31.3764 29.6792C32.3957 29.6792 33.2253 28.8495 33.2253 27.8303C33.2253 26.811 32.3957 25.9814 31.3764 25.9814Z" fill="#0C5A60"/>
</g>
<defs>
<clipPath id="clip0_1878_3611">
<rect width="41.9674" height="32" fill="white" transform="translate(0.0163574 0.5)"/>
</clipPath>
</defs>
</svg>
