<svg width="35" height="33" viewBox="0 0 35 33" fill="none" xmlns="http://www.w3.org/2000/svg">
<path d="M26.0993 21.0718H20.3688C19.7348 21.0718 19.2222 20.5605 19.2222 19.9282C19.2222 19.2959 19.7348 18.7847 20.3688 18.7847H26.0993C26.7332 18.7847 27.2458 19.2959 27.2458 19.9282C27.2458 20.5605 26.7332 21.0718 26.0993 21.0718Z" fill="#A1B500"/>
<path d="M34.2367 10.6562L30.9207 3.21442C30.1852 1.56453 28.5409 0.5 26.733 0.5H8.32565C6.51042 0.5 4.86358 1.57688 4.12808 3.24406C3.65755 4.30611 3.18951 5.30148 2.71898 6.29685C2.07015 7.67752 1.39656 9.10265 0.727921 10.6982C0.358931 11.5849 0.36636 12.558 0.745256 13.3756C1.16873 14.2894 1.82746 15.0329 2.61002 15.5763V29.0718C2.61002 30.9613 4.15284 32.5 6.04732 32.5H28.9643C30.8588 32.5 32.4016 30.9613 32.4016 29.0718V15.5713C33.1718 15.0354 33.8256 14.3067 34.2491 13.4126C34.6478 12.5729 34.6428 11.5676 34.2342 10.6538L34.2367 10.6562ZM9.48462 30.2153V25.6436C9.48462 25.0137 9.99725 24.5 10.6312 24.5H12.9219C13.5534 24.5 14.0685 25.0137 14.0685 25.6436V30.2153H9.48462ZM30.1109 29.0718C30.1109 29.7016 29.5983 30.2153 28.9643 30.2153H16.3592V25.6436C16.3592 23.7541 14.8164 22.2153 12.9219 22.2153H10.6312C8.73674 22.2153 7.19391 23.7541 7.19391 25.6436V30.2153H6.04732C5.41583 30.2153 4.90073 29.7016 4.90073 29.0718V16.4728C5.32915 16.5296 5.76501 16.5494 6.20334 16.4877C7.50595 16.3098 8.67978 15.5935 9.50443 14.5587C10.6386 15.9517 12.3944 16.7346 14.2245 16.4877C15.5172 16.3123 16.6836 15.6034 17.5058 14.5809C18.328 15.6034 19.4944 16.3123 20.7871 16.4877C21.0125 16.5173 21.2378 16.5346 21.4582 16.5346C23.0357 16.5346 24.5142 15.7813 25.5072 14.5587C26.3294 15.5935 27.5032 16.3098 28.8083 16.4877C29.2442 16.5469 29.68 16.5272 30.1109 16.4704V29.0718ZM32.1787 12.437C31.6017 13.6571 30.3313 14.3858 29.1203 14.2228C27.9143 14.0573 26.899 13.0273 26.6538 11.7158C26.5523 11.1798 26.0867 10.7896 25.5394 10.7822H25.527C24.9847 10.7822 24.5166 11.1625 24.4052 11.6911C24.0684 13.2891 22.5825 14.4228 21.0991 14.2203C19.8931 14.0548 18.8778 13.0249 18.6326 11.7133C18.5311 11.1724 18.0581 10.7797 17.5083 10.7797C16.9585 10.7797 16.4831 11.1724 16.384 11.7133C16.1363 13.0249 15.1235 14.0548 13.9175 14.2203C12.4291 14.4203 10.9457 13.2867 10.6114 11.6911C10.5 11.1576 9.99972 10.7871 9.47967 10.7822C8.93238 10.7871 8.46433 11.1798 8.36527 11.7158C8.11763 13.0273 7.10476 14.0573 5.89873 14.2228C4.66547 14.3833 3.40248 13.6473 2.83042 12.4123C2.72146 12.1777 2.72889 11.864 2.85023 11.575C3.49658 10.0264 4.15779 8.62349 4.79919 7.26752C5.27715 6.25486 5.75262 5.2422 6.23058 4.16286C6.59957 3.32309 7.4267 2.78219 8.33308 2.78219H26.738C27.6419 2.78219 28.4641 3.31568 28.8306 4.14063L32.1466 11.5824C32.2803 11.8838 32.2951 12.2024 32.1837 12.437H32.1787Z" fill="#0C5A60"/>
</svg>
