<svg width="18" height="18" viewBox="0 0 18 18" fill="none" xmlns="http://www.w3.org/2000/svg" xmlns:xlink="http://www.w3.org/1999/xlink">
<path d="M8.378,16.389C6.708,16.389 5.075,15.894 3.686,14.966C2.297,14.037 1.214,12.718 0.575,11.175C-0.064,9.632 -0.232,7.934 0.094,6.295C0.42,4.657 1.225,3.152 2.406,1.971C3.587,0.79 5.092,-0.015 6.73,-0.341C8.369,-0.667 10.067,-0.499 11.61,0.14C13.153,0.779 14.473,1.862 15.401,3.251C16.329,4.64 16.824,6.272 16.824,7.943C16.821,10.182 15.931,12.329 14.347,13.912C12.764,15.496 10.617,16.386 8.378,16.389ZM8.378,2.701C7.341,2.701 6.327,3.009 5.464,3.585C4.602,4.161 3.93,4.98 3.533,5.939C3.136,6.897 3.032,7.951 3.235,8.969C3.437,9.986 3.937,10.92 4.671,11.654C5.404,12.387 6.339,12.886 7.356,13.088C8.374,13.291 9.428,13.186 10.386,12.789C11.344,12.392 12.163,11.719 12.739,10.857C13.315,9.994 13.622,8.98 13.622,7.943C13.62,6.553 13.067,5.22 12.084,4.237C11.101,3.254 9.768,2.7 8.378,2.699L8.378,2.701Z" fill="#15636E"/>
</svg>
