<svg width="34" height="22" viewBox="0 0 34 22" fill="none" xmlns="http://www.w3.org/2000/svg" xmlns:xlink="http://www.w3.org/1999/xlink">
<path d="M29.726,20.503L3.184,20.503C2.345,20.507 1.539,20.179 0.942,19.589C0.345,19 0.006,18.198 0,17.359L0,16.799C0.067,12.479 1.831,8.359 4.909,5.328C7.988,2.297 12.136,0.598 16.456,0.598C20.776,0.598 24.924,2.297 28.003,5.328C31.081,8.359 32.845,12.479 32.912,16.799L32.912,17.359C32.906,18.198 32.567,19.001 31.969,19.59C31.372,20.179 30.565,20.508 29.726,20.503ZM3.244,17.303L29.662,17.303L29.662,16.801C29.662,13.297 28.27,9.936 25.792,7.459C23.315,4.981 19.954,3.589 16.45,3.589C12.946,3.589 9.585,4.981 7.108,7.459C4.63,9.936 3.238,13.297 3.238,16.801L3.244,17.303Z" fill="#15636E"/>
</svg>
