<svg width="36" height="33" viewBox="0 0 36 33" fill="none" xmlns="http://www.w3.org/2000/svg">
<path d="M6.36133 6.31493V15.0463H17.3829V6.31493H6.36133ZM14.4754 12.1299H9.26879V9.22239H14.4754V12.1299Z" fill="#A1B500"/>
<path d="M23.8148 6.31493H20.29V9.22239H23.8148V6.31493Z" fill="#A1B500"/>
<path d="M23.8148 12.1299H20.29V15.0463H23.8148V12.1299Z" fill="#A1B500"/>
<path d="M23.8151 17.9537H6.36133V20.8612H23.8151V17.9537Z" fill="#A1B500"/>
<path d="M23.8151 23.7776H6.36133V26.6851H23.8151V23.7776Z" fill="#A1B500"/>
<path d="M29.6389 3.40746V0.5H0.546387V26.6851C0.546387 29.8967 3.14969 32.5 6.36132 32.5H29.6389C32.8506 32.5 35.4538 29.8967 35.4538 26.6851V3.40746H29.6389ZM32.5464 26.6851C32.5464 28.2954 31.2492 29.5925 29.6389 29.5925H6.36132C4.75103 29.5925 3.45385 28.2954 3.45385 26.6851V3.40746H26.7315V26.6851H29.6389V6.31493H32.5464V26.6851Z" fill="#0C5A60"/>
<path d="M6.36133 6.31493V15.0463H17.3829V6.31493H6.36133ZM14.4754 12.1299H9.26879V9.22239H14.4754V12.1299Z" fill="#A1B500"/>
<path d="M23.8148 6.31493H20.29V9.22239H23.8148V6.31493Z" fill="#A1B500"/>
<path d="M23.8148 12.1299H20.29V15.0463H23.8148V12.1299Z" fill="#A1B500"/>
<path d="M23.8151 17.9537H6.36133V20.8612H23.8151V17.9537Z" fill="#A1B500"/>
<path d="M23.8151 23.7776H6.36133V26.6851H23.8151V23.7776Z" fill="#A1B500"/>
<path d="M6.36133 6.31493V15.0463H17.3829V6.31493H6.36133ZM14.4754 12.1299H9.26879V9.22239H14.4754V12.1299Z" fill="#0C5A60"/>
<path d="M23.8148 6.31493H20.29V9.22239H23.8148V6.31493Z" fill="#A1B500"/>
<path d="M23.8148 12.1299H20.29V15.0463H23.8148V12.1299Z" fill="#A1B500"/>
<path d="M23.8151 17.9537H6.36133V20.8612H23.8151V17.9537Z" fill="#A1B500"/>
<path d="M23.8151 23.7776H6.36133V26.6851H23.8151V23.7776Z" fill="#A1B500"/>
</svg>
