<svg width="206" height="155" viewBox="0 0 206 155" fill="none" xmlns="http://www.w3.org/2000/svg">
<path d="M16.1149 147.786L15.0762 144.412C15.0311 144.322 14.9711 144.274 14.902 144.274H6.39373C6.32468 144.274 6.26764 144.319 6.2196 144.412L5.21686 147.786C5.14781 148.015 4.9977 148.132 4.76653 148.132H0.374273C0.23617 148.132 0.131092 148.093 0.0620411 148.012C-0.00701014 147.93 -0.0190192 147.81 0.0290164 147.651L7.49856 124.381C7.56761 124.153 7.71772 124.036 7.94889 124.036H13.3799C13.6111 124.036 13.7612 124.15 13.8302 124.381L21.2998 147.651C21.3238 147.696 21.3328 147.753 21.3328 147.822C21.3328 148.03 21.2067 148.132 20.9515 148.132H16.5593C16.3281 148.132 16.178 148.018 16.1089 147.786H16.1149ZM7.60664 140.524H13.6951C13.8333 140.524 13.8783 140.455 13.8332 140.317L10.7199 130.091C10.6959 130.001 10.6629 129.959 10.6149 129.971C10.5698 129.983 10.5338 130.022 10.5098 130.091L7.46553 140.317C7.44151 140.455 7.48955 140.524 7.60363 140.524H7.60664Z" fill="white"/>
<path d="M34.3205 130.557C34.4016 130.476 34.4977 130.437 34.6147 130.437H38.6617C38.7758 130.437 38.8749 130.476 38.956 130.557C39.037 130.638 39.076 130.734 39.076 130.851V146.549C39.076 149.555 38.2054 151.701 36.4641 152.986C34.7228 154.271 32.4802 154.914 29.7361 154.914C28.9285 154.914 28.0309 154.857 27.0371 154.743C26.806 154.719 26.6919 154.571 26.6919 154.295L26.83 150.75C26.83 150.452 26.9921 150.323 27.3133 150.371C28.1419 150.509 28.9045 150.578 29.595 150.578C31.0691 150.578 32.207 150.257 33.0025 149.615C33.7981 148.972 34.1944 147.939 34.1944 146.516C34.1944 146.447 34.1704 146.408 34.1254 146.396C34.0803 146.384 34.0323 146.402 33.9873 146.447C33.1106 147.39 31.8317 147.858 30.1474 147.858C28.6493 147.858 27.2713 147.498 26.0134 146.775C24.7554 146.051 23.8638 144.886 23.3324 143.28C22.9871 142.223 22.813 140.86 22.813 139.182C22.813 137.393 23.0201 135.934 23.4345 134.811C23.9178 133.412 24.7374 132.286 25.8903 131.436C27.0431 130.587 28.3791 130.163 29.9012 130.163C31.6756 130.163 33.0356 130.692 33.9813 131.748C34.0263 131.794 34.0743 131.812 34.1194 131.8C34.1644 131.788 34.1884 131.748 34.1884 131.679V130.854C34.1884 130.74 34.2275 130.641 34.3085 130.56L34.3205 130.557ZM34.2004 139.146C34.2004 138.434 34.1764 137.885 34.1314 137.495C34.0863 137.104 34.0053 136.738 33.8882 136.393C33.681 135.774 33.3358 135.273 32.8494 134.895C32.3631 134.517 31.7656 134.327 31.0511 134.327C30.3366 134.327 29.7721 134.517 29.2858 134.895C28.8024 135.273 28.4452 135.771 28.214 136.393C27.8898 137.08 27.7306 138.011 27.7306 139.182C27.7306 140.467 27.8687 141.386 28.1449 141.935C28.3521 142.553 28.7154 143.055 29.2347 143.433C29.7541 143.811 30.3696 144.001 31.0841 144.001C31.7987 144.001 32.4321 143.811 32.9185 143.433C33.4018 143.055 33.7351 142.566 33.9212 141.971C34.1044 141.284 34.1974 140.341 34.1974 139.149L34.2004 139.146Z" fill="white"/>
<path d="M53.3966 130.677C53.5798 130.77 53.6488 130.941 53.6038 131.193L52.8772 135.117C52.8532 135.393 52.6911 135.471 52.3939 135.357C52.0486 135.243 51.6433 135.186 51.184 135.186C50.9979 135.186 50.7457 135.21 50.4244 135.255C49.5958 135.324 48.8903 135.627 48.3139 136.168C47.7374 136.708 47.4492 137.423 47.4492 138.32V147.717C47.4492 147.831 47.4072 147.93 47.3291 148.009C47.2481 148.09 47.149 148.129 47.0349 148.129H42.9879C42.8738 148.129 42.7748 148.09 42.6937 148.009C42.6126 147.927 42.5736 147.831 42.5736 147.717V130.848C42.5736 130.734 42.6126 130.635 42.6937 130.554C42.7748 130.473 42.8708 130.434 42.9879 130.434H47.0349C47.149 130.434 47.2481 130.473 47.3291 130.554C47.4102 130.635 47.4492 130.731 47.4492 130.848V132.157C47.4492 132.226 47.4702 132.271 47.5183 132.295C47.5633 132.319 47.5993 132.307 47.6234 132.262C48.5691 130.884 49.836 130.196 51.4272 130.196C52.2558 130.196 52.9133 130.358 53.3996 130.68L53.3966 130.677Z" fill="white"/>
<path d="M56.4919 127.665C55.9725 127.149 55.7144 126.501 55.7144 125.72C55.7144 124.939 55.9665 124.264 56.4739 123.757C56.9813 123.252 57.6388 123 58.4464 123C59.254 123 59.9115 123.252 60.4188 123.757C60.9262 124.261 61.1784 124.915 61.1784 125.72C61.1784 126.525 60.9202 127.149 60.4008 127.665C59.8814 128.182 59.23 128.44 58.4464 128.44C57.6628 128.44 57.0113 128.182 56.4919 127.665ZM56.0746 148.012C55.9936 147.93 55.9545 147.834 55.9545 147.72V130.818C55.9545 130.704 55.9936 130.605 56.0746 130.527C56.1557 130.446 56.2518 130.406 56.3688 130.406H60.4158C60.5299 130.406 60.629 130.446 60.7101 130.527C60.7911 130.608 60.8301 130.704 60.8301 130.818V147.72C60.8301 147.834 60.7881 147.933 60.7101 148.012C60.629 148.093 60.5299 148.132 60.4158 148.132H56.3688C56.2548 148.132 56.1557 148.093 56.0746 148.012Z" fill="white"/>
<path d="M80.9931 124.033H85.0401C85.1542 124.033 85.2533 124.072 85.3343 124.153C85.4154 124.234 85.4544 124.33 85.4544 124.444V147.714C85.4544 147.828 85.4124 147.928 85.3343 148.006C85.2533 148.087 85.1542 148.126 85.0401 148.126H80.9931C80.879 148.126 80.78 148.087 80.6989 148.006C80.6178 147.925 80.5788 147.828 80.5788 147.714V132.532C80.5788 132.442 80.5548 132.394 80.5098 132.394C80.4647 132.394 80.4167 132.427 80.3717 132.496L76.7059 138.209C76.5889 138.392 76.4297 138.486 76.2226 138.486H74.1811C73.9739 138.486 73.8118 138.395 73.6977 138.209L70.032 132.496C69.987 132.427 69.9389 132.397 69.8939 132.409C69.8489 132.421 69.8248 132.472 69.8248 132.565V147.711C69.8248 147.825 69.7858 147.925 69.7048 148.003C69.6237 148.084 69.5246 148.123 69.4105 148.123H65.3635C65.2464 148.123 65.1504 148.084 65.0693 148.003C64.9883 147.922 64.9492 147.825 64.9492 147.711V124.441C64.9492 124.327 64.9883 124.228 65.0693 124.15C65.1504 124.069 65.2464 124.03 65.3635 124.03H69.4105C69.6177 124.03 69.7798 124.123 69.8939 124.306L75.0817 132.328C75.1508 132.466 75.2198 132.466 75.2889 132.328L80.5128 124.306C80.6269 124.123 80.789 124.03 80.9961 124.03L80.9931 124.033Z" fill="#A1B500"/>
<path d="M105.239 140.386C105.215 140.662 105.065 140.8 104.789 140.8H94.1008C93.9627 140.8 93.9146 140.857 93.9627 140.971C94.0317 141.431 94.1578 141.89 94.344 142.349C94.9444 143.634 96.1663 144.277 98.0097 144.277C99.4838 144.256 100.649 143.658 101.501 142.488C101.594 142.349 101.696 142.28 101.814 142.28C101.883 142.28 101.964 142.325 102.057 142.418L104.546 144.862C104.66 144.976 104.72 145.081 104.72 145.171C104.72 145.217 104.675 145.31 104.582 145.448C103.822 146.39 102.84 147.117 101.642 147.633C100.441 148.15 99.1295 148.408 97.7005 148.408C95.716 148.408 94.0407 147.961 92.6687 147.066C91.2967 146.171 90.312 144.919 89.7115 143.313C89.2282 142.166 88.985 140.662 88.985 138.804C88.985 137.543 89.1591 136.429 89.5044 135.465C90.0358 133.835 90.9635 132.538 92.2874 131.574C93.6144 130.611 95.1876 130.127 97.0069 130.127C99.3126 130.127 101.162 130.794 102.558 132.124C103.954 133.454 104.801 135.234 105.101 137.459C105.239 138.332 105.284 139.305 105.239 140.386ZM94.1698 136.357C94.0768 136.657 93.9957 137.023 93.9267 137.459C93.9267 137.573 93.9837 137.63 94.1008 137.63H100.084C100.222 137.63 100.267 137.573 100.222 137.459C100.105 136.792 100.048 136.471 100.048 136.495C99.841 135.808 99.4778 135.273 98.9584 134.895C98.439 134.517 97.7995 134.327 97.04 134.327C95.5869 134.327 94.6292 135.006 94.1698 136.36V136.357Z" fill="#A1B500"/>
<path d="M119.07 130.677C119.253 130.77 119.323 130.941 119.277 131.193L118.551 135.117C118.527 135.393 118.365 135.471 118.068 135.357C117.722 135.243 117.317 135.186 116.858 135.186C116.672 135.186 116.419 135.21 116.098 135.255C115.27 135.324 114.564 135.627 113.988 136.168C113.411 136.708 113.123 137.423 113.123 138.32V147.717C113.123 147.831 113.081 147.931 113.003 148.009C112.922 148.09 112.823 148.129 112.709 148.129H108.662C108.548 148.129 108.448 148.09 108.367 148.009C108.286 147.928 108.247 147.831 108.247 147.717V130.848C108.247 130.734 108.286 130.635 108.367 130.554C108.448 130.473 108.545 130.434 108.662 130.434H112.709C112.823 130.434 112.922 130.473 113.003 130.554C113.084 130.635 113.123 130.731 113.123 130.848V132.157C113.123 132.226 113.144 132.271 113.192 132.295C113.237 132.319 113.273 132.307 113.297 132.262C114.243 130.884 115.51 130.196 117.101 130.196C117.929 130.196 118.587 130.359 119.073 130.68L119.07 130.677Z" fill="#A1B500"/>
<path d="M124.069 147.03C122.721 146.111 121.757 144.85 121.181 143.244C120.788 142.097 120.592 140.743 120.592 139.182C120.592 137.621 120.788 136.315 121.181 135.189C121.733 133.628 122.691 132.4 124.051 131.505C125.411 130.611 127.014 130.163 128.858 130.163C130.701 130.163 132.322 130.623 133.715 131.541C135.111 132.46 136.039 133.619 136.498 135.018C136.681 135.567 136.774 135.982 136.774 136.258V136.327C136.774 136.534 136.66 136.66 136.429 136.705L132.451 137.291H132.382C132.175 137.291 132.037 137.177 131.968 136.945L131.863 136.393C131.701 135.796 131.343 135.303 130.791 134.913C130.239 134.523 129.581 134.327 128.818 134.327C128.056 134.327 127.458 134.511 126.951 134.88C126.444 135.246 126.086 135.754 125.879 136.393C125.624 137.081 125.498 138.023 125.498 139.215C125.498 140.407 125.612 141.35 125.843 142.037C126.05 142.725 126.414 143.265 126.933 143.655C127.452 144.046 128.08 144.241 128.818 144.241C129.557 144.241 130.16 144.052 130.704 143.673C131.244 143.295 131.62 142.773 131.827 142.106C131.851 142.061 131.86 141.992 131.86 141.899C131.884 141.878 131.896 141.842 131.896 141.797C131.917 141.521 132.079 141.407 132.379 141.452L136.357 142.07C136.588 142.115 136.702 142.241 136.702 142.448C136.702 142.632 136.633 142.977 136.495 143.481C136.012 145.018 135.072 146.225 133.676 147.096C132.28 147.97 130.674 148.405 128.852 148.405C127.029 148.405 125.411 147.946 124.063 147.027L124.069 147.03Z" fill="#A1B500"/>
<path d="M153.344 131.848C154.473 132.973 155.037 134.499 155.037 136.426V147.717C155.037 147.831 154.995 147.931 154.917 148.009C154.836 148.09 154.737 148.129 154.623 148.129H150.576C150.462 148.129 150.363 148.09 150.281 148.009C150.2 147.928 150.161 147.831 150.161 147.717V137.426C150.161 136.507 149.903 135.763 149.384 135.189C148.864 134.616 148.18 134.327 147.327 134.327C146.475 134.327 145.787 134.616 145.271 135.189C144.751 135.763 144.493 136.51 144.493 137.426V147.717C144.493 147.831 144.451 147.931 144.373 148.009C144.292 148.09 144.193 148.129 144.079 148.129H140.032C139.918 148.129 139.819 148.09 139.738 148.009C139.657 147.928 139.618 147.831 139.618 147.717V124.447C139.618 124.333 139.657 124.234 139.738 124.156C139.819 124.075 139.915 124.036 140.032 124.036H144.079C144.193 124.036 144.292 124.075 144.373 124.156C144.454 124.237 144.493 124.333 144.493 124.447V132.055C144.493 132.124 144.514 132.169 144.562 132.193C144.607 132.217 144.643 132.205 144.667 132.16C145.613 130.83 147.018 130.163 148.885 130.163C150.753 130.163 152.218 130.725 153.347 131.851L153.344 131.848Z" fill="#A1B500"/>
<path d="M169.634 130.935C170.811 131.451 171.726 132.157 172.384 133.052C173.041 133.946 173.369 134.946 173.369 136.048V147.717C173.369 147.831 173.33 147.931 173.249 148.009C173.168 148.09 173.068 148.129 172.954 148.129H168.907C168.79 148.129 168.694 148.09 168.613 148.009C168.532 147.928 168.493 147.831 168.493 147.717V146.583C168.493 146.513 168.469 146.468 168.424 146.444C168.379 146.423 168.331 146.444 168.286 146.514C167.316 147.777 165.761 148.408 163.617 148.408C161.819 148.408 160.366 147.973 159.261 147.099C158.153 146.228 157.601 144.943 157.601 143.244C157.601 141.545 158.222 140.107 159.468 139.131C160.714 138.155 162.489 137.669 164.794 137.669H168.322C168.436 137.669 168.496 137.612 168.496 137.498V136.741C168.496 135.985 168.265 135.393 167.806 134.967C167.343 134.544 166.653 134.33 165.731 134.33C165.016 134.33 164.422 134.457 163.951 134.709C163.476 134.961 163.173 135.318 163.035 135.775C162.966 136.027 162.816 136.141 162.585 136.12L158.4 135.567C158.123 135.522 157.997 135.417 158.018 135.258C158.111 134.294 158.496 133.424 159.177 132.643C159.856 131.863 160.756 131.256 161.876 130.818C162.993 130.383 164.245 130.163 165.629 130.163C167.127 130.163 168.466 130.422 169.64 130.938L169.634 130.935ZM167.454 144.001C168.145 143.472 168.493 142.797 168.493 141.971V140.731C168.493 140.617 168.436 140.56 168.319 140.56H165.83C164.791 140.56 163.981 140.755 163.392 141.146C162.804 141.536 162.51 142.088 162.51 142.797C162.51 143.415 162.729 143.905 163.167 144.259C163.605 144.616 164.194 144.793 164.932 144.793C165.923 144.793 166.767 144.529 167.457 144.001H167.454Z" fill="#A1B500"/>
<path d="M190.523 131.848C191.652 132.973 192.217 134.499 192.217 136.426V147.717C192.217 147.831 192.175 147.931 192.096 148.009C192.015 148.09 191.916 148.129 191.802 148.129H187.755C187.641 148.129 187.542 148.09 187.461 148.009C187.38 147.928 187.341 147.831 187.341 147.717V137.426C187.341 136.507 187.083 135.763 186.563 135.189C186.044 134.616 185.359 134.327 184.507 134.327C183.654 134.327 182.967 134.616 182.45 135.189C181.931 135.763 181.673 136.51 181.673 137.426V147.717C181.673 147.831 181.631 147.931 181.553 148.009C181.472 148.09 181.373 148.129 181.258 148.129H177.211C177.097 148.129 176.998 148.09 176.917 148.009C176.836 147.928 176.797 147.831 176.797 147.717V130.848C176.797 130.734 176.836 130.635 176.917 130.554C176.998 130.473 177.094 130.434 177.211 130.434H181.258C181.373 130.434 181.472 130.473 181.553 130.554C181.634 130.635 181.673 130.731 181.673 130.848V132.052C181.673 132.121 181.694 132.166 181.742 132.19C181.787 132.214 181.823 132.202 181.847 132.157C182.793 130.827 184.198 130.16 186.065 130.16C187.932 130.16 189.397 130.722 190.526 131.848H190.523Z" fill="#A1B500"/>
<path d="M205.793 134.207C205.712 134.288 205.612 134.327 205.498 134.327H202.178C202.064 134.327 202.004 134.384 202.004 134.499V141.797C202.004 142.554 202.16 143.118 202.469 143.484C202.781 143.851 203.283 144.034 203.973 144.034H205.114C205.228 144.034 205.327 144.073 205.408 144.154C205.489 144.235 205.528 144.331 205.528 144.445V147.714C205.528 147.967 205.39 148.117 205.114 148.162C204.147 148.207 203.454 148.231 203.04 148.231C201.127 148.231 199.695 147.916 198.752 147.285C197.807 146.655 197.323 145.466 197.299 143.721V134.496C197.299 134.381 197.242 134.324 197.125 134.324H195.153C195.036 134.324 194.94 134.285 194.858 134.204C194.777 134.123 194.738 134.027 194.738 133.913V130.848C194.738 130.734 194.777 130.635 194.858 130.554C194.94 130.473 195.036 130.434 195.153 130.434H197.125C197.239 130.434 197.299 130.377 197.299 130.262V126.167C197.299 126.053 197.338 125.954 197.419 125.876C197.5 125.795 197.597 125.756 197.714 125.756H201.586C201.701 125.756 201.8 125.795 201.881 125.876C201.962 125.957 202.001 126.053 202.001 126.167V130.262C202.001 130.377 202.058 130.434 202.175 130.434H205.495C205.609 130.434 205.709 130.473 205.79 130.554C205.871 130.635 205.91 130.731 205.91 130.848V133.913C205.91 134.027 205.871 134.126 205.79 134.204L205.793 134.207Z" fill="#A1B500"/>
<path d="M133.521 41.389V87.0326C133.521 95.8484 126.369 103 117.553 103H87.8771C79.0612 103 71.9097 95.8484 71.9097 87.0326V57.3501C71.9097 57.0123 71.9159 56.6744 71.9472 56.3428C71.9535 56.1113 71.9722 55.8798 72.0035 55.6483C72.1537 54.2405 72.4853 52.889 72.9796 51.6126C75.2821 45.6311 81.0822 41.389 87.8771 41.389H133.521Z" fill="#A3B600"/>
<path d="M158.535 27.1423H143.807L146.91 14.7225H161.633L158.535 27.1423Z" fill="white"/>
<path d="M163.966 41.3953H152.698L155.795 31.8912H167.064L163.966 41.3953Z" fill="white"/>
<path d="M177.669 14.7224H166.406L169.504 5.22455H180.772L177.669 14.7224Z" fill="white"/>
<path d="M187.767 23.482H181.01L184.107 17.7821H190.865L187.767 23.482Z" fill="#A3B600"/>
<path d="M195.301 5.70008H188.543L191.64 0.000106812H198.398L195.301 5.70008Z" fill="#A3B600"/>
<path d="M133.521 59.5901V64.9585C133.389 65.8282 133.227 66.7542 133.008 67.749C132.92 68.1432 132.82 68.5374 132.72 68.9503C132.62 69.3633 132.513 69.77 132.388 70.1892C132.294 70.5145 132.201 70.8399 132.094 71.1652C131.975 71.5469 131.844 71.9223 131.713 72.3102C131.575 72.6982 131.431 73.0861 131.281 73.474C131.218 73.6429 131.149 73.8119 131.081 73.9746C130.011 76.6149 128.534 79.3492 126.494 81.9207C126.375 82.0771 126.257 82.2211 126.131 82.3712C125.087 83.6601 123.892 84.899 122.534 86.069C122.315 86.2567 122.09 86.4382 121.871 86.6196C121.476 86.945 121.07 87.2578 120.657 87.5644C120.306 87.8209 119.95 88.0774 119.587 88.309C118.867 88.797 118.116 89.2537 117.347 89.6855C115.426 90.7616 113.368 91.6689 111.234 92.3821C110.383 92.67 109.52 92.914 108.656 93.133C107.78 93.352 106.904 93.5334 106.028 93.6836C103.394 94.1341 100.747 94.2592 98.1697 94.0152C97.6066 93.9589 97.0434 93.89 96.4866 93.8087C96.205 93.7649 95.9297 93.7149 95.6482 93.6585C95.3791 93.6022 95.1038 93.5522 94.8285 93.4896C94.5595 93.427 94.2842 93.3582 94.0151 93.2894C93.7524 93.2143 93.4833 93.1392 93.2143 93.0579C92.9515 92.9828 92.6887 92.889 92.4259 92.8014C91.381 92.4385 90.3737 91.9942 89.4039 91.4687C88.9221 91.2059 88.4403 90.9181 87.9836 90.6177C86.751 89.8043 85.6498 88.8658 84.6737 87.896C84.4985 87.7208 84.3171 87.5331 84.1419 87.3517C83.9729 87.1765 83.7977 86.995 83.6351 86.8073C83.4724 86.6321 83.3097 86.4507 83.1595 86.2755C81.1636 83.9605 79.9936 81.8582 79.7808 81.464C79.0863 80.1876 78.2166 78.3168 75.6576 68.0368C73.4114 58.9832 73.7493 59.0895 73.1111 57.6567C72.9922 57.419 72.8796 57.1687 72.7482 56.9184C72.7106 56.8308 72.6606 56.7495 72.6105 56.6619C72.5229 56.4992 72.4228 56.3303 72.3164 56.1613C72.2163 55.9924 72.11 55.8235 71.9911 55.6483C72.1413 54.2405 72.4729 52.889 72.9672 51.6126C74.1935 52.8265 75.3197 54.2342 76.2833 55.8485C77.2656 57.5003 76.9778 58.2824 80.4441 68.1182C82.8217 74.863 83.5224 76.3772 84.8927 78.0915C88.5592 82.6465 93.4708 84.2358 94.9036 84.6737C103.594 87.3642 110.884 83.5225 112.079 82.8592C116.765 80.2939 119.337 76.6587 120.482 74.7879C117.841 77.1593 111.741 81.8769 103.263 82.2023C102.155 82.2461 90.8429 82.6778 88.1087 76.6838C87.2953 74.9006 87.2327 72.5292 88.1087 70.5896C89.1411 68.2996 91.2934 66.9857 93.7086 66.0597C103.031 62.4807 110.27 66.9043 120.482 65.1524C123.566 64.6268 128.165 63.3192 133.515 59.5838L133.521 59.5901Z" fill="white"/>
<path d="M133.521 64.9584V65.6654C132.632 71.8409 129.76 81.6767 120.65 88.3465C111.403 95.1226 97.2562 97.5127 87.9898 91.3935C83.0531 88.14 80.1437 82.8968 79.7933 82.2523C79.0988 80.9634 78.2291 79.1051 75.6701 68.8251C73.4239 59.7715 73.7617 59.8716 73.1236 58.4451C72.8107 57.7693 72.4353 57.0686 71.9473 56.3553C71.9535 56.1238 71.9723 55.8923 72.0036 55.6608C72.1225 55.8297 72.2288 55.9986 72.3289 56.1738C72.4353 56.3428 72.5292 56.5054 72.623 56.6744C72.6793 56.762 72.7231 56.8433 72.7607 56.9309C72.892 57.1812 73.0109 57.4252 73.1236 57.6692C73.768 59.102 73.4239 58.9957 75.6701 68.0493C78.2291 78.3293 79.0926 80.1938 79.7933 81.4765C79.9998 81.8706 81.1698 83.9729 83.172 86.288C83.3222 86.4632 83.4724 86.6446 83.6475 86.8198C83.804 86.995 83.9729 87.1827 84.1543 87.3641C84.3233 87.5519 84.5047 87.7333 84.6862 87.9085C85.6622 88.8783 86.7634 89.8168 87.996 90.6302C88.4528 90.9305 88.9346 91.2184 89.4163 91.4811C90.3862 92.0005 91.3935 92.4509 92.4384 92.8138C92.7012 92.9014 92.964 92.989 93.2268 93.0704C93.4895 93.158 93.7586 93.2268 94.0276 93.3019C94.2967 93.3707 94.572 93.4395 94.841 93.5021C95.1226 93.5647 95.3916 93.621 95.6607 93.671C95.9422 93.7273 96.2175 93.7711 96.4991 93.8212C97.0559 93.9088 97.6128 93.9776 98.1822 94.0277C100.754 94.2654 103.413 94.134 106.041 93.6961C106.917 93.5396 107.793 93.3644 108.669 93.1455C109.538 92.9265 110.396 92.6699 111.246 92.3946C113.38 91.6814 115.439 90.7741 117.359 89.6979C118.129 89.2662 118.88 88.8095 119.599 88.3214C119.962 88.0899 120.319 87.8334 120.669 87.5769C121.088 87.264 121.489 86.9575 121.883 86.6321C122.108 86.4569 122.334 86.2692 122.546 86.0815C123.904 84.9115 125.093 83.6726 126.144 82.3837C126.269 82.2335 126.394 82.0896 126.507 81.9332C128.547 79.3617 130.023 76.6274 131.093 73.987C131.162 73.8244 131.231 73.6554 131.293 73.4865C131.45 73.0986 131.594 72.7106 131.725 72.3227C131.863 71.9348 131.988 71.5531 132.107 71.1777C132.213 70.8524 132.313 70.527 132.401 70.2016C132.526 69.7824 132.632 69.3757 132.732 68.9628C132.839 68.5498 132.933 68.1494 133.02 67.7615C133.239 66.7729 133.402 65.8406 133.533 64.9709L133.521 64.9584Z" fill="#F2F2F2"/>
</svg>
