<svg width="32" height="34" viewBox="0 0 32 34" fill="none" xmlns="http://www.w3.org/2000/svg" xmlns:xlink="http://www.w3.org/1999/xlink">
<path d="M23.172,13.718L23.172,7.284C23.172,7.1 23.087,6.93 22.967,6.795L15.753,-0.78C15.618,-0.922 15.427,-1 15.236,-1L3.798,-1C1.687,-1 0,0.722 0,2.834L0,24.461C0,26.573 1.687,28.266 3.798,28.266L12.826,28.266C14.534,31.101 17.638,33 21.174,33C26.545,33 30.932,28.635 30.932,23.256C30.939,18.558 27.566,14.632 23.172,13.718ZM15.944,1.487L20.784,6.582L17.645,6.582C16.709,6.582 15.944,5.81 15.944,4.875L15.944,1.487ZM3.798,26.849C2.473,26.849 1.417,25.786 1.417,24.461L1.417,2.834C1.417,1.501 2.473,0.417 3.798,0.417L14.527,0.417L14.527,4.875C14.527,6.597 15.923,8 17.645,8L21.755,8L21.755,13.534C21.542,13.527 21.372,13.506 21.188,13.506C18.715,13.506 16.44,14.455 14.725,15.943L5.726,15.943C5.336,15.943 5.017,16.262 5.017,16.652C5.017,17.042 5.336,17.361 5.726,17.361L13.407,17.361C12.904,18.069 12.486,18.778 12.16,19.557L5.726,19.557C5.336,19.557 5.017,19.876 5.017,20.266C5.017,20.656 5.336,20.975 5.726,20.975L11.699,20.975C11.522,21.683 11.43,22.47 11.43,23.256C11.43,24.532 11.678,25.793 12.125,26.856L3.798,26.856L3.798,26.849ZM21.181,31.59C16.589,31.59 12.855,27.855 12.855,23.263C12.855,18.672 16.582,14.937 21.181,14.937C25.78,14.937 29.507,18.672 29.507,23.263C29.507,27.855 25.773,31.59 21.181,31.59Z" fill="#FFFFFF"/>
<path d="M5.726,13.81L12.904,13.81C13.294,13.81 13.613,13.491 13.613,13.102C13.613,12.712 13.294,12.393 12.904,12.393L5.726,12.393C5.336,12.393 5.017,12.712 5.017,13.102C5.017,13.491 5.336,13.81 5.726,13.81Z" fill="#FFFFFF"/>
<path d="M20.947,19.175C21.004,19.187 21.06,19.193 21.117,19.193C21.188,19.193 21.252,19.187 21.316,19.168C22.251,19.236 22.981,19.906 22.981,20.722C22.981,21.057 23.3,21.331 23.689,21.331C24.079,21.331 24.398,21.057 24.398,20.722C24.398,19.382 23.293,18.261 21.826,17.999L21.826,17.609C21.826,17.274 21.507,17 21.117,17C20.727,17 20.408,17.274 20.408,17.609L20.408,18.023C18.991,18.316 17.935,19.418 17.935,20.722C17.935,22.257 19.388,23.5 21.167,23.5C22.166,23.5 22.981,24.2 22.981,25.059C22.981,25.918 22.173,26.624 21.167,26.624C20.167,26.624 19.353,25.924 19.353,25.065C19.353,24.73 19.034,24.456 18.644,24.456C18.254,24.456 17.935,24.73 17.935,25.065C17.935,26.375 18.991,27.471 20.408,27.763L20.408,28.391C20.408,28.726 20.727,29 21.117,29C21.507,29 21.826,28.726 21.826,28.391L21.826,27.782C23.293,27.52 24.398,26.399 24.398,25.059C24.398,23.524 22.945,22.281 21.167,22.281C20.167,22.281 19.353,21.581 19.353,20.722C19.353,19.93 20.047,19.266 20.947,19.175Z" fill="#FFFFFF"/>
</svg>
