<svg width="90" height="90" viewBox="0 0 90 90" fill="none" xmlns="http://www.w3.org/2000/svg" xmlns:xlink="http://www.w3.org/1999/xlink">
<path d="M45.469,89.063C70.063,89.063 90,69.125 90,44.531C90,19.937 70.063,0 45.469,0C20.875,0 0.937,19.937 0.937,44.531C0.937,69.125 20.875,89.063 45.469,89.063Z" fill="#A1B500"/>
<path d="M78.047,68.477C74.332,63.527 69.508,59.508 63.959,56.738C58.41,53.969 52.288,52.526 46.08,52.524C39.873,52.522 33.75,53.961 28.199,56.727C22.648,59.493 17.822,63.51 14.104,68.458C17.803,73.43 22.622,77.471 28.173,80.257C33.724,83.042 39.854,84.493 46.07,84.495C52.287,84.497 58.418,83.049 63.971,80.268C69.524,77.486 74.344,73.448 78.047,68.477Z" fill="#FFFFFF"/>
<path d="M44.934,50.241C53.132,50.241 59.777,43.595 59.777,35.397C59.777,27.199 53.132,20.553 44.934,20.553C36.736,20.553 30.09,27.199 30.09,35.397C30.09,43.595 36.736,50.241 44.934,50.241Z" fill="#FFFFFF"/>
</svg>
