<svg width="48" height="54" viewBox="0 0 48 54" fill="none" xmlns="http://www.w3.org/2000/svg" xmlns:xlink="http://www.w3.org/1999/xlink">
<path d="M36.828,-0.015L45.872,-0.015C46.127,-0.015 46.349,0.072 46.53,0.253C46.711,0.435 46.798,0.649 46.798,0.904L46.798,52.91C46.798,53.165 46.704,53.387 46.53,53.561C46.349,53.742 46.127,53.829 45.872,53.829L36.828,53.829C36.573,53.829 36.352,53.742 36.17,53.561C35.989,53.38 35.902,53.165 35.902,52.91L35.902,18.98C35.902,18.779 35.848,18.671 35.748,18.671C35.647,18.671 35.54,18.745 35.439,18.899L27.247,31.668C26.985,32.077 26.629,32.285 26.166,32.285L21.604,32.285C21.141,32.285 20.779,32.084 20.524,31.668L12.331,18.899C12.231,18.745 12.123,18.678 12.023,18.705C11.922,18.732 11.868,18.846 11.868,19.054L11.868,52.904C11.868,53.158 11.781,53.38 11.6,53.554C11.419,53.736 11.197,53.823 10.942,53.823L1.898,53.823C1.636,53.823 1.422,53.736 1.24,53.554C1.059,53.373 0.972,53.158 0.972,52.904L0.972,0.898C0.972,0.643 1.059,0.421 1.24,0.247C1.422,0.066 1.636,-0.022 1.898,-0.022L10.942,-0.022C11.405,-0.022 11.768,0.186 12.023,0.596L23.617,18.524C23.771,18.832 23.925,18.832 24.08,18.524L35.754,0.596C36.009,0.186 36.372,-0.022 36.835,-0.022L36.828,-0.015Z" fill="#A1B500"/>
</svg>
