<svg width="32" height="38" viewBox="0 0 32 38" fill="none" xmlns="http://www.w3.org/2000/svg" xmlns:xlink="http://www.w3.org/1999/xlink">
<path d="M27.047,3.695C29.304,5.947 30.433,8.997 30.433,12.852L30.433,35.435C30.433,35.663 30.349,35.861 30.193,36.017C30.031,36.179 29.833,36.257 29.604,36.257L21.51,36.257C21.282,36.257 21.084,36.179 20.922,36.017C20.76,35.855 20.682,35.663 20.682,35.435L20.682,14.852C20.682,13.014 20.165,11.525 19.127,10.378C18.088,9.231 16.719,8.655 15.014,8.655C13.308,8.655 11.933,9.231 10.901,10.378C9.862,11.525 9.345,13.02 9.345,14.852L9.345,35.435C9.345,35.663 9.261,35.861 9.105,36.017C8.943,36.179 8.745,36.257 8.517,36.257L0.423,36.257C0.195,36.257 -0.003,36.179 -0.166,36.017C-0.328,35.855 -0.406,35.663 -0.406,35.435L-0.406,1.696C-0.406,1.468 -0.328,1.269 -0.166,1.107C-0.003,0.945 0.189,0.867 0.423,0.867L8.517,0.867C8.745,0.867 8.943,0.945 9.105,1.107C9.267,1.269 9.345,1.462 9.345,1.696L9.345,4.104C9.345,4.242 9.388,4.332 9.484,4.38C9.574,4.428 9.646,4.404 9.694,4.314C11.585,1.654 14.395,0.321 18.13,0.321C21.865,0.321 24.795,1.444 27.053,3.695L27.047,3.695Z" fill="#A1B500"/>
</svg>
