<svg width="36" height="42" viewBox="0 0 36 42" fill="none" xmlns="http://www.w3.org/2000/svg" xmlns:xlink="http://www.w3.org/1999/xlink">
<path d="M7.097,37.381C4.084,35.327 1.931,32.509 0.642,28.92C-0.237,26.357 -0.673,23.331 -0.673,19.842C-0.673,16.353 -0.237,13.434 0.642,10.918C1.877,7.429 4.017,4.685 7.057,2.685C10.096,0.686 13.679,-0.314 17.799,-0.314C21.919,-0.314 25.542,0.713 28.655,2.766C31.775,4.819 33.848,7.409 34.875,10.536C35.284,11.763 35.492,12.689 35.492,13.307L35.492,13.461C35.492,13.924 35.237,14.206 34.72,14.306L25.83,15.615L25.676,15.615C25.213,15.615 24.904,15.36 24.75,14.843L24.515,13.609C24.153,12.273 23.354,11.173 22.12,10.301C20.885,9.428 19.416,8.992 17.712,8.992C16.007,8.992 14.672,9.402 13.538,10.227C12.404,11.045 11.606,12.179 11.143,13.609C10.573,15.145 10.291,17.252 10.291,19.916C10.291,22.579 10.546,24.686 11.062,26.223C11.525,27.759 12.337,28.967 13.498,29.839C14.659,30.711 16.061,31.147 17.712,31.147C19.362,31.147 20.711,30.725 21.925,29.879C23.133,29.034 23.972,27.866 24.435,26.377C24.488,26.276 24.508,26.122 24.508,25.914C24.562,25.867 24.589,25.786 24.589,25.686C24.636,25.069 24.998,24.814 25.669,24.914L34.559,26.296C35.076,26.397 35.331,26.679 35.331,27.142C35.331,27.551 35.177,28.323 34.868,29.45C33.788,32.885 31.688,35.582 28.568,37.528C25.448,39.481 21.858,40.454 17.785,40.454C13.713,40.454 10.096,39.427 7.084,37.374L7.097,37.381Z" fill="#A1B500"/>
</svg>
