<svg width="24" height="52" viewBox="0 0 24 52" fill="none" xmlns="http://www.w3.org/2000/svg" xmlns:xlink="http://www.w3.org/1999/xlink">
<path d="M23.738,18.896C23.557,19.077 23.336,19.165 23.081,19.165L15.66,19.165C15.405,19.165 15.271,19.292 15.271,19.547L15.271,35.858C15.271,37.549 15.62,38.81 16.311,39.629C17.009,40.447 18.129,40.857 19.672,40.857L22.222,40.857C22.477,40.857 22.698,40.944 22.879,41.125C23.061,41.306 23.148,41.521 23.148,41.776L23.148,49.083C23.148,49.646 22.839,49.982 22.222,50.082C20.061,50.183 18.512,50.237 17.586,50.237C13.312,50.237 10.111,49.532 8.004,48.123C5.891,46.714 4.811,44.057 4.757,40.159L4.757,19.54C4.757,19.285 4.629,19.158 4.368,19.158L-0.04,19.158C-0.302,19.158 -0.517,19.071 -0.698,18.89C-0.879,18.708 -0.966,18.494 -0.966,18.239L-0.966,11.388C-0.966,11.133 -0.879,10.912 -0.698,10.731C-0.517,10.55 -0.302,10.462 -0.04,10.462L4.368,10.462C4.623,10.462 4.757,10.335 4.757,10.08L4.757,0.928C4.757,0.673 4.844,0.452 5.025,0.277C5.206,0.096 5.421,0.009 5.683,0.009L14.338,0.009C14.593,0.009 14.815,0.096 14.996,0.277C15.177,0.458 15.264,0.673 15.264,0.928L15.264,10.08C15.264,10.335 15.392,10.462 15.653,10.462L23.074,10.462C23.329,10.462 23.55,10.55 23.732,10.731C23.913,10.912 24,11.127 24,11.388L24,18.239C24,18.494 23.913,18.715 23.732,18.89L23.738,18.896Z" fill="#A1B500"/>
</svg>
