<svg width="22" height="38" viewBox="0 0 22 38" fill="none" xmlns="http://www.w3.org/2000/svg" xmlns:xlink="http://www.w3.org/1999/xlink">
<path d="M20.793,1.353C21.16,1.54 21.298,1.882 21.208,2.386L19.754,10.234C19.706,10.786 19.382,10.942 18.788,10.714C18.097,10.486 17.287,10.372 16.368,10.372C15.996,10.372 15.491,10.42 14.849,10.51C13.192,10.648 11.781,11.255 10.628,12.336C9.475,13.416 8.898,14.845 8.898,16.641L8.898,35.435C8.898,35.663 8.814,35.861 8.658,36.017C8.496,36.179 8.298,36.257 8.07,36.257L-0.024,36.257C-0.252,36.257 -0.45,36.179 -0.613,36.017C-0.775,35.855 -0.853,35.663 -0.853,35.435L-0.853,1.696C-0.853,1.467 -0.775,1.269 -0.613,1.107C-0.45,0.945 -0.258,0.867 -0.024,0.867L8.07,0.867C8.298,0.867 8.496,0.945 8.658,1.107C8.82,1.269 8.898,1.461 8.898,1.696L8.898,4.314C8.898,4.452 8.94,4.542 9.037,4.59C9.127,4.638 9.199,4.614 9.247,4.524C11.138,1.768 13.672,0.393 16.854,0.393C18.512,0.393 19.827,0.717 20.799,1.359L20.793,1.353Z" fill="#FFFFFF"/>
</svg>
