<svg width="38" height="56" viewBox="0 0 38 56" fill="none" xmlns="http://www.w3.org/2000/svg" xmlns:xlink="http://www.w3.org/1999/xlink">
<path d="M26.521,0.737C26.702,0.556 26.917,0.469 27.179,0.469L36.223,0.469C36.478,0.469 36.699,0.556 36.881,0.737C37.062,0.919 37.149,1.133 37.149,1.395L37.149,36.479C37.149,43.196 35.203,47.993 31.312,50.865C27.42,53.736 22.408,55.172 16.276,55.172C14.471,55.172 12.464,55.045 10.244,54.79C9.727,54.736 9.472,54.407 9.472,53.79L9.781,45.866C9.781,45.202 10.143,44.913 10.861,45.021C12.713,45.329 14.417,45.484 15.96,45.484C19.255,45.484 21.797,44.766 23.575,43.33C25.354,41.894 26.239,39.586 26.239,36.405C26.239,36.251 26.186,36.164 26.085,36.137C25.984,36.11 25.877,36.15 25.776,36.251C23.817,38.358 20.959,39.405 17.195,39.405C13.847,39.405 10.767,38.599 7.956,36.982C5.144,35.365 3.152,32.762 1.964,29.173C1.192,26.811 0.803,23.765 0.803,20.014C0.803,16.015 1.266,12.754 2.192,10.245C3.272,7.118 5.104,4.602 7.681,2.703C10.257,0.804 13.243,-0.142 16.645,-0.142C20.61,-0.142 23.649,1.039 25.763,3.401C25.863,3.502 25.971,3.542 26.071,3.515C26.172,3.488 26.226,3.401 26.226,3.247L26.226,1.402C26.226,1.147 26.313,0.925 26.494,0.744L26.521,0.737ZM26.253,19.933C26.253,18.343 26.199,17.115 26.098,16.243C25.998,15.371 25.816,14.552 25.555,13.781C25.092,12.399 24.32,11.278 23.233,10.433C22.146,9.587 20.811,9.165 19.214,9.165C17.617,9.165 16.356,9.587 15.269,10.433C14.189,11.278 13.39,12.392 12.874,13.781C12.149,15.317 11.794,17.397 11.794,20.014C11.794,22.886 12.102,24.939 12.719,26.167C13.182,27.549 13.994,28.669 15.155,29.515C16.316,30.36 17.691,30.783 19.288,30.783C20.885,30.783 22.301,30.36 23.388,29.515C24.468,28.669 25.213,27.576 25.629,26.247C26.038,24.711 26.246,22.604 26.246,19.94L26.253,19.933Z" fill="#FFFFFF"/>
</svg>
