<svg width="22" height="46" viewBox="0 0 22 46" fill="none" xmlns="http://www.w3.org/2000/svg" xmlns:xlink="http://www.w3.org/1999/xlink">
<path d="M21.585,16.415C21.423,16.577 21.225,16.655 20.997,16.655L14.356,16.655C14.128,16.655 14.008,16.769 14.008,16.997L14.008,31.594C14.008,33.107 14.32,34.236 14.938,34.968C15.563,35.701 16.565,36.067 17.947,36.067L20.228,36.067C20.456,36.067 20.655,36.145 20.817,36.307C20.979,36.47 21.057,36.662 21.057,36.89L21.057,43.429C21.057,43.933 20.781,44.233 20.228,44.323C18.295,44.413 16.908,44.462 16.079,44.462C12.254,44.462 9.39,43.831 7.505,42.57C5.613,41.309 4.647,38.931 4.599,35.443L4.599,16.991C4.599,16.763 4.485,16.649 4.25,16.649L0.305,16.649C0.071,16.649 -0.121,16.571 -0.283,16.409C-0.445,16.247 -0.523,16.054 -0.523,15.826L-0.523,9.696C-0.523,9.468 -0.445,9.269 -0.283,9.107C-0.121,8.945 0.071,8.867 0.305,8.867L4.25,8.867C4.479,8.867 4.599,8.753 4.599,8.525L4.599,0.335C4.599,0.107 4.677,-0.092 4.839,-0.248C5.001,-0.41 5.193,-0.488 5.427,-0.488L13.173,-0.488C13.401,-0.488 13.599,-0.41 13.761,-0.248C13.924,-0.086 14.002,0.107 14.002,0.335L14.002,8.525C14.002,8.753 14.116,8.867 14.35,8.867L20.991,8.867C21.219,8.867 21.417,8.945 21.579,9.107C21.741,9.269 21.819,9.462 21.819,9.696L21.819,15.826C21.819,16.054 21.741,16.253 21.579,16.409L21.585,16.415Z" fill="#A1B500"/>
</svg>
