<svg width="18" height="24" viewBox="0 0 18 24" fill="none" xmlns="http://www.w3.org/2000/svg" xmlns:xlink="http://www.w3.org/1999/xlink">
<path d="M5.256,0.376C5.256,0.032 5.536,-0.247 5.88,-0.248L12.119,-0.248C12.464,-0.247 12.743,0.032 12.743,0.376L12.743,1.92L5.256,1.92L5.256,0.376ZM15.514,21.355C15.481,21.86 15.06,22.251 14.554,22.248L3.374,22.248C2.868,22.246 2.449,21.855 2.414,21.351L1.457,7.355L16.535,7.355L15.515,21.354L15.514,21.355ZM18,6.088L0,6.088L0,4.638C0,3.837 0.649,3.188 1.45,3.188L16.55,3.188C17.35,3.189 17.999,3.837 18,4.638L18,6.088L18,6.088ZM6.102,18.912C6.102,19.262 6.385,19.546 6.735,19.546C7.085,19.546 7.369,19.263 7.369,18.913L7.369,10.026C7.366,9.676 7.08,9.394 6.731,9.398C6.385,9.4 6.105,9.68 6.102,10.025L6.102,18.912L6.102,18.912ZM10.623,18.912C10.623,19.262 10.906,19.546 11.256,19.546C11.606,19.546 11.89,19.263 11.89,18.913L11.89,10.025C11.888,9.676 11.602,9.394 11.251,9.397C10.906,9.399 10.626,9.679 10.623,10.025L10.623,18.912L10.623,18.912Z" clip-rule="evenodd" fill-rule="evenodd" fill="#FFFFFF"/>
</svg>
