<svg width="32" height="50" viewBox="0 0 32 50" fill="none" xmlns="http://www.w3.org/2000/svg" xmlns:xlink="http://www.w3.org/1999/xlink">
<path d="M26.688,15.695C28.945,17.947 30.074,20.997 30.074,24.852L30.074,47.435C30.074,47.663 29.99,47.861 29.834,48.017C29.672,48.179 29.474,48.257 29.245,48.257L21.151,48.257C20.923,48.257 20.725,48.179 20.563,48.017C20.401,47.855 20.323,47.663 20.323,47.435L20.323,26.851C20.323,25.014 19.806,23.525 18.768,22.378C17.729,21.231 16.36,20.655 14.655,20.655C12.949,20.655 11.574,21.231 10.542,22.378C9.503,23.525 8.986,25.02 8.986,26.851L8.986,47.435C8.986,47.663 8.902,47.861 8.746,48.017C8.584,48.179 8.386,48.257 8.158,48.257L0.064,48.257C-0.164,48.257 -0.363,48.179 -0.525,48.017C-0.687,47.855 -0.765,47.663 -0.765,47.435L-0.765,0.894C-0.765,0.666 -0.687,0.468 -0.525,0.312C-0.363,0.15 -0.17,0.072 0.064,0.072L8.158,0.072C8.386,0.072 8.584,0.15 8.746,0.312C8.908,0.474 8.986,0.666 8.986,0.894L8.986,16.11C8.986,16.248 9.028,16.338 9.124,16.386C9.214,16.434 9.287,16.41 9.335,16.32C11.226,13.66 14.036,12.327 17.771,12.327C21.506,12.327 24.436,13.45 26.694,15.701L26.688,15.695Z" fill="#A1B500"/>
</svg>
