<svg width="36" height="42" viewBox="0 0 36 42" fill="none" xmlns="http://www.w3.org/2000/svg" xmlns:xlink="http://www.w3.org/1999/xlink">
<path d="M31.613,3.623C34.136,6.139 35.398,9.547 35.398,13.855L35.398,39.089C35.398,39.344 35.304,39.566 35.129,39.74C34.948,39.921 34.727,40.009 34.472,40.009L25.427,40.009C25.172,40.009 24.951,39.921 24.77,39.74C24.588,39.559 24.501,39.344 24.501,39.089L24.501,16.089C24.501,14.036 23.924,12.372 22.763,11.09C21.603,9.809 20.073,9.165 18.167,9.165C16.262,9.165 14.725,9.809 13.571,11.09C12.411,12.372 11.834,14.043 11.834,16.089L11.834,39.089C11.834,39.344 11.74,39.566 11.565,39.74C11.384,39.921 11.163,40.009 10.908,40.009L1.863,40.009C1.608,40.009 1.387,39.921 1.206,39.74C1.024,39.559 0.937,39.344 0.937,39.089L0.937,1.388C0.937,1.133 1.024,0.912 1.206,0.731C1.387,0.55 1.602,0.462 1.863,0.462L10.908,0.462C11.163,0.462 11.384,0.55 11.565,0.731C11.746,0.912 11.834,1.127 11.834,1.388L11.834,4.079C11.834,4.233 11.881,4.334 11.988,4.387C12.089,4.441 12.169,4.414 12.223,4.314C14.336,1.341 17.476,-0.148 21.65,-0.148C25.823,-0.148 29.097,1.106 31.62,3.623L31.613,3.623Z" fill="#A1B500"/>
</svg>
