<svg width="44" height="50" viewBox="0 0 44 50" fill="none" xmlns="http://www.w3.org/2000/svg" xmlns:xlink="http://www.w3.org/1999/xlink">
<path d="M32.23,47.573L30.152,40.824C30.062,40.644 29.942,40.548 29.804,40.548L12.787,40.548C12.649,40.548 12.535,40.638 12.439,40.824L10.434,47.573C10.296,48.029 9.995,48.263 9.533,48.263L0.749,48.263C0.472,48.263 0.262,48.185 0.124,48.023C-0.014,47.861 -0.038,47.621 0.058,47.303L14.997,0.762C15.135,0.306 15.435,0.072 15.898,0.072L26.76,0.072C27.222,0.072 27.522,0.3 27.66,0.762L42.6,47.303C42.648,47.393 42.666,47.507 42.666,47.645C42.666,48.059 42.413,48.263 41.903,48.263L33.119,48.263C32.656,48.263 32.356,48.035 32.218,47.573L32.23,47.573ZM15.213,33.048L27.39,33.048C27.667,33.048 27.757,32.91 27.666,32.634L21.44,12.182C21.392,12.002 21.326,11.918 21.23,11.942C21.14,11.966 21.068,12.044 21.02,12.182L14.931,32.634C14.883,32.91 14.979,33.048 15.207,33.048L15.213,33.048Z" fill="#FFFFFF"/>
</svg>
