<svg width="20" height="28" viewBox="0 0 20 28" fill="none" xmlns="http://www.w3.org/2000/svg" xmlns:xlink="http://www.w3.org/1999/xlink">
<path d="M4.268,1.732C3.291,0.756 1.709,0.756 0.732,1.732C-0.244,2.709 -0.244,4.291 0.732,5.268L4.268,1.732ZM16.5,17.5L18.268,19.268C19.244,18.291 19.244,16.709 18.268,15.732L16.5,17.5ZM7.732,22.732C6.756,23.709 6.756,25.291 7.732,26.268C8.709,27.244 10.291,27.244 11.268,26.268L7.732,22.732ZM0.732,5.268L14.732,19.268L18.268,15.732L4.268,1.732L0.732,5.268ZM14.732,15.732L7.732,22.732L11.268,26.268L18.268,19.268L14.732,15.732Z" transform="rotate(180 9.5 14)" fill="#434A4A"/>
</svg>
