<svg width="26" height="40" viewBox="0 0 26 40" fill="none" xmlns="http://www.w3.org/2000/svg" xmlns:xlink="http://www.w3.org/1999/xlink">
<path d="M23.926,0.833C24.335,1.041 24.489,1.424 24.389,1.987L22.765,10.757C22.711,11.374 22.349,11.549 21.685,11.294C20.913,11.039 20.007,10.911 18.981,10.911C18.565,10.911 18.001,10.965 17.283,11.066C15.431,11.22 13.855,11.898 12.566,13.105C11.278,14.313 10.634,15.91 10.634,17.916L10.634,38.917C10.634,39.172 10.54,39.393 10.366,39.568C10.184,39.749 9.963,39.836 9.708,39.836L0.663,39.836C0.409,39.836 0.187,39.749 0.006,39.568C-0.175,39.387 -0.262,39.172 -0.262,38.917L-0.262,1.216C-0.262,0.961 -0.175,0.739 0.006,0.558C0.187,0.377 0.402,0.29 0.663,0.29L9.708,0.29C9.963,0.29 10.184,0.377 10.366,0.558C10.547,0.739 10.634,0.954 10.634,1.216L10.634,4.141C10.634,4.296 10.681,4.396 10.788,4.45C10.889,4.504 10.969,4.477 11.023,4.376C13.137,1.296 15.968,-0.24 19.524,-0.24C21.376,-0.24 22.845,0.122 23.932,0.84L23.926,0.833Z" fill="#A1B500"/>
</svg>
