<svg width="38" height="56" viewBox="0 0 38 56" fill="none" xmlns="http://www.w3.org/2000/svg" xmlns:xlink="http://www.w3.org/1999/xlink">
<path d="M26.521,0.565C26.702,0.384 26.917,0.297 27.179,0.297L36.223,0.297C36.478,0.297 36.699,0.384 36.881,0.565C37.062,0.746 37.149,0.961 37.149,1.223L37.149,36.307C37.149,43.023 35.203,47.82 31.312,50.692C27.42,53.564 22.408,55 16.276,55C14.471,55 12.464,54.872 10.244,54.617C9.727,54.564 9.472,54.235 9.472,53.618L9.781,45.694C9.781,45.029 10.143,44.741 10.861,44.848C12.713,45.157 14.417,45.311 15.96,45.311C19.255,45.311 21.797,44.593 23.575,43.157C25.354,41.721 26.239,39.413 26.239,36.233C26.239,36.079 26.186,35.992 26.085,35.965C25.984,35.938 25.877,35.978 25.776,36.079C23.817,38.186 20.959,39.232 17.195,39.232C13.847,39.232 10.767,38.427 7.956,36.81C5.144,35.193 3.152,32.59 1.964,29C1.192,26.638 0.803,23.592 0.803,19.842C0.803,15.843 1.266,12.582 2.192,10.072C3.272,6.946 5.104,4.43 7.681,2.531C10.257,0.632 13.243,-0.314 16.645,-0.314C20.61,-0.314 23.649,0.867 25.763,3.229C25.863,3.329 25.971,3.37 26.071,3.343C26.172,3.316 26.226,3.229 26.226,3.074L26.226,1.229C26.226,0.974 26.313,0.753 26.494,0.572L26.521,0.565ZM26.253,19.761C26.253,18.171 26.199,16.943 26.098,16.071C25.998,15.199 25.816,14.38 25.555,13.608C25.092,12.226 24.32,11.106 23.233,10.26C22.146,9.415 20.811,8.992 19.214,8.992C17.617,8.992 16.356,9.415 15.269,10.26C14.189,11.106 13.39,12.22 12.874,13.608C12.149,15.145 11.794,17.225 11.794,19.842C11.794,22.713 12.102,24.766 12.719,25.994C13.182,27.376 13.994,28.497 15.155,29.342C16.316,30.188 17.691,30.61 19.288,30.61C20.885,30.61 22.301,30.188 23.388,29.342C24.468,28.497 25.213,27.403 25.629,26.075C26.038,24.538 26.246,22.431 26.246,19.768L26.253,19.761Z" fill="#15636E"/>
</svg>
