<svg width="24" height="24" viewBox="0 0 24 24" fill="none" xmlns="http://www.w3.org/2000/svg" xmlns:xlink="http://www.w3.org/1999/xlink">
<path d="M18.344,1.347C18.119,1.123 17.873,0.968 17.595,0.871C17.322,0.775 17.039,0.727 16.745,0.727C16.44,0.727 16.141,0.77 15.863,0.871C15.585,0.968 15.317,1.144 15.066,1.395L0.85,15.537L1.422,22.546L8.089,23.092L22.498,8.752C22.749,8.501 22.92,8.239 23.016,7.961C23.113,7.683 23.15,7.394 23.15,7.084C23.15,6.779 23.091,6.469 22.963,6.17C22.84,5.865 22.653,5.587 22.407,5.336L18.338,1.353L18.344,1.347ZM7.282,20.91L3.309,20.59L2.988,16.376L11.356,8.068L13.66,10.303L15.809,12.447L7.282,20.91ZM20.365,6.635C20.707,6.977 20.712,7.533 20.365,7.881L17.814,10.431L13.366,5.983L15.916,3.432C16.264,3.085 16.82,3.09 17.162,3.432L20.359,6.63L20.365,6.635Z" fill="#907777"/>
</svg>
