<svg width="36" height="40" viewBox="0 0 36 40" fill="none" xmlns="http://www.w3.org/2000/svg" xmlns:xlink="http://www.w3.org/1999/xlink">
<path d="M31.613,3.45C34.136,5.966 35.398,9.375 35.398,13.682L35.398,38.917C35.398,39.172 35.304,39.393 35.129,39.568C34.948,39.749 34.727,39.836 34.472,39.836L25.427,39.836C25.172,39.836 24.951,39.749 24.77,39.568C24.588,39.387 24.501,39.172 24.501,38.917L24.501,15.917C24.501,13.863 23.924,12.2 22.763,10.918C21.603,9.636 20.073,8.992 18.167,8.992C16.262,8.992 14.725,9.636 13.571,10.918C12.411,12.2 11.834,13.87 11.834,15.917L11.834,38.917C11.834,39.172 11.74,39.393 11.565,39.568C11.384,39.749 11.163,39.836 10.908,39.836L1.863,39.836C1.608,39.836 1.387,39.749 1.206,39.568C1.024,39.387 0.937,39.172 0.937,38.917L0.937,1.216C0.937,0.961 1.024,0.74 1.206,0.558C1.387,0.377 1.602,0.29 1.863,0.29L10.908,0.29C11.163,0.29 11.384,0.377 11.565,0.558C11.746,0.74 11.834,0.954 11.834,1.216L11.834,3.906C11.834,4.061 11.881,4.161 11.988,4.215C12.089,4.269 12.169,4.242 12.223,4.141C14.336,1.169 17.476,-0.321 21.65,-0.321C25.823,-0.321 29.097,0.934 31.62,3.45L31.613,3.45Z" fill="#A1B500"/>
</svg>
