<svg width="36" height="42" viewBox="0 0 36 42" fill="none" xmlns="http://www.w3.org/2000/svg" xmlns:xlink="http://www.w3.org/1999/xlink">
<path d="M26.928,1.583C29.558,2.737 31.605,4.314 33.074,6.313C34.544,8.313 35.275,10.547 35.275,13.009L35.275,39.089C35.275,39.344 35.188,39.566 35.007,39.74C34.825,39.921 34.604,40.009 34.349,40.009L25.304,40.009C25.043,40.009 24.828,39.921 24.647,39.74C24.466,39.559 24.379,39.344 24.379,39.089L24.379,36.553C24.379,36.399 24.325,36.298 24.224,36.245C24.124,36.198 24.016,36.245 23.916,36.399C21.748,39.224 18.273,40.633 13.482,40.633C9.463,40.633 6.216,39.66 3.747,37.707C1.271,35.762 0.036,32.89 0.036,29.092C0.036,25.295 1.425,22.081 4.21,19.9C6.994,17.719 10.959,16.632 16.112,16.632L23.996,16.632C24.251,16.632 24.385,16.505 24.385,16.25L24.385,14.559C24.385,12.868 23.869,11.547 22.842,10.594C21.809,9.648 20.266,9.171 18.206,9.171C16.609,9.171 15.28,9.453 14.227,10.017C13.167,10.58 12.489,11.379 12.181,12.399C12.026,12.962 11.691,13.217 11.174,13.17L1.821,11.936C1.204,11.835 0.922,11.6 0.969,11.245C1.177,9.091 2.036,7.145 3.559,5.401C5.075,3.656 7.088,2.301 9.591,1.321C12.087,0.348 14.885,-0.141 17.978,-0.141C21.326,-0.141 24.318,0.436 26.942,1.59L26.928,1.583ZM22.057,30.783C23.6,29.602 24.379,28.092 24.379,26.247L24.379,23.476C24.379,23.221 24.251,23.094 23.989,23.094L18.427,23.094C16.106,23.094 14.294,23.53 12.979,24.402C11.664,25.274 11.006,26.509 11.006,28.092C11.006,29.475 11.496,30.568 12.476,31.36C13.455,32.158 14.771,32.554 16.421,32.554C18.635,32.554 20.521,31.964 22.064,30.783L22.057,30.783Z" fill="#A1B500"/>
</svg>
