<svg width="36" height="54" viewBox="0 0 36 54" fill="none" xmlns="http://www.w3.org/2000/svg" xmlns:xlink="http://www.w3.org/1999/xlink">
<path d="M30.522,17.45C33.045,19.966 34.306,23.375 34.306,27.682L34.306,52.917C34.306,53.172 34.212,53.393 34.038,53.568C33.857,53.749 33.635,53.836 33.38,53.836L24.336,53.836C24.081,53.836 23.859,53.749 23.678,53.568C23.497,53.387 23.41,53.172 23.41,52.917L23.41,29.917C23.41,27.863 22.833,26.199 21.672,24.918C20.511,23.636 18.982,22.992 17.076,22.992C15.171,22.992 13.634,23.636 12.48,24.918C11.319,26.199 10.742,27.87 10.742,29.917L10.742,52.917C10.742,53.172 10.648,53.393 10.474,53.568C10.293,53.749 10.071,53.836 9.816,53.836L0.772,53.836C0.517,53.836 0.295,53.749 0.114,53.568C-0.067,53.387 -0.154,53.172 -0.154,52.917L-0.154,0.911C-0.154,0.656 -0.067,0.435 0.114,0.26C0.295,0.079 0.51,-0.008 0.772,-0.008L9.816,-0.008C10.071,-0.008 10.293,0.079 10.474,0.26C10.655,0.441 10.742,0.656 10.742,0.911L10.742,17.913C10.742,18.067 10.789,18.168 10.897,18.222C10.997,18.275 11.078,18.249 11.131,18.148C13.245,15.176 16.385,13.686 20.558,13.686C24.732,13.686 28.006,14.941 30.529,17.457L30.522,17.45Z" fill="#A1B500"/>
</svg>
