<svg width="26" height="18" viewBox="0 0 26 18" fill="none" xmlns="http://www.w3.org/2000/svg" xmlns:xlink="http://www.w3.org/1999/xlink">
<path d="M2.991,14.55C2.991,8.434 7.968,3.457 14.084,3.457C16.945,3.457 19.654,4.562 21.694,6.486L18.748,6.486C17.946,6.486 17.294,7.138 17.294,7.94C17.294,8.742 17.946,9.394 18.748,9.394L26,9.394L26,2.12C26,1.318 25.348,0.666 24.546,0.666C23.744,0.666 23.092,1.318 23.092,2.12L23.092,3.838C20.597,1.742 17.423,0.55 14.084,0.55C6.364,0.55 0.084,6.83 0.084,14.55C0.084,15.352 0.736,16.004 1.538,16.004C2.34,16.004 2.991,15.352 2.991,14.55Z" transform="rotate(-360 13.042 8.277)" fill="#E6E7E8"/>
</svg>
