<svg width="28" height="16" viewBox="0 0 28 16" fill="none" xmlns="http://www.w3.org/2000/svg" xmlns:xlink="http://www.w3.org/1999/xlink">
<path d="M26.442,-0.559C25.583,-0.559 24.885,0.14 24.885,0.999C24.885,7.551 19.552,12.882 13,12.882C9.968,12.882 7.107,11.735 4.934,9.729L7.761,9.729C8.621,9.729 9.319,9.03 9.319,8.171C9.319,7.312 8.621,6.614 7.761,6.614L-0.009,6.614L-0.009,14.406C-0.009,15.265 0.69,15.964 1.549,15.964C2.408,15.964 3.106,15.265 3.106,14.406L3.106,12.278C5.809,14.653 9.303,16 13,16C21.271,16 28,9.272 28,1.001C28,0.142 27.302,-0.556 26.442,-0.556L26.442,-0.559Z" fill="#E6E7E8"/>
</svg>
