<svg width="16" height="28" viewBox="0 0 16 28" fill="none" xmlns="http://www.w3.org/2000/svg" xmlns:xlink="http://www.w3.org/1999/xlink">
<path d="M3.351,1.526C2.537,0.779 1.272,0.834 0.526,1.649C-0.221,2.463 -0.166,3.728 0.649,4.474L3.351,1.526ZM14,14L15.351,15.474C15.765,15.095 16,14.561 16,14C16,13.439 15.765,12.905 15.351,12.526L14,14ZM0.649,23.526C-0.166,24.272 -0.221,25.537 0.526,26.351C1.272,27.166 2.537,27.221 3.351,26.474L0.649,23.526ZM0.649,4.474L12.649,15.474L15.351,12.526L3.351,1.526L0.649,4.474ZM12.649,12.526L0.649,23.526L3.351,26.474L15.351,15.474L12.649,12.526Z" fill="#000000"/>
</svg>
