<svg width="28" height="16" viewBox="0 0 28 16" fill="none" xmlns="http://www.w3.org/2000/svg" xmlns:xlink="http://www.w3.org/1999/xlink">
<path d="M24.688,0.001C23.886,0.001 23.234,0.653 23.234,1.455C23.234,7.571 18.257,12.547 12.142,12.547C9.312,12.547 6.641,11.476 4.613,9.603L7.252,9.603C8.054,9.603 8.706,8.952 8.706,8.15C8.706,7.348 8.054,6.696 7.252,6.696L0,6.696L0,13.97C0,14.772 0.652,15.423 1.454,15.423C2.256,15.423 2.908,14.772 2.908,13.97L2.908,11.983C5.43,14.2 8.691,15.457 12.142,15.457C19.861,15.457 26.142,9.177 26.142,1.457C26.142,0.655 25.49,0.004 24.688,0.004L24.688,0.001Z" transform="rotate(-360 13.071 7.729)" fill="#E6E7E8"/>
</svg>
