<svg width="16" height="26" viewBox="0 0 16 26" fill="none" xmlns="http://www.w3.org/2000/svg" xmlns:xlink="http://www.w3.org/1999/xlink">
<path d="M3.351,0.526C2.537,-0.221 1.272,-0.166 0.526,0.649C-0.221,1.463 -0.166,2.728 0.649,3.474L3.351,0.526ZM14,13L15.351,14.474C15.765,14.095 16,13.561 16,13C16,12.439 15.765,11.905 15.351,11.526L14,13ZM0.649,22.526C-0.166,23.272 -0.221,24.537 0.526,25.351C1.272,26.166 2.537,26.221 3.351,25.474L0.649,22.526ZM0.649,3.474L12.649,14.474L15.351,11.526L3.351,0.526L0.649,3.474ZM12.649,11.526L0.649,22.526L3.351,25.474L15.351,14.474L12.649,11.526Z" transform="rotate(0 8 13)" fill="#0C5A60"/>
</svg>
