<svg width="36" height="56" viewBox="0 0 36 56" fill="none" xmlns="http://www.w3.org/2000/svg" xmlns:xlink="http://www.w3.org/1999/xlink">
<path d="M30.522,17.623C33.045,20.139 34.306,23.547 34.306,27.855L34.306,53.09C34.306,53.344 34.212,53.566 34.038,53.74C33.857,53.922 33.635,54.009 33.38,54.009L24.336,54.009C24.081,54.009 23.86,53.922 23.678,53.74C23.497,53.559 23.41,53.344 23.41,53.09L23.41,30.089C23.41,28.036 22.833,26.372 21.672,25.09C20.511,23.809 18.982,23.165 17.076,23.165C15.171,23.165 13.634,23.809 12.48,25.09C11.319,26.372 10.742,28.043 10.742,30.089L10.742,53.09C10.742,53.344 10.648,53.566 10.474,53.74C10.293,53.922 10.071,54.009 9.816,54.009L0.772,54.009C0.517,54.009 0.295,53.922 0.114,53.74C-0.067,53.559 -0.154,53.344 -0.154,53.09L-0.154,1.084C-0.154,0.829 -0.067,0.607 0.114,0.433C0.295,0.252 0.51,0.164 0.772,0.164L9.816,0.164C10.071,0.164 10.293,0.252 10.474,0.433C10.655,0.614 10.742,0.829 10.742,1.084L10.742,18.086C10.742,18.24 10.789,18.341 10.897,18.394C10.997,18.448 11.078,18.421 11.131,18.32C13.245,15.348 16.385,13.859 20.558,13.859C24.732,13.859 28.006,15.113 30.529,17.629L30.522,17.623Z" fill="#A1B500"/>
</svg>
