<svg width="38" height="42" viewBox="0 0 38 42" fill="none" xmlns="http://www.w3.org/2000/svg" xmlns:xlink="http://www.w3.org/1999/xlink">
<path d="M37.014,22.705C36.961,23.322 36.625,23.631 36.008,23.631L12.122,23.631C11.813,23.631 11.706,23.758 11.813,24.013C11.968,25.04 12.249,26.066 12.665,27.093C14.007,29.964 16.738,31.4 20.858,31.4C24.152,31.353 26.755,30.018 28.661,27.401C28.869,27.093 29.097,26.938 29.359,26.938C29.513,26.938 29.694,27.039 29.902,27.247L35.465,32.709C35.72,32.964 35.854,33.198 35.854,33.4C35.854,33.5 35.753,33.708 35.545,34.017C33.848,36.124 31.653,37.747 28.976,38.902C26.293,40.056 23.36,40.633 20.167,40.633C15.732,40.633 11.988,39.633 8.922,37.633C5.855,35.634 3.654,32.836 2.313,29.246C1.232,26.683 0.689,23.322 0.689,19.169C0.689,16.351 1.078,13.861 1.85,11.708C3.037,8.064 5.11,5.166 8.069,3.012C11.035,0.858 14.551,-0.222 18.617,-0.222C23.77,-0.222 27.903,1.267 31.023,4.24C34.143,7.212 36.035,11.191 36.706,16.163C37.014,18.115 37.115,20.289 37.014,22.705ZM12.276,13.7C12.068,14.371 11.887,15.19 11.733,16.163C11.733,16.418 11.86,16.545 12.122,16.545L25.494,16.545C25.803,16.545 25.903,16.418 25.803,16.163C25.541,14.673 25.414,13.955 25.414,14.009C24.951,12.472 24.139,11.278 22.978,10.433C21.817,9.587 20.388,9.165 18.691,9.165C15.443,9.165 13.303,10.681 12.276,13.707L12.276,13.7Z" fill="#A1B500"/>
</svg>
