<svg width="18" height="24" viewBox="0 0 18 24" fill="none" xmlns="http://www.w3.org/2000/svg" xmlns:xlink="http://www.w3.org/1999/xlink">
<path d="M5.256,1.376C5.256,1.032 5.536,0.753 5.88,0.752L12.119,0.752C12.464,0.753 12.743,1.032 12.743,1.376L12.743,2.92L5.256,2.92L5.256,1.376ZM15.514,22.355C15.481,22.86 15.06,23.251 14.554,23.248L3.374,23.248C2.868,23.246 2.449,22.855 2.414,22.351L1.457,8.355L16.535,8.355L15.515,22.354L15.514,22.355ZM18,7.088L0,7.088L0,5.638C0,4.837 0.649,4.188 1.45,4.188L16.55,4.188C17.35,4.189 17.999,4.837 18,5.638L18,7.088L18,7.088ZM6.102,19.912C6.102,20.262 6.385,20.546 6.735,20.546C7.085,20.546 7.369,20.263 7.369,19.913L7.369,11.026C7.366,10.676 7.08,10.394 6.731,10.398C6.385,10.4 6.105,10.68 6.102,11.025L6.102,19.912L6.102,19.912ZM10.623,19.912C10.623,20.262 10.906,20.546 11.256,20.546C11.606,20.546 11.89,20.263 11.89,19.913L11.89,11.025C11.888,10.676 11.602,10.394 11.251,10.397C10.906,10.399 10.626,10.679 10.623,11.025L10.623,19.912L10.623,19.912Z" clip-rule="evenodd" fill-rule="evenodd" fill="#FFFFFF"/>
</svg>
