<svg width="28" height="18" viewBox="0 0 28 18" fill="none" xmlns="http://www.w3.org/2000/svg" xmlns:xlink="http://www.w3.org/1999/xlink">
<path d="M3.115,14.999C3.115,8.447 8.448,3.115 15,3.115C18.066,3.115 20.968,4.299 23.154,6.36L19.997,6.36C19.138,6.36 18.44,7.058 18.44,7.917C18.44,8.776 19.138,9.475 19.997,9.475L27.767,9.475L27.767,1.682C27.767,0.823 27.069,0.125 26.21,0.125C25.35,0.125 24.652,0.823 24.652,1.682L24.652,3.523C21.978,1.277 18.577,0 15,0C6.729,0 0,6.728 0,14.999C0,15.858 0.698,16.556 1.558,16.556C2.417,16.556 3.115,15.858 3.115,14.999Z" fill="#E6E7E8"/>
</svg>
