<svg width="36" height="42" viewBox="0 0 36 42" fill="none" xmlns="http://www.w3.org/2000/svg" xmlns:xlink="http://www.w3.org/1999/xlink">
<path d="M7.097,37.553C4.084,35.5 1.931,32.682 0.642,29.092C-0.237,26.529 -0.673,23.503 -0.673,20.014C-0.673,16.525 -0.237,13.606 0.642,11.09C1.877,7.601 4.017,4.857 7.057,2.858C10.096,0.858 13.679,-0.141 17.799,-0.141C21.918,-0.141 25.541,0.885 28.655,2.938C31.775,4.991 33.848,7.581 34.875,10.708C35.284,11.936 35.492,12.862 35.492,13.479L35.492,13.633C35.492,14.096 35.237,14.378 34.72,14.479L25.83,15.787L25.676,15.787C25.213,15.787 24.904,15.532 24.75,15.015L24.515,13.781C24.153,12.446 23.354,11.345 22.12,10.473C20.885,9.601 19.416,9.165 17.711,9.165C16.007,9.165 14.672,9.574 13.538,10.399C12.404,11.218 11.606,12.352 11.143,13.781C10.573,15.317 10.291,17.424 10.291,20.088C10.291,22.752 10.546,24.858 11.062,26.395C11.525,27.931 12.337,29.139 13.498,30.011C14.659,30.884 16.061,31.32 17.711,31.32C19.362,31.32 20.711,30.897 21.925,30.052C23.133,29.206 23.971,28.039 24.434,26.549C24.488,26.449 24.508,26.294 24.508,26.086C24.562,26.039 24.589,25.959 24.589,25.858C24.636,25.241 24.998,24.986 25.669,25.087L34.559,26.469C35.076,26.569 35.331,26.851 35.331,27.314C35.331,27.723 35.176,28.495 34.868,29.622C33.788,33.058 31.687,35.755 28.567,37.701C25.448,39.653 21.858,40.626 17.785,40.626C13.713,40.626 10.096,39.599 7.084,37.546L7.097,37.553Z" fill="#A1B500"/>
</svg>
