<svg width="12" height="52" viewBox="0 0 12 52" fill="none" xmlns="http://www.w3.org/2000/svg" xmlns:xlink="http://www.w3.org/1999/xlink">
<path d="M0.984,9.331C-0.055,8.298 -0.571,7.001 -0.571,5.44C-0.571,3.879 -0.067,2.528 0.948,1.513C1.963,0.504 3.278,0 4.893,0C6.508,0 7.823,0.504 8.838,1.513C9.852,2.522 10.357,3.831 10.357,5.44C10.357,7.049 9.84,8.298 8.802,9.331C7.763,10.364 6.46,10.88 4.893,10.88C3.326,10.88 2.023,10.364 0.984,9.331ZM0.149,50.023C-0.013,49.861 -0.091,49.669 -0.091,49.441L-0.091,15.636C-0.091,15.407 -0.013,15.209 0.149,15.053C0.311,14.891 0.504,14.813 0.738,14.813L8.832,14.813C9.06,14.813 9.258,14.891 9.42,15.053C9.582,15.215 9.66,15.407 9.66,15.636L9.66,49.441C9.66,49.669 9.576,49.867 9.42,50.023C9.258,50.185 9.06,50.263 8.832,50.263L0.738,50.263C0.51,50.263 0.311,50.185 0.149,50.023Z" fill="#FFFFFF"/>
</svg>
