<svg width="38" height="22" viewBox="0 0 38 22" fill="none" xmlns="http://www.w3.org/2000/svg" xmlns:xlink="http://www.w3.org/1999/xlink">
<path d="M36.622,0C37.12,0.272 37.271,0.708 37.269,1.252C37.26,4.036 37.273,6.82 37.26,9.602C37.257,10.631 37.01,10.873 36.009,10.875C33.196,10.882 30.382,10.871 27.57,10.884C26.924,10.887 26.404,10.711 26.409,9.991C26.412,9.276 26.944,9.084 27.58,9.084C29.829,9.09 32.08,9.086 34.491,9.086C33.701,7.87 32.77,6.942 31.753,6.124C26.38,1.804 20.35,0.56 13.86,2.912C7.426,5.244 3.52,9.961 2.123,16.695C1.918,17.682 1.808,18.681 1.801,19.689C1.797,20.188 1.748,20.654 1.173,20.821C0.626,20.981 0.274,20.7 0,20.267C0,19.675 0,19.081 0,18.489C0.05,18.29 0.126,18.094 0.148,17.893C1.008,9.625 6.962,2.748 15.013,0.674C16.336,0.334 17.694,0.276 19.022,0C19.733,0 20.444,0 21.156,0C21.323,0.048 21.488,0.126 21.657,0.14C26.9,0.572 31.255,2.8 34.83,6.622C34.994,6.798 35.084,7.09 35.486,7.109C35.486,5.148 35.499,3.207 35.479,1.268C35.474,0.724 35.593,0.284 36.087,0.002L36.62,0.002L36.622,0Z" fill="#000000"/>
</svg>
