<svg width="18" height="26" viewBox="0 0 18 26" fill="none" xmlns="http://www.w3.org/2000/svg" xmlns:xlink="http://www.w3.org/1999/xlink">
<path d="M4.351,0.526C3.537,-0.221 2.272,-0.166 1.526,0.649C0.779,1.463 0.834,2.728 1.649,3.474L4.351,0.526ZM15,13L16.351,14.474C16.765,14.095 17,13.561 17,13C17,12.439 16.765,11.905 16.351,11.526L15,13ZM1.649,22.526C0.834,23.272 0.779,24.537 1.526,25.351C2.272,26.166 3.537,26.221 4.351,25.474L1.649,22.526ZM1.649,3.474L13.649,14.474L16.351,11.526L4.351,0.526L1.649,3.474ZM13.649,11.526L1.649,22.526L4.351,25.474L16.351,14.474L13.649,11.526Z" transform="rotate(180 9 13)" fill="#0C5A60"/>
</svg>
