<svg width="42" height="50" viewBox="0 0 42 50" fill="none" xmlns="http://www.w3.org/2000/svg" xmlns:xlink="http://www.w3.org/1999/xlink">
<path d="M31.986,0.066L40.08,0.066C40.308,0.066 40.507,0.144 40.669,0.306C40.831,0.468 40.909,0.66 40.909,0.888L40.909,47.429C40.909,47.657 40.825,47.855 40.669,48.011C40.507,48.173 40.308,48.251 40.08,48.251L31.986,48.251C31.758,48.251 31.56,48.173 31.398,48.011C31.236,47.849 31.158,47.657 31.158,47.429L31.158,17.064C31.158,16.884 31.11,16.788 31.019,16.788C30.929,16.788 30.833,16.854 30.743,16.992L23.412,28.419C23.178,28.785 22.859,28.971 22.445,28.971L18.362,28.971C17.948,28.971 17.624,28.791 17.395,28.419L10.064,16.992C9.974,16.854 9.878,16.794 9.788,16.818C9.698,16.842 9.65,16.944 9.65,17.13L9.65,47.423C9.65,47.651 9.572,47.849 9.409,48.005C9.247,48.167 9.049,48.245 8.821,48.245L0.727,48.245C0.493,48.245 0.301,48.167 0.139,48.005C-0.023,47.843 -0.102,47.651 -0.102,47.423L-0.102,0.882C-0.102,0.654 -0.023,0.456 0.139,0.3C0.301,0.138 0.493,0.06 0.727,0.06L8.821,0.06C9.235,0.06 9.56,0.246 9.788,0.612L20.163,16.656C20.302,16.932 20.44,16.932 20.578,16.656L31.025,0.612C31.254,0.246 31.578,0.06 31.992,0.06L31.986,0.066Z" fill="#A1B500"/>
</svg>
