<svg width="26" height="40" viewBox="0 0 26 40" fill="none" xmlns="http://www.w3.org/2000/svg" xmlns:xlink="http://www.w3.org/1999/xlink">
<path d="M25.154,0.833C25.563,1.041 25.717,1.424 25.617,1.987L23.993,10.757C23.939,11.374 23.577,11.549 22.913,11.294C22.141,11.039 21.235,10.911 20.209,10.911C19.793,10.911 19.229,10.965 18.511,11.066C16.659,11.22 15.083,11.898 13.794,13.105C12.506,14.313 11.862,15.91 11.862,17.916L11.862,38.917C11.862,39.172 11.768,39.393 11.594,39.568C11.412,39.749 11.191,39.836 10.936,39.836L1.892,39.836C1.637,39.836 1.415,39.749 1.234,39.568C1.053,39.387 0.966,39.172 0.966,38.917L0.966,1.216C0.966,0.961 1.053,0.739 1.234,0.558C1.415,0.377 1.63,0.29 1.892,0.29L10.936,0.29C11.191,0.29 11.412,0.377 11.594,0.558C11.775,0.739 11.862,0.954 11.862,1.216L11.862,4.141C11.862,4.296 11.909,4.396 12.016,4.45C12.117,4.504 12.197,4.477 12.251,4.376C14.365,1.296 17.196,-0.24 20.752,-0.24C22.604,-0.24 24.073,0.122 25.16,0.84L25.154,0.833Z" fill="#15636E"/>
</svg>
