<svg width="36" height="42" viewBox="0 0 36 42" fill="none" xmlns="http://www.w3.org/2000/svg" xmlns:xlink="http://www.w3.org/1999/xlink">
<path d="M26.928,1.411C29.558,2.565 31.605,4.141 33.074,6.141C34.544,8.14 35.275,10.375 35.275,12.837L35.275,38.917C35.275,39.172 35.188,39.393 35.007,39.568C34.825,39.749 34.604,39.836 34.349,39.836L25.304,39.836C25.043,39.836 24.828,39.749 24.647,39.568C24.466,39.387 24.379,39.172 24.379,38.917L24.379,36.381C24.379,36.227 24.325,36.126 24.224,36.072C24.124,36.025 24.016,36.072 23.916,36.227C21.748,39.051 18.273,40.46 13.482,40.46C9.463,40.46 6.216,39.487 3.747,37.535C1.271,35.589 0.036,32.717 0.036,28.92C0.036,25.122 1.425,21.908 4.21,19.728C6.994,17.547 10.959,16.46 16.112,16.46L23.996,16.46C24.251,16.46 24.385,16.333 24.385,16.078L24.385,14.387C24.385,12.696 23.869,11.374 22.842,10.421C21.809,9.475 20.266,8.999 18.206,8.999C16.609,8.999 15.28,9.281 14.227,9.844C13.167,10.408 12.489,11.206 12.181,12.226C12.026,12.79 11.691,13.045 11.174,12.998L1.821,11.763C1.204,11.663 0.922,11.428 0.969,11.072C1.177,8.919 2.036,6.973 3.559,5.228C5.075,3.484 7.088,2.128 9.591,1.149C12.087,0.176 14.885,-0.314 17.978,-0.314C21.326,-0.314 24.318,0.263 26.942,1.417L26.928,1.411ZM22.057,30.611C23.6,29.43 24.379,27.92 24.379,26.075L24.379,23.304C24.379,23.049 24.251,22.921 23.989,22.921L18.427,22.921C16.106,22.921 14.294,23.358 12.979,24.23C11.664,25.102 11.006,26.337 11.006,27.92C11.006,29.302 11.496,30.396 12.476,31.188C13.455,31.986 14.77,32.382 16.421,32.382C18.635,32.382 20.521,31.792 22.064,30.611L22.057,30.611Z" fill="#A1B500"/>
</svg>
