<svg width="26" height="42" viewBox="0 0 26 42" fill="none" xmlns="http://www.w3.org/2000/svg" xmlns:xlink="http://www.w3.org/1999/xlink">
<path d="M25.154,1.006C25.563,1.214 25.717,1.596 25.617,2.16L23.993,10.929C23.939,11.547 23.577,11.721 22.913,11.466C22.141,11.211 21.235,11.084 20.209,11.084C19.793,11.084 19.229,11.137 18.511,11.238C16.659,11.392 15.083,12.07 13.794,13.278C12.506,14.485 11.862,16.082 11.862,18.088L11.862,39.089C11.862,39.344 11.768,39.566 11.594,39.74C11.412,39.921 11.191,40.008 10.936,40.008L1.892,40.008C1.637,40.008 1.415,39.921 1.234,39.74C1.053,39.559 0.966,39.344 0.966,39.089L0.966,1.388C0.966,1.133 1.053,0.912 1.234,0.731C1.415,0.55 1.63,0.462 1.892,0.462L10.936,0.462C11.191,0.462 11.412,0.55 11.594,0.731C11.775,0.912 11.862,1.127 11.862,1.388L11.862,4.314C11.862,4.468 11.909,4.569 12.016,4.622C12.117,4.676 12.197,4.649 12.251,4.548C14.365,1.469 17.196,-0.068 20.752,-0.068C22.604,-0.068 24.073,0.295 25.16,1.012L25.154,1.006Z" fill="#FFFFFF"/>
</svg>
