<svg width="34" height="50" viewBox="0 0 34 50" fill="none" xmlns="http://www.w3.org/2000/svg" xmlns:xlink="http://www.w3.org/1999/xlink">
<path d="M22.641,1.113C22.803,0.951 22.995,0.873 23.229,0.873L31.324,0.873C31.552,0.873 31.75,0.951 31.912,1.113C32.074,1.275 32.152,1.467 32.152,1.702L32.152,33.099C32.152,39.109 30.411,43.403 26.928,45.972C23.446,48.542 18.96,49.827 13.472,49.827C11.857,49.827 10.062,49.713 8.074,49.485C7.612,49.437 7.384,49.143 7.384,48.59L7.66,41.499C7.66,40.905 7.984,40.646 8.627,40.743C10.284,41.019 11.809,41.157 13.19,41.157C16.138,41.157 18.414,40.514 20.005,39.229C21.596,37.944 22.389,35.879 22.389,33.033C22.389,32.895 22.341,32.817 22.251,32.793C22.161,32.769 22.065,32.805 21.975,32.895C20.221,34.78 17.663,35.717 14.295,35.717C11.299,35.717 8.543,34.996 6.027,33.549C3.511,32.102 1.728,29.772 0.665,26.56C-0.026,24.446 -0.374,21.72 -0.374,18.364C-0.374,14.785 0.04,11.867 0.869,9.621C1.836,6.823 3.475,4.572 5.781,2.873C8.086,1.173 10.758,0.327 13.802,0.327C17.351,0.327 20.071,1.383 21.963,3.497C22.053,3.587 22.149,3.623 22.239,3.599C22.329,3.575 22.377,3.497 22.377,3.359L22.377,1.708C22.377,1.479 22.455,1.281 22.617,1.119L22.641,1.113ZM22.401,18.292C22.401,16.869 22.353,15.77 22.263,14.989C22.173,14.209 22.011,13.476 21.776,12.786C21.362,11.549 20.672,10.546 19.699,9.79C18.726,9.033 17.531,8.655 16.102,8.655C14.673,8.655 13.544,9.033 12.572,9.79C11.605,10.546 10.89,11.543 10.428,12.786C9.78,14.161 9.461,16.022 9.461,18.364C9.461,20.934 9.737,22.771 10.29,23.87C10.704,25.107 11.431,26.11 12.469,26.866C13.508,27.623 14.739,28.001 16.168,28.001C17.597,28.001 18.864,27.623 19.837,26.866C20.804,26.11 21.47,25.131 21.842,23.942C22.209,22.567 22.395,20.682 22.395,18.298L22.401,18.292Z" fill="#FFFFFF"/>
</svg>
