<svg width="38" height="42" viewBox="0 0 38 42" fill="none" xmlns="http://www.w3.org/2000/svg" xmlns:xlink="http://www.w3.org/1999/xlink">
<path d="M37.014,22.532C36.961,23.149 36.625,23.458 36.008,23.458L12.122,23.458C11.813,23.458 11.706,23.586 11.813,23.841C11.968,24.867 12.249,25.894 12.665,26.92C14.007,29.792 16.738,31.228 20.858,31.228C24.152,31.181 26.755,29.846 28.661,27.229C28.869,26.92 29.097,26.766 29.359,26.766C29.513,26.766 29.694,26.867 29.902,27.075L35.465,32.536C35.72,32.791 35.854,33.026 35.854,33.227C35.854,33.328 35.753,33.536 35.545,33.845C33.848,35.951 31.653,37.575 28.976,38.729C26.293,39.883 23.36,40.46 20.167,40.46C15.732,40.46 11.988,39.46 8.922,37.461C5.855,35.462 3.654,32.664 2.313,29.074C1.232,26.511 0.689,23.149 0.689,18.996C0.689,16.178 1.078,13.689 1.85,11.535C3.037,7.892 5.11,4.993 8.069,2.84C11.035,0.686 14.551,-0.394 18.617,-0.394C23.77,-0.394 27.903,1.095 31.023,4.067C34.143,7.04 36.035,11.019 36.706,15.99C37.014,17.943 37.115,20.117 37.014,22.532ZM12.276,13.528C12.068,14.199 11.887,15.017 11.733,15.99C11.733,16.245 11.86,16.373 12.122,16.373L25.494,16.373C25.803,16.373 25.903,16.245 25.803,15.99C25.541,14.501 25.414,13.783 25.414,13.837C24.951,12.3 24.139,11.106 22.978,10.26C21.817,9.415 20.388,8.992 18.691,8.992C15.443,8.992 13.303,10.509 12.276,13.535L12.276,13.528Z" fill="#A1B500"/>
</svg>
