<svg width="50" height="30" viewBox="0 0 50 30" fill="none" xmlns="http://www.w3.org/2000/svg" xmlns:xlink="http://www.w3.org/1999/xlink">
<path d="M25,28.295C24.924,28.295 24.847,28.295 24.771,28.295C9.66,28.17 1.585,16.439 0.716,15.103L0,13.995L0.716,12.888C1.585,11.561 9.632,-0.132 24.675,-0.295C24.78,-0.295 24.885,-0.295 24.99,-0.295C40.493,-0.295 48.921,12.353 49.275,12.888L50,13.995L49.284,15.103C48.931,15.647 40.521,28.295 25,28.295ZM4.926,13.995C7.159,16.849 13.937,24.152 24.809,24.238C24.876,24.238 24.943,24.238 25.01,24.238C35.997,24.238 42.85,16.859 45.094,13.986C42.841,11.122 35.987,3.743 25.01,3.743C24.924,3.743 24.828,3.743 24.733,3.743C13.918,3.867 7.159,11.141 4.926,13.986L4.926,13.995Z" fill="#E8E8E8"/>
</svg>
