<svg width="24" height="38" viewBox="0 0 24 38" fill="none" xmlns="http://www.w3.org/2000/svg" xmlns:xlink="http://www.w3.org/1999/xlink">
<path d="M22.141,1.354C22.507,1.54 22.645,1.882 22.555,2.386L21.102,10.234C21.054,10.786 20.73,10.943 20.135,10.714C19.445,10.486 18.634,10.372 17.715,10.372C17.343,10.372 16.839,10.42 16.196,10.51C14.539,10.648 13.128,11.255 11.975,12.336C10.822,13.416 10.246,14.846 10.246,16.641L10.246,35.435C10.246,35.663 10.162,35.861 10.006,36.017C9.844,36.179 9.645,36.257 9.417,36.257L1.323,36.257C1.095,36.257 0.897,36.179 0.735,36.017C0.573,35.855 0.495,35.663 0.495,35.435L0.495,1.696C0.495,1.468 0.573,1.269 0.735,1.107C0.897,0.945 1.089,0.867 1.323,0.867L9.417,0.867C9.645,0.867 9.844,0.945 10.006,1.107C10.168,1.269 10.246,1.462 10.246,1.696L10.246,4.314C10.246,4.452 10.288,4.542 10.384,4.59C10.474,4.638 10.546,4.614 10.594,4.524C12.486,1.768 15.019,0.393 18.202,0.393C19.859,0.393 21.174,0.717 22.147,1.36L22.141,1.354Z" fill="#A1B500"/>
</svg>
