<svg width="26" height="18" viewBox="0 0 26 18" fill="none" xmlns="http://www.w3.org/2000/svg" xmlns:xlink="http://www.w3.org/1999/xlink">
<path d="M24.546,0.545C23.744,0.545 23.092,1.197 23.092,1.999C23.092,8.114 18.116,13.091 12,13.091C9.17,13.091 6.5,12.02 4.472,10.147L7.11,10.147C7.912,10.147 8.564,9.496 8.564,8.694C8.564,7.892 7.912,7.24 7.11,7.24L-0.142,7.24L-0.142,14.514C-0.142,15.316 0.51,15.967 1.312,15.967C2.114,15.967 2.766,15.316 2.766,14.514L2.766,12.527C5.288,14.744 8.55,16.001 12,16.001C19.72,16.001 26,9.721 26,2.001C26,1.199 25.348,0.547 24.546,0.547L24.546,0.545Z" fill="#E6E7E8"/>
</svg>
