<svg width="26" height="16" viewBox="0 0 26 16" fill="none" xmlns="http://www.w3.org/2000/svg" xmlns:xlink="http://www.w3.org/1999/xlink">
<path d="M2.908,13.999C2.908,7.883 7.884,2.906 14,2.906C16.862,2.906 19.57,4.011 21.611,5.935L18.664,5.935C17.862,5.935 17.21,6.587 17.21,7.389C17.21,8.191 17.862,8.843 18.664,8.843L25.916,8.843L25.916,1.569C25.916,0.767 25.264,0.115 24.462,0.115C23.66,0.115 23.009,0.767 23.009,1.569L23.009,3.287C20.513,1.191 17.339,-0.001 14,-0.001C6.28,-0.001 0,6.279 0,13.999C0,14.801 0.652,15.453 1.454,15.453C2.256,15.453 2.908,14.801 2.908,13.999Z" fill="#E6E7E8"/>
</svg>
