<svg width="48" height="54" viewBox="0 0 48 54" fill="none" xmlns="http://www.w3.org/2000/svg" xmlns:xlink="http://www.w3.org/1999/xlink">
<path d="M35.834,53.071L33.513,45.53C33.412,45.328 33.278,45.221 33.123,45.221L14.108,45.221C13.954,45.221 13.827,45.322 13.719,45.53L11.478,53.071C11.324,53.581 10.989,53.843 10.472,53.843L0.656,53.843C0.347,53.843 0.112,53.756 -0.042,53.574C-0.196,53.393 -0.223,53.125 -0.116,52.769L16.578,0.763C16.732,0.253 17.067,-0.008 17.584,-0.008L29.722,-0.008C30.238,-0.008 30.574,0.247 30.728,0.763L47.422,52.769C47.475,52.87 47.495,52.997 47.495,53.152C47.495,53.615 47.214,53.843 46.643,53.843L36.827,53.843C36.311,53.843 35.975,53.588 35.821,53.071L35.834,53.071ZM16.819,36.841L30.426,36.841C30.735,36.841 30.836,36.686 30.735,36.378L23.777,13.525C23.723,13.324 23.65,13.23 23.542,13.257C23.442,13.283 23.361,13.371 23.307,13.525L16.504,36.378C16.45,36.686 16.557,36.841 16.812,36.841L16.819,36.841Z" fill="#15636E"/>
</svg>
