<svg width="24" height="52" viewBox="0 0 24 52" fill="none" xmlns="http://www.w3.org/2000/svg" xmlns:xlink="http://www.w3.org/1999/xlink">
<path d="M23.738,18.724C23.557,18.905 23.336,18.992 23.081,18.992L15.66,18.992C15.405,18.992 15.271,19.12 15.271,19.375L15.271,35.686C15.271,37.376 15.62,38.638 16.311,39.456C17.009,40.275 18.129,40.684 19.672,40.684L22.222,40.684C22.477,40.684 22.698,40.772 22.879,40.953C23.061,41.134 23.148,41.349 23.148,41.604L23.148,48.91C23.148,49.474 22.839,49.809 22.222,49.91C20.061,50.011 18.512,50.064 17.586,50.064C13.312,50.064 10.111,49.36 8.004,47.951C5.891,46.542 4.811,43.885 4.757,39.987L4.757,19.368C4.757,19.113 4.629,18.986 4.368,18.986L-0.04,18.986C-0.302,18.986 -0.517,18.898 -0.698,18.717C-0.879,18.536 -0.966,18.321 -0.966,18.066L-0.966,11.216C-0.966,10.961 -0.879,10.739 -0.698,10.558C-0.517,10.377 -0.302,10.29 -0.04,10.29L4.368,10.29C4.623,10.29 4.757,10.162 4.757,9.908L4.757,0.756C4.757,0.501 4.844,0.279 5.025,0.105C5.206,-0.076 5.421,-0.164 5.683,-0.164L14.338,-0.164C14.593,-0.164 14.815,-0.076 14.996,0.105C15.177,0.286 15.264,0.501 15.264,0.756L15.264,9.908C15.264,10.162 15.392,10.29 15.653,10.29L23.074,10.29C23.329,10.29 23.55,10.377 23.732,10.558C23.913,10.739 24,10.954 24,11.216L24,18.066C24,18.321 23.913,18.543 23.732,18.717L23.738,18.724Z" fill="#A1B500"/>
</svg>
