<svg width="26" height="42" viewBox="0 0 26 42" fill="none" xmlns="http://www.w3.org/2000/svg" xmlns:xlink="http://www.w3.org/1999/xlink">
<path d="M23.926,1.006C24.335,1.214 24.489,1.596 24.389,2.16L22.765,10.929C22.711,11.547 22.349,11.721 21.685,11.466C20.913,11.211 20.007,11.084 18.981,11.084C18.565,11.084 18.001,11.137 17.283,11.238C15.431,11.392 13.855,12.07 12.566,13.278C11.278,14.485 10.634,16.082 10.634,18.088L10.634,39.089C10.634,39.344 10.54,39.566 10.366,39.74C10.184,39.921 9.963,40.009 9.708,40.009L0.663,40.009C0.409,40.009 0.187,39.921 0.006,39.74C-0.175,39.559 -0.262,39.344 -0.262,39.089L-0.262,1.388C-0.262,1.133 -0.175,0.912 0.006,0.731C0.187,0.55 0.402,0.462 0.663,0.462L9.708,0.462C9.963,0.462 10.184,0.55 10.366,0.731C10.547,0.912 10.634,1.127 10.634,1.388L10.634,4.314C10.634,4.468 10.681,4.569 10.788,4.622C10.889,4.676 10.969,4.649 11.023,4.549C13.137,1.469 15.968,-0.068 19.524,-0.068C21.376,-0.068 22.845,0.295 23.932,1.013L23.926,1.006Z" fill="#A1B500"/>
</svg>
