<svg width="26" height="16" viewBox="0 0 26 16" fill="none" xmlns="http://www.w3.org/2000/svg" xmlns:xlink="http://www.w3.org/1999/xlink">
<path d="M3.106,0.986C2.546,0.376 1.597,0.334 0.986,0.894C0.376,1.454 0.334,2.403 0.894,3.014L3.106,0.986ZM13,14L11.894,15.014C12.178,15.324 12.58,15.5 13,15.5C13.42,15.5 13.822,15.324 14.106,15.014L13,14ZM25.106,3.014C25.666,2.403 25.624,1.454 25.014,0.894C24.403,0.334 23.454,0.376 22.894,0.986L25.106,3.014ZM0.894,3.014L11.894,15.014L14.106,12.986L3.106,0.986L0.894,3.014ZM14.106,15.014L25.106,3.014L22.894,0.986L11.894,12.986L14.106,15.014Z" fill="#9E9E9E"/>
</svg>
