<svg width="14" height="58" viewBox="0 0 14 58" fill="none" xmlns="http://www.w3.org/2000/svg" xmlns:xlink="http://www.w3.org/1999/xlink">
<path d="M2.071,10.276C0.91,9.122 0.333,7.673 0.333,5.928C0.333,4.184 0.897,2.674 2.031,1.54C3.165,0.413 4.634,-0.151 6.439,-0.151C8.244,-0.151 9.713,0.413 10.847,1.54C11.981,2.667 12.545,4.13 12.545,5.928C12.545,7.726 11.968,9.122 10.807,10.276C9.646,11.43 8.19,12.007 6.439,12.007C4.688,12.007 3.232,11.43 2.071,10.276ZM1.139,55.747C0.957,55.566 0.87,55.351 0.87,55.096L0.87,17.321C0.87,17.066 0.957,16.845 1.139,16.67C1.32,16.489 1.534,16.402 1.796,16.402L10.841,16.402C11.096,16.402 11.317,16.489 11.498,16.67C11.679,16.851 11.766,17.066 11.766,17.321L11.766,55.096C11.766,55.351 11.673,55.572 11.498,55.747C11.317,55.928 11.096,56.015 10.841,56.015L1.796,56.015C1.541,56.015 1.32,55.928 1.139,55.747Z" fill="#FFFFFF"/>
</svg>
