<svg width="48" height="56" viewBox="0 0 48 56" fill="none" xmlns="http://www.w3.org/2000/svg" xmlns:xlink="http://www.w3.org/1999/xlink">
<path d="M35.834,53.244L33.513,45.702C33.412,45.501 33.278,45.393 33.123,45.393L14.108,45.393C13.954,45.393 13.827,45.494 13.719,45.702L11.478,53.244C11.324,53.754 10.989,54.015 10.472,54.015L0.656,54.015C0.347,54.015 0.112,53.928 -0.042,53.747C-0.196,53.566 -0.223,53.297 -0.116,52.942L16.578,0.936C16.732,0.426 17.067,0.164 17.584,0.164L29.722,0.164C30.238,0.164 30.574,0.419 30.728,0.936L47.422,52.942C47.475,53.042 47.495,53.17 47.495,53.324C47.495,53.787 47.214,54.015 46.643,54.015L36.827,54.015C36.311,54.015 35.975,53.76 35.821,53.244L35.834,53.244ZM16.819,37.013L30.426,37.013C30.735,37.013 30.836,36.859 30.735,36.55L23.777,13.697C23.723,13.496 23.65,13.402 23.542,13.429C23.442,13.456 23.361,13.543 23.307,13.697L16.504,36.55C16.45,36.859 16.557,37.013 16.812,37.013L16.819,37.013Z" fill="#FFFFFF"/>
</svg>
