<svg width="48" height="56" viewBox="0 0 48 56" fill="none" xmlns="http://www.w3.org/2000/svg" xmlns:xlink="http://www.w3.org/1999/xlink">
<path d="M36.828,0.157L45.872,0.157C46.127,0.157 46.349,0.245 46.53,0.426C46.711,0.607 46.798,0.822 46.798,1.077L46.798,53.083C46.798,53.338 46.704,53.559 46.53,53.733C46.349,53.915 46.127,54.002 45.872,54.002L36.828,54.002C36.573,54.002 36.352,53.915 36.17,53.733C35.989,53.552 35.902,53.338 35.902,53.083L35.902,19.152C35.902,18.951 35.848,18.844 35.748,18.844C35.647,18.844 35.54,18.917 35.439,19.072L27.247,31.84C26.985,32.249 26.629,32.457 26.166,32.457L21.604,32.457C21.141,32.457 20.779,32.256 20.524,31.84L12.331,19.072C12.231,18.917 12.123,18.85 12.023,18.877C11.922,18.904 11.868,19.018 11.868,19.226L11.868,53.076C11.868,53.331 11.781,53.552 11.6,53.727C11.419,53.908 11.197,53.995 10.942,53.995L1.898,53.995C1.636,53.995 1.422,53.908 1.24,53.727C1.059,53.546 0.972,53.331 0.972,53.076L0.972,1.07C0.972,0.815 1.059,0.594 1.24,0.419C1.422,0.238 1.636,0.151 1.898,0.151L10.942,0.151C11.405,0.151 11.768,0.359 12.023,0.768L23.617,18.696C23.771,19.005 23.925,19.005 24.08,18.696L35.754,0.768C36.009,0.359 36.372,0.151 36.835,0.151L36.828,0.157Z" fill="#A1B500"/>
</svg>
