<svg width="28" height="20" viewBox="0 0 28 20" fill="none" xmlns="http://www.w3.org/2000/svg" xmlns:xlink="http://www.w3.org/1999/xlink">
<path d="M4.503,8.68C3.774,7.85 2.51,7.768 1.68,8.497C0.85,9.226 0.768,10.49 1.497,11.32L4.503,8.68ZM10,17.969L8.497,19.289C8.862,19.704 9.382,19.949 9.933,19.968C10.485,19.986 11.02,19.775 11.411,19.386L10,17.969ZM27.411,3.448C28.194,2.669 28.196,1.402 27.417,0.62C26.637,-0.163 25.371,-0.165 24.589,0.614L27.411,3.448ZM1.497,11.32L8.497,19.289L11.503,16.649L4.503,8.68L1.497,11.32ZM11.411,19.386L27.411,3.448L24.589,0.614L8.589,16.552L11.411,19.386Z" fill="#1CB46F"/>
</svg>
