<svg width="38" height="20" viewBox="0 0 38 20" fill="none" xmlns="http://www.w3.org/2000/svg" xmlns:xlink="http://www.w3.org/1999/xlink">
<path d="M1.378,20C0.875,19.732 0.731,19.291 0.732,18.748C0.741,15.964 0.729,13.18 0.741,10.396C0.745,9.369 0.996,9.125 1.993,9.124C4.807,9.116 7.621,9.129 10.434,9.115C11.084,9.111 11.595,9.296 11.591,10.012C11.588,10.738 11.036,10.912 10.414,10.912C8.164,10.912 5.915,10.912 3.611,10.912C3.66,11.333 3.941,11.564 4.165,11.808C9.367,17.467 15.742,19.566 23.127,17.397C30.361,15.273 34.567,10.162 35.984,2.772C36.139,1.963 36.153,1.124 36.192,0.297C36.217,-0.204 36.263,-0.663 36.828,-0.834C37.38,-0.999 37.723,-0.693 37.998,-0.27L37.998,1.508C37.948,1.707 37.877,1.902 37.851,2.103C36.706,10.405 32.164,15.979 24.343,18.914C22.615,19.561 20.786,19.737 18.978,19.996L16.844,19.996C16.677,19.948 16.512,19.874 16.341,19.86C11.168,19.428 6.844,17.26 3.298,13.497C3.088,13.275 2.896,13.036 2.695,12.805C2.512,14.85 2.5,16.791 2.519,18.731C2.524,19.275 2.398,19.712 1.909,19.996L1.376,19.996L1.378,20Z" fill="#000000"/>
</svg>
