<svg width="20" height="12" viewBox="0 0 20 12" fill="none" xmlns="http://www.w3.org/2000/svg" xmlns:xlink="http://www.w3.org/1999/xlink">
<path d="M2.707,1.293C2.317,0.902 1.683,0.902 1.293,1.293C0.902,1.683 0.902,2.317 1.293,2.707L2.707,1.293ZM10,10L9.293,10.707C9.683,11.098 10.317,11.098 10.707,10.707L10,10ZM18.707,2.707C19.098,2.317 19.098,1.683 18.707,1.293C18.317,0.902 17.683,0.902 17.293,1.293L18.707,2.707ZM1.293,2.707L9.293,10.707L10.707,9.293L2.707,1.293L1.293,2.707ZM10.707,10.707L18.707,2.707L17.293,1.293L9.293,9.293L10.707,10.707Z" transform="rotate(-180 10 6)" fill="#FFFFFF"/>
</svg>
