<svg width="32" height="38" viewBox="0 0 32 38" fill="none" xmlns="http://www.w3.org/2000/svg" xmlns:xlink="http://www.w3.org/1999/xlink">
<path d="M23.268,1.87C25.622,2.903 27.453,4.314 28.768,6.103C30.083,7.892 30.737,9.892 30.737,12.095L30.737,35.435C30.737,35.663 30.659,35.861 30.497,36.017C30.335,36.179 30.137,36.257 29.909,36.257L21.815,36.257C21.581,36.257 21.388,36.179 21.226,36.017C21.064,35.855 20.986,35.663 20.986,35.435L20.986,33.165C20.986,33.027 20.938,32.937 20.848,32.889C20.758,32.847 20.662,32.889 20.572,33.027C18.632,35.555 15.522,36.816 11.235,36.816C7.638,36.816 4.732,35.945 2.522,34.198C0.307,32.457 -0.798,29.887 -0.798,26.488C-0.798,23.09 0.445,20.213 2.937,18.262C5.429,16.311 8.977,15.338 13.589,15.338L20.644,15.338C20.872,15.338 20.992,15.224 20.992,14.996L20.992,13.483C20.992,11.969 20.53,10.787 19.611,9.934C18.686,9.087 17.305,8.661 15.462,8.661C14.033,8.661 12.844,8.913 11.901,9.417C10.953,9.922 10.346,10.636 10.07,11.549C9.932,12.053 9.632,12.282 9.169,12.24L0.799,11.135C0.247,11.045 -0.005,10.835 0.037,10.516C0.223,8.589 0.991,6.848 2.354,5.286C3.711,3.725 5.513,2.512 7.752,1.636C9.986,0.765 12.49,0.327 15.258,0.327C18.254,0.327 20.932,0.843 23.28,1.876L23.268,1.87ZM18.909,28.001C20.29,26.945 20.986,25.594 20.986,23.942L20.986,21.462C20.986,21.234 20.872,21.12 20.638,21.12L15.66,21.12C13.583,21.12 11.961,21.511 10.785,22.291C9.608,23.072 9.019,24.176 9.019,25.594C9.019,26.83 9.458,27.809 10.334,28.518C11.211,29.232 12.388,29.586 13.865,29.586C15.846,29.586 17.534,29.058 18.915,28.001L18.909,28.001Z" fill="#A1B500"/>
</svg>
