<svg width="32" height="33" viewBox="0 0 32 33" fill="none" xmlns="http://www.w3.org/2000/svg">
<g clip-path="url(#clip0_1833_3156)">
<path d="M31.6566 9.80909C31.3526 8.9116 30.8481 8.07911 30.1977 7.39826C29.4562 6.62457 28.5535 6.16344 26.9154 5.32166L20.1561 1.85861C18.8006 1.16228 18.056 0.781625 17.1777 0.611412C16.3966 0.462863 15.6034 0.462863 14.8223 0.611412C13.944 0.781625 13.1994 1.16228 11.8439 1.85861L5.08766 5.32166C3.44648 6.16344 2.54383 6.62457 1.80226 7.39826C1.15187 8.07911 0.647355 8.9116 0.343432 9.80909C0 10.8304 0 11.8609 0 13.7302V28.3313C0 29.4207 0 30.0768 0.340393 30.7607C0.641276 31.3642 1.1154 31.8439 1.70804 32.1503C2.37667 32.5 3.02403 32.5 4.09384 32.5H27.9062C28.976 32.5 29.6233 32.5 30.292 32.1534C30.8846 31.8439 31.3587 31.3642 31.6596 30.7607C32 30.0768 32 29.4207 32 28.3313V13.7302C32 11.8609 32 10.8304 31.6566 9.80909ZM22.5267 29.4052H9.47326V15.5499C9.47326 15.1197 9.47326 14.6741 9.50062 14.5039C9.67081 14.476 10.1054 14.476 10.5309 14.476H21.4721C21.8946 14.476 22.3292 14.476 22.4994 14.5039C22.5267 14.6741 22.5267 15.1197 22.5267 15.5499V29.4052ZM28.9608 28.3313C28.9608 28.7615 28.9608 29.2041 28.9365 29.3774C28.7663 29.4052 28.3317 29.4052 27.9062 29.4052H25.566V15.5499C25.566 14.4605 25.566 13.8014 25.2225 13.1205C24.9216 12.517 24.4475 12.0342 23.8579 11.7279C23.1862 11.3812 22.5419 11.3812 21.4721 11.3812H10.5309C9.45807 11.3812 8.81375 11.3812 8.14512 11.7279C7.55247 12.0342 7.07835 12.517 6.77747 13.1205C6.43404 13.8014 6.43404 14.4605 6.43404 15.5499V29.4052H4.09384C3.67138 29.4052 3.23374 29.4052 3.06354 29.3774C3.03923 29.2041 3.03923 28.7615 3.03923 28.3313V13.7302C3.03923 12.1426 3.03923 11.3472 3.21854 10.8149C3.37658 10.3476 3.63795 9.91431 3.97835 9.55841C4.36433 9.15609 5.06335 8.80019 6.45227 8.0853L13.2115 4.62224C14.3543 4.03424 14.9287 3.74023 15.3876 3.65358C15.7949 3.57621 16.2082 3.57621 16.6124 3.65358C17.0713 3.74023 17.6457 4.03424 18.7885 4.62224L25.5477 8.0853C26.9367 8.80019 27.6357 9.15609 28.0217 9.55841C28.362 9.91431 28.6234 10.3476 28.7815 10.8149C28.9608 11.3472 28.9608 12.1426 28.9608 13.7302V28.3313ZM19.217 17.936H12.783C11.9442 17.936 11.2634 18.6292 11.2634 19.4834C11.2634 20.3375 11.9442 21.0308 12.783 21.0308H19.217C20.0589 21.0308 20.7366 20.3375 20.7366 19.4834C20.7366 18.6292 20.0589 17.936 19.217 17.936ZM19.217 24.4876H12.783C11.9442 24.4876 11.2634 25.1809 11.2634 26.035C11.2634 26.8892 11.9442 27.5824 12.783 27.5824H19.217C20.0589 27.5824 20.7366 26.8923 20.7366 26.035C20.7366 25.1778 20.0589 24.4876 19.217 24.4876Z" fill="#0C5A60"/>
<path d="M20.7367 26.0349C20.7367 26.8922 20.0589 27.5823 19.2171 27.5823H12.783C11.9442 27.5823 11.2634 26.8922 11.2634 26.0349C11.2634 25.1777 11.9442 24.4875 12.783 24.4875H19.2171C20.0589 24.4875 20.7367 25.1808 20.7367 26.0349Z" fill="#A1B500"/>
<path d="M20.7367 19.4834C20.7367 20.3376 20.0589 21.0308 19.2171 21.0308H12.783C11.9442 21.0308 11.2634 20.3376 11.2634 19.4834C11.2634 18.6293 11.9442 17.936 12.783 17.936H19.2171C20.0589 17.936 20.7367 18.6293 20.7367 19.4834Z" fill="#A1B500"/>
</g>
<defs>
<clipPath id="clip0_1833_3156">
<rect width="32" height="32" fill="white" transform="translate(0 0.5)"/>
</clipPath>
</defs>
</svg>
